<svg xmlns="http://www.w3.org/2000/svg" width="24" height="24" viewBox="0 0 24 24">
    <path fill="#6C788F" fill-rule="nonzero" d="M19.333 17c.614 0 .667.447.667 1 0 .553-.053 1-.667 1h-8.666c-.614 0-.667-.447-.667-1v-.11c.01-.5.094-.89.667-.89zm-2.019-5c.631 0 .686.447.686 1 0 .553-.055 1-.686 1h-6.628c-.631 0-.686-.447-.686-1v-.11c.01-.5.097-.89.686-.89zm-6.647-3h8.666c.614 0 .667-.447.667-1 0-.553-.053-1-.667-1h-8.666C10.053 7 10 7.447 10 8c0 .553.053 1 .667 1zM7.4 17c.552 0 .6.447.6 1 0 .553-.048 1-.6 1H5.6c-.552 0-.6-.447-.6-1v-.11c.009-.5.085-.89.6-.89zm0-5c.552 0 .6.447.6 1 0 .553-.048 1-.6 1H5.6c-.552 0-.6-.447-.6-1v-.11c.009-.5.085-.89.6-.89zm0-5H5.6c-.552 0-.6.447-.6 1 0 .553.048 1 .6 1h1.8c.552 0 .6-.447.6-1 0-.553-.048-1-.6-1z"/>
</svg>
