<svg xmlns="http://www.w3.org/2000/svg" xmlns:xlink="http://www.w3.org/1999/xlink" width="48" height="48" viewBox="0 0 48 48">
    <defs>
        <path id="a" d="M0 .16h40.162V45H0z"/>
    </defs>
    <g fill="none" fill-rule="evenodd">
        <g transform="translate(4 1.84)">
            <mask id="b" fill="#fff">
                <use xlink:href="#a"/>
            </mask>
            <path fill="#6A758B" d="M26.027 18.24l-4.215-7.299 3.86-6.683 10.391 6-6.128 10.614a13.993 13.993 0 0 0-3.908-2.632zM20.287 42c-6.066 0-11-4.935-11-11 0-1.51.306-2.952.86-4.264.03-.07.067-.138.1-.207a10.977 10.977 0 0 1 1.698-2.68 11.034 11.034 0 0 1 4.157-3.017A10.94 10.94 0 0 1 20.287 20c1.285 0 2.513.233 3.661.64a11.013 11.013 0 0 1 4.43 2.932 11.029 11.029 0 0 1 1.86 2.771l.001.002A10.918 10.918 0 0 1 31.287 31c0 6.065-4.935 11-11 11zM4.097 10.258l10.393-6 3.858 6.683 1.733 3 1.824 3.16a14.17 14.17 0 0 0-1.618-.1c-.705 0-1.393.068-2.07.17a14.052 14.052 0 0 0-7.847 3.95L4.096 10.257zM40.162 9.16l-15.589-9-4.492 7.782L15.59.16 0 9.16l8.377 14.51A13.905 13.905 0 0 0 6.287 31c0 7.732 6.267 14 14 14 7.732 0 14-6.268 14-14 0-2.838-.85-5.474-2.3-7.68l8.175-14.16z" mask="url(#b)"/>
        </g>
        <path fill="#EA644D" d="M29.287 32.84a5 5 0 0 1-5 5 5 5 0 0 1-5-5 5 5 0 0 1 5-5 5 5 0 0 1 5 5"/>
    </g>
</svg>
