<?xml version="1.0" encoding="UTF-8"?>
<svg width="24px" height="24px" viewBox="0 0 24 24" version="1.1" xmlns="http://www.w3.org/2000/svg" xmlns:xlink="http://www.w3.org/1999/xlink">
    <title>714EF87A-0B6C-4165-BE1F-D09FFA3F80D6</title>
    <g id="Symbols_assets" stroke="none" stroke-width="1" fill="none" fill-rule="evenodd">
        <g id="Assets" transform="translate(-343.000000, -973.000000)" fill-rule="nonzero">
            <g id="icon-/-lms-/-learing-/-completed" transform="translate(343.000000, 973.000000)">
                <g id="icon" transform="translate(1.000000, 1.000000)">
                    <path d="M21.8927342,11.7340761 L20.5960208,9.67487527 L21.3651708,7.36386067 C21.4697713,7.04873869 21.3394886,6.70304223 21.0535839,6.53708638 L18.9552814,5.31927021 L18.5694259,2.91285858 C18.5159093,2.58490051 18.2410848,2.33979817 17.9112521,2.32586602 L15.4911187,2.23046899 L14.0390387,0.279556701 C13.8412336,0.0133376126 13.484203,-0.075174094 13.1862298,0.0681362507 L11,1.11492531 L8.81291653,0.067276818 C8.51460547,-0.0744389264 8.15845048,0.0142146279 7.96010763,0.279556701 L6.50802762,2.23046899 L4.08789427,2.32586602 C3.75826598,2.33913544 3.48346667,2.58417429 3.4305741,2.91199914 L3.04471862,5.31841078 L0.946416051,6.53622695 C0.660187844,6.70191385 0.529524478,7.04767284 0.633975555,7.36300123 L1.40312552,9.67401584 L0.107265756,11.7340761 C-0.0689659609,12.0151943 -0.0243613982,12.3823462 0.213973576,12.6124163 L1.96142083,14.2994828 L1.76507844,16.7282397 C1.73815256,17.0595678 1.9465477,17.3642144 2.26361738,17.4570386 L4.58984785,18.1316933 L5.53655963,20.3756721 C5.66474458,20.6823813 5.99060606,20.854876 6.31424622,20.7873404 L8.68742813,20.2974638 L10.5603638,21.8418644 C10.6875595,21.9458557 10.8437798,22 11,22 C11.1562202,22 11.3115868,21.9458557 11.4396362,21.8418644 L13.3125719,20.2974638 L15.6857538,20.7873404 C16.0075846,20.856095 16.3345373,20.6816302 16.4634404,20.3756721 L17.4101522,18.1316933 L19.7363826,17.4570386 C20.0536585,17.364502 20.2621879,17.0596592 20.2349216,16.7282397 L20.0385792,14.2994828 L21.7860264,12.6124163 C22.0243614,12.3823462 22.068966,12.0151943 21.8927342,11.7340761 Z" id="Icon-Path" fill="#777777"></path>
                    <polygon id="Icon-Path" fill="#FFFFFF" points="16 6 9.2 12.8 6.4 10 5 11.4 9.2 15.6 17.4 7.4"></polygon>
                </g>
            </g>
        </g>
    </g>
</svg>