<svg xmlns="http://www.w3.org/2000/svg" viewBox="0 0 40.74 22.55"><defs><style>.cls-1{fill:#e2e7f2;}.cls-2{fill:#a3adc3;}.cls-3,.cls-4,.cls-5{fill:none;}.cls-4,.cls-5,.cls-6{stroke:#6c788f;stroke-miterlimit:10;}.cls-5{stroke-dasharray:3.21 2.14;}.cls-6{fill:#fff;}</style></defs><title>icon-folder-exist-on-01</title><g id="레이어_2" data-name="레이어 2"><g id="Layer_1" data-name="Layer 1"><path class="cls-1" d="M40,21.33V10.26A1.15,1.15,0,0,0,38.85,9.1H32.26a1.16,1.16,0,0,1-1-.51l-.43-.69a1.16,1.16,0,0,0-1-.51H24.42a1.17,1.17,0,0,0-1.15,1.16v12.8Z"/><path class="cls-2" d="M38.94,8.63H32.35a.51.51,0,0,1-.43-.23l-.48-.7A1.75,1.75,0,0,0,30,6.9H24.51a1.82,1.82,0,0,0-1.78,1.84V20.9a1.77,1.77,0,0,0,1.78,1.65H38.94a1.81,1.81,0,0,0,1.8-1.78V10.55A1.84,1.84,0,0,0,39,8.63Zm0,12.7H24.51a.52.52,0,0,1-.52-.52h0V8.69a.53.53,0,0,1,.51-.53H30a.52.52,0,0,1,.43.24l.46.7a1.78,1.78,0,0,0,1.49.8h6.59a.52.52,0,0,1,.53.52h0V20.81a.52.52,0,0,1-.53.52Z"/><path class="cls-2" d="M34.56,14.83H32.12V12.4a.64.64,0,0,0-.71-.56.66.66,0,0,0-.56.56v2.43H28.42a.63.63,0,0,0-.62.64.63.63,0,0,0,.62.63h2.43v2.43a.64.64,0,0,0,.56.71.63.63,0,0,0,.71-.55.43.43,0,0,0,0-.16V16.1h2.44a.64.64,0,0,0,0-1.27Z"/><line class="cls-3" x1="9.63" y1="15.25" x2="20.13" y2="15.25"/><line class="cls-4" x1="9.63" y1="15.25" x2="11.13" y2="15.25"/><line class="cls-5" x1="13.27" y1="15.25" x2="17.56" y2="15.25"/><line class="cls-4" x1="18.63" y1="15.25" x2="20.13" y2="15.25"/><line class="cls-3" x1="5" x2="5" y2="10.5"/><line class="cls-4" x1="5" x2="5" y2="1.5"/><line class="cls-5" x1="5" y1="3.64" x2="5" y2="7.93"/><line class="cls-4" x1="5" y1="9" x2="5" y2="10.5"/><rect class="cls-6" x="0.5" y="10.75" width="9" height="9"/><line class="cls-4" x1="2.14" y1="15.25" x2="7.86" y2="15.25"/><line class="cls-4" x1="5" y1="12.39" x2="5" y2="18.11"/></g></g></svg>