<svg xmlns="http://www.w3.org/2000/svg" viewBox="0 0 40.29 15.69"><defs><style>.cls-1{fill:#ea634d;}.cls-2{fill:#bb5137;}.cls-3{fill:#1f1613;}.cls-4{fill:none;stroke:#fff;stroke-linecap:square;stroke-miterlimit:10;stroke-dasharray:3 3;}</style></defs><title>icon-folder-none-over_1</title><g id="레이어_2" data-name="레이어 2"><g id="Layer_1" data-name="Layer 1"><path class="cls-1" d="M22.92,13.75a1.16,1.16,0,0,0,1.16,1.15H38.5a1.16,1.16,0,0,0,1.16-1.15V7.38A1.15,1.15,0,0,0,38.5,6.23H24.08a1.15,1.15,0,0,0-1.16,1.15Z"/><path class="cls-2" d="M39.66,6.23V3.81A1.16,1.16,0,0,0,38.5,2.65H31.91a1.14,1.14,0,0,1-1-.51l-.47-.7a1.18,1.18,0,0,0-1-.52H24.08a1.16,1.16,0,0,0-1.16,1.16V6.23Z"/><path class="cls-3" d="M38.5,1.73H31.91a.54.54,0,0,1-.44-.23L31,.8A1.77,1.77,0,0,0,29.52,0H24.08a1.82,1.82,0,0,0-1.79,1.92V14a1.77,1.77,0,0,0,1.79,1.65H38.5a1.79,1.79,0,0,0,1.79-1.78V3.65A1.82,1.82,0,0,0,38.5,1.73Zm-14.95.06a.53.53,0,0,1,.53-.53h5.44A.51.51,0,0,1,30,1.5l.47.7a1.78,1.78,0,0,0,1.49.8H38.5a.52.52,0,0,1,.53.52V5.81a1.84,1.84,0,0,0-.53-.08H24.08a1.89,1.89,0,0,0-.53.08Zm15,12.64H24.08a.53.53,0,0,1-.53-.52V7.52A.52.52,0,0,1,24.08,7H38.5a.52.52,0,0,1,.53.52v6.39A.53.53,0,0,1,38.5,14.43Z"/><line class="cls-4" x1="20" y1="7.85" x2="0.5" y2="7.85"/></g></g></svg>