<svg xmlns="http://www.w3.org/2000/svg" width="28" height="28" viewBox="0 0 28 28">
    <path fill="#303C42" fill-rule="evenodd" d="M14 2c6.617 0 12 5.383 12 12s-5.383 12-12 12S2 20.617 2 14 7.383 2 14 2zm0 2C8.477 4 4 8.477 4 14s4.477 10 10 10 10-4.477 10-10S19.523 4 14 4zm6.993 9.883L21 14a7 7 0 0 1-12.804 3.913 1 1 0 0 1 1.658-1.118 5 5 0 0 0 8.631-.582l-.93.62a1 1 0 1 1-1.11-1.665l3-2a1.02 1.02 0 0 1 .206-.105l.012-.005a.992.992 0 0 1 .205-.05l.015-.001.04-.004a1 1 0 0 1 .055-.003H20a1.019 1.019 0 0 1 .519.145 1.065 1.065 0 0 1 .224.186.992.992 0 0 1 .09.114l-.063-.083c.015.018.03.037.044.057l.018.026a1.02 1.02 0 0 1 .16.423l.001.015zM14 7a6.99 6.99 0 0 1 5.804 3.087 1 1 0 0 1-1.658 1.118 5 5 0 0 0-8.631.582l.93-.62a1 1 0 1 1 1.11 1.665l-3 2a1.02 1.02 0 0 1-.206.105l-.012.005a.992.992 0 0 1-.205.05l-.015.001L8.05 15a1 1 0 0 1-.033.001H8a1.017 1.017 0 0 1-.519-.145 1.065 1.065 0 0 1-.224-.186.992.992 0 0 1-.09-.114l.063.083a1.004 1.004 0 0 1-.044-.057l-.018-.026a1.02 1.02 0 0 1-.16-.423l-.001-.015L7 14a7 7 0 0 1 7-7z"/>
</svg>
