<svg xmlns="http://www.w3.org/2000/svg" width="98" height="18" viewBox="0 0 98 18">
    <g fill="none" fill-rule="nonzero">
        <path fill="#E1002A" d="M6.624 4.328c-.79-.49-1.6-.736-2.432-.736-1.195 0-1.792.373-1.792 1.12 0 .363.17.683.512.96l.11.073c.167.103.467.27.898.503l.784.416c.715.384 1.21.672 1.488.864.533.373.915.779 1.144 1.216.23.437.344.944.344 1.52 0 1.12-.453 1.979-1.36 2.576-.779.523-1.75.784-2.912.784-.939 0-1.792-.144-2.56-.432-.544-.203-.816-.55-.816-1.04 0-.619.352-.928 1.056-.928.203 0 .48.064.832.192a4.896 4.896 0 0 0 1.616.272c1.205 0 1.808-.41 1.808-1.232 0-.405-.23-.752-.688-1.04l-.303-.184a40.296 40.296 0 0 0-1.201-.664l-.544-.288c-.885-.459-1.504-.89-1.856-1.296C.251 6.429 0 5.741 0 4.92c0-1.11.443-1.93 1.328-2.464.747-.459 1.696-.688 2.848-.688 1.301 0 2.437.261 3.408.784l-.96 1.776zM18.496 1.96L14.16 7.4l3.488 4.32c.192.235.288.47.288.704 0 .341-.115.619-.344.832-.23.213-.515.32-.856.32-.416 0-.72-.133-.912-.4L12.192 8.28a1.302 1.302 0 0 1-.256-.784c0-.277.08-.523.24-.736l3.616-4.8h2.704zm-6.848 0v10.304c0 .875-.39 1.312-1.168 1.312-.768 0-1.152-.437-1.152-1.312V1.96h2.32z"/>
        <path fill="#222" d="M23.488 1.96h2.4v6.768c0 .64.021 1.099.064 1.376.085.544.261.95.528 1.216.373.341.907.512 1.6.512.352 0 .704-.09 1.056-.272.352-.181.592-.419.72-.712s.203-.712.224-1.256l.012-.444c.003-.157.004-.324.004-.5V2.904c0-.725.384-1.088 1.152-1.088.341 0 .619.099.832.296.213.197.32.461.32.792v6.08c0 .085-.005.192-.016.32-.021.79-.144 1.461-.368 2.016-.501 1.227-1.43 1.973-2.784 2.24-.395.075-.79.112-1.184.112-1.568 0-2.763-.459-3.584-1.376-.63-.704-.95-1.717-.96-3.04l-.016-.336V1.96zm12.976 2.736v.944c.693-.779 1.59-1.168 2.688-1.168.939 0 1.664.267 2.176.8.544.565.816 1.403.816 2.512v4.688c0 .33-.107.603-.32.816-.213.213-.485.32-.816.32-.341 0-.613-.107-.816-.32-.203-.213-.304-.485-.304-.816V7.944c0-.821-.272-1.333-.816-1.536a1.814 1.814 0 0 0-.544-.08c-.64 0-1.157.261-1.552.784a1.477 1.477 0 0 0-.224.384v4.976c0 .33-.107.603-.32.816-.213.213-.485.32-.816.32-.341 0-.613-.107-.816-.32-.203-.213-.304-.485-.304-.816V4.696h1.968zM45.28 1c.352 0 .65.11.896.328.245.219.368.504.368.856 0 .341-.123.619-.368.832-.245.213-.544.32-.896.32s-.648-.107-.888-.32c-.24-.213-.36-.49-.36-.832 0-.352.123-.637.368-.856.245-.219.539-.328.88-.328zm1.136 3.696v7.776c0 .523-.23.87-.688 1.04a1.13 1.13 0 0 1-.448.096c-.33 0-.6-.107-.808-.32-.208-.213-.312-.485-.312-.816V4.696h2.256zm3.472 0l1.456 4.896.232.82c.048.178.088.336.121.473l.111.451h.08c.088-.456.191-.897.309-1.323l1.563-5.317h2.352l-2.704 7.808c-.256.736-.795 1.104-1.616 1.104-.821 0-1.365-.368-1.632-1.104l-2.816-7.808h2.544zM60.48 9.864c-.693 0-1.04-.293-1.04-.88 0-.459.235-.741.704-.848a1.88 1.88 0 0 1 .336-.032h2.24c0-.683-.16-1.19-.48-1.52-.32-.33-.736-.496-1.248-.496-.736 0-1.296.315-1.68.944-.33.523-.496 1.168-.496 1.936 0 .981.256 1.723.768 2.224.437.437 1.019.656 1.744.656a5.34 5.34 0 0 0 1.614-.259l.274-.093c.277-.096.49-.144.64-.144.523 0 .784.24.784.72 0 .31-.15.576-.448.8-.565.416-1.323.677-2.272.784a6.33 6.33 0 0 1-.752.048c-1.483 0-2.619-.421-3.408-1.264-.757-.81-1.136-1.936-1.136-3.376 0-1.472.437-2.63 1.312-3.472.821-.768 1.85-1.152 3.088-1.152 1.29 0 2.277.4 2.96 1.2.683.8 1.024 2 1.024 3.6v.624H60.48zm7.84-5.168l.096 1.184c.555-.992 1.403-1.488 2.544-1.488.181 0 .32.01.416.032v2.288a2.693 2.693 0 0 0-.64-.064c-.49 0-.901.107-1.232.32a1.443 1.443 0 0 0-.656 1.056v4.448c0 .405-.144.71-.432.912-.213.15-.448.224-.704.224-.33 0-.6-.107-.808-.32-.208-.213-.312-.485-.312-.816V4.696h1.728zm9.36 2.192c-.725-.405-1.435-.608-2.128-.608-.81 0-1.216.224-1.216.672 0 .31.272.603.816.88.405.17.997.448 1.776.832.981.544 1.472 1.285 1.472 2.224 0 .896-.341 1.595-1.024 2.096-.619.448-1.408.672-2.368.672-.683 0-1.275-.075-1.776-.224-.757-.235-1.136-.608-1.136-1.12 0-.288.093-.51.28-.664.187-.155.419-.232.696-.232.137 0 .297.027.481.082l.143.046c.501.181.965.272 1.392.272.79 0 1.184-.245 1.184-.736 0-.373-.293-.688-.88-.944a16.514 16.514 0 0 1-1.728-.832c-.96-.544-1.44-1.29-1.44-2.24 0-.853.347-1.51 1.04-1.968.597-.395 1.344-.592 2.24-.592 1.099 0 2.037.197 2.816.592l-.64 1.792zM81.04 1c.352 0 .65.11.896.328.245.219.368.504.368.856 0 .341-.123.619-.368.832-.245.213-.544.32-.896.32s-.648-.107-.888-.32c-.24-.213-.36-.49-.36-.832 0-.352.123-.637.368-.856.245-.219.539-.328.88-.328zm1.136 3.696v7.776c0 .523-.23.87-.688 1.04a1.13 1.13 0 0 1-.448.096c-.33 0-.6-.107-.808-.32-.208-.213-.312-.485-.312-.816V4.696h2.256zm4.656-1.792v1.792h1.2c.757 0 1.136.304 1.136.912 0 .587-.379.88-1.136.88h-1.2v4.192c0 .619.085.976.256 1.072a.911.911 0 0 0 .368.064c.088 0 .197-.012.327-.036l.137-.028c.192-.043.341-.064.448-.064.555 0 .832.261.832.784 0 .533-.432.896-1.296 1.088a3.696 3.696 0 0 1-.864.096c-.747 0-1.312-.133-1.696-.4-.416-.299-.661-.795-.736-1.488a9.207 9.207 0 0 1-.031-.749l-.001-4.531h-1.264V4.696h1.264V2.904h2.256zm2.192 1.792h2.528l1.465 4.268c.102.323.296 1.007.583 2.052h.064l.576-2.176.303-1.049c.186-.653.41-1.455.673-2.407l.176-.688h2.416l-3.024 9.008c-.363 1.088-.917 1.947-1.664 2.576-.704.587-1.445.88-2.224.88-.704 0-1.056-.31-1.056-.928 0-.341.165-.613.496-.816.299-.139.597-.283.896-.432.779-.448 1.168-.992 1.168-1.632 0-.192-.064-.459-.192-.8l-.096-.224-3.088-7.632z"/>
    </g>
</svg>
