<svg xmlns="http://www.w3.org/2000/svg" width="80" height="80" viewBox="0 0 80 80">
    <g fill="none" fill-rule="evenodd">
        <g>
            <g>
                <g>
                    <g>
                        <path fill="#FFF" d="M68.793 25.945c-2.419-9.026-8.208-16.57-16.3-21.243C44.398.03 34.97-1.212 25.944 1.207c-9.026 2.419-16.57 8.207-21.243 16.3C.03 25.601-1.21 35.03 1.207 44.055c2.419 9.026 8.208 16.57 16.3 21.243 8.093 4.672 17.52 5.913 26.548 3.495 9.026-2.419 16.57-8.208 21.243-16.3 4.672-8.093 5.914-17.521 3.495-26.548z" transform="translate(-1270 -159) translate(400 159) translate(870) translate(5 5)"/>
                        <path fill="#C60808" d="M62.72 29.385c-.242.233-.513.392-.807.47l-.748.2-1.054-3.933.748-.2c.333-.09.664-.093.985-.01.692.173 1.135.657 1.355 1.48.222.828.066 1.48-.478 1.993zm-.456-5.069c-.608-.164-1.225-.165-1.835-.001l-2.375.636 1.915 7.147 2.375-.636c.602-.162 1.131-.458 1.573-.88.98-.948 1.279-2.166.889-3.621-.379-1.413-1.235-2.303-2.542-2.645zm-5.354.942l-5.323 1.426 1.915 7.147 5.434-1.456-.43-1.607-3.808 1.02-.387-1.445 2.014-.54-.435-1.627-2.015.54-.231-.862 3.697-.99-.43-1.606zm-6.124 1.64l-5.465 1.465.426 1.586 1.944-.52 1.49 5.56 1.576-.423-1.49-5.56 1.944-.521-.425-1.586zm-4.34 8.824l-.431-1.607-3.808 1.02-.387-1.445 2.014-.54-.435-1.627-2.015.54-.231-.862 3.697-.99-.43-1.606-5.324 1.426 1.915 7.147 5.434-1.456zm-12.22-4.386l-1.627.436 1.915 7.147 5.434-1.456-.43-1.607-3.808 1.02-1.485-5.54zm-4.27 4.243l-1.715.46-.345-1.285 1.716-.46c.247-.066.45-.057.622.028.162.081.267.22.322.424.05.19.027.353-.073.5-.106.157-.279.266-.527.333zm1.586 1.052l.007-.005.006-.006c.65-.608.854-1.384.607-2.305-.23-.858-.788-1.413-1.661-1.65-.413-.11-.864-.1-1.34.028l-3.301.885 1.915 7.146 1.606-.43-.71-2.65 1.736-.464c.44-.119.823-.303 1.135-.549zm-7.41 1.374l.923 3.448 1.576-.422-1.915-7.147-1.5.402-.854 4.258-2.858-3.263-1.502.402 1.915 7.147 1.577-.423-.923-3.444 2.768 3.229.792-4.187zm-7.705 3.47c-.116.5-.417.81-.92.944-.446.12-.83.039-1.177-.248-.362-.3-.637-.793-.818-1.466-.178-.666-.185-1.225-.02-1.662.157-.419.45-.68.897-.8.438-.117.814-.036 1.149.248.352.3.622.79.8 1.457.16.595.19 1.108.09 1.528zm-.017-4.385c-.733-.533-1.557-.682-2.449-.443-.945.253-1.61.794-1.98 1.607-.362.799-.394 1.77-.095 2.887.264.985.732 1.762 1.391 2.308.775.648 1.67.842 2.661.577.906-.243 1.548-.793 1.905-1.635.35-.823.38-1.796.086-2.891-.288-1.076-.8-1.887-1.519-2.41zm-4.761 6.188l-1.694-.346-.048.19c-.14.546-.5.893-1.096 1.06-.442.118-.829.039-1.184-.24-.368-.29-.647-.781-.829-1.46-.152-.568-.15-1.098.007-1.574.15-.451.435-.735.874-.867.597-.139 1.102-.013 1.545.385l.136.123 1.26-1.109-.166-.155c-.935-.876-2.013-1.159-3.202-.84-.945.253-1.61.795-1.979 1.612-.361.802-.393 1.772-.096 2.882.295 1.102.81 1.928 1.53 2.455.735.536 1.583.68 2.522.43 1.183-.318 1.974-1.101 2.353-2.329l.067-.217zm4.628-19.061c-2.012 3.484-2.994 7.368-2.902 11.29l.512-.138c-.067-3.785.893-7.531 2.835-10.895 2.821-4.886 7.376-8.381 12.825-9.841 5.45-1.46 11.142-.711 16.028 2.11 3.364 1.942 6.068 4.706 7.903 8.018l.512-.137c-1.88-3.443-4.674-6.315-8.158-8.327-5.005-2.89-10.836-3.657-16.418-2.161-5.582 1.495-10.248 5.076-13.137 10.08zM53.75 45.852c2.012-3.483 2.995-7.367 2.902-11.29l-.511.138c.066 3.786-.894 7.531-2.836 10.895-2.82 4.886-7.375 8.381-12.825 9.842-5.45 1.46-11.142.71-16.028-2.11-3.363-1.943-6.068-4.707-7.903-8.019l-.511.138c1.88 3.442 4.673 6.314 8.157 8.326 5.005 2.89 10.836 3.657 16.418 2.162 5.583-1.496 10.248-5.077 13.137-10.082zm9.542 5.483c-4.363 7.557-11.408 12.963-19.837 15.222-8.43 2.258-17.233 1.099-24.791-3.264-7.557-4.364-12.963-11.409-15.221-19.837-2.26-8.43-1.1-17.234 3.263-24.791C11.07 11.108 18.115 5.702 26.545 3.444c8.429-2.26 17.232-1.1 24.79 3.263 7.557 4.363 12.963 11.408 15.222 19.837 2.258 8.43 1.099 17.233-3.264 24.79zm3.76-24.924c-2.294-8.562-7.785-15.718-15.461-20.15C43.916 1.83 34.973.653 26.412 2.948h-.001c-8.561 2.294-15.718 7.785-20.15 15.46C1.83 26.085.653 35.028 2.948 43.59c2.294 8.561 7.784 15.717 15.46 20.15 7.677 4.431 16.62 5.609 25.182 3.315 8.562-2.295 15.718-7.786 20.15-15.462 4.431-7.676 5.609-16.62 3.315-25.18zm-2.646 25.567c-4.535 7.855-11.858 13.473-20.619 15.82-8.761 2.348-17.912 1.144-25.766-3.391-7.855-4.535-13.474-11.858-15.82-20.618-2.348-8.76-1.144-17.912 3.391-25.767S17.451 4.548 26.211 2.2c8.761-2.348 17.912-1.143 25.767 3.392s13.474 11.858 15.821 20.618c2.348 8.761 1.143 17.912-3.392 25.767zM52.492 4.702C44.4.03 34.972-1.212 25.945 1.207c-9.026 2.419-16.57 8.207-21.243 16.3C.03 25.601-1.21 35.03 1.207 44.055c2.419 9.026 8.208 16.57 16.3 21.243 8.093 4.672 17.52 5.913 26.548 3.495 9.026-2.419 16.57-8.208 21.243-16.3 4.672-8.093 5.914-17.521 3.495-26.548-2.419-9.026-8.208-16.57-16.3-21.243zm-40.62 46.202l-.284-.44c-.11-.171-.172-.354-.183-.55-.028-.42.165-.762.58-1.03.417-.27.817-.298 1.2-.087.177.094.314.217.412.37l.284.44-2.01 1.297zm2.286-2.099c-.171-.265-.392-.47-.664-.618-.606-.323-1.23-.278-1.872.136-.623.403-.915.945-.877 1.626.015.317.11.61.282.877l.652 1.01 3.13-2.022-.651-1.009zm.982 1.443l-.508.433 1.366 1.599-.774.66-.722-.845-.516.441.722.846-.528.451-1.326-1.551-.508.433 1.767 2.068 2.833-2.421-1.806-2.114zm3.38 3.576l-.483-.437-2.06 2.277-.796-.72-.441.486 2.074 1.877.44-.487-.795-.72 2.06-2.276zm.743 1.53l1.728 1.196-.58.837-.914-.633-.386.558.914.633-.396.571-1.678-1.162-.38.549 2.236 1.549 2.122-3.064-2.286-1.584-.38.55zm3.147 1.321l-.303.595 1.874.954-1.387 2.726.605.308 1.69-3.322-2.48-1.26zm4.107 5.108l-.998-.346c-.154-.053-.263-.136-.326-.249-.063-.112-.07-.236-.023-.373.045-.13.126-.218.245-.265.118-.047.254-.044.408.01l.999.346-.305.877zm1.003-2.89l-.48 1.382-1.008-.35c-.217-.075-.425-.106-.622-.092-.427.068-.718.322-.871.763-.142.41-.07.783.218 1.118.138.158.322.277.554.357l1.618.562 1.222-3.52-.63-.22zm3.557 3.143l-.655-2.436-1.494 2.035.417-2.236-.64-.12-.683 3.664.64.12 1.482-1.976.666 2.376.64.12.683-3.664-.64-.12-.416 2.237zm3.94-.121c-.014.393-.105.698-.272.914-.167.217-.391.32-.673.31-.278-.009-.49-.128-.636-.355-.146-.228-.212-.538-.198-.931.011-.348.08-.63.207-.844.158-.273.396-.404.715-.393.281.01.498.13.65.36.151.23.22.542.206.939zm-.834-1.966c-.467-.016-.846.15-1.139.498-.292.347-.448.812-.468 1.394-.02.57.105 1.036.377 1.396.271.36.637.548 1.096.564.49.017.88-.14 1.174-.474.294-.333.45-.796.471-1.389.019-.522-.092-.966-.332-1.33-.274-.421-.668-.641-1.179-.659zm4.633.29c-.32-.321-.72-.456-1.203-.404-.612.064-1.061.388-1.346.97l.652.244c.135-.313.386-.49.755-.533.276-.03.508.057.696.26.187.201.302.501.344.9.035.335-.013.632-.146.89-.133.259-.34.406-.62.443-.362.028-.654-.096-.877-.37L36.5 63c.397.51.903.732 1.519.667.487-.052.852-.264 1.096-.637.244-.372.335-.852.273-1.438-.062-.583-.253-1.034-.572-1.354zm7.524.468c-.187.08-.378.11-.573.09-.418-.042-.725-.29-.92-.742-.197-.457-.16-.857.113-1.2.122-.158.266-.272.433-.344l.48-.207.947 2.196-.48.207zm-1.212-2.81c-.29.126-.529.31-.719.553-.419.545-.477 1.167-.175 1.869.294.68.78 1.059 1.458 1.134.315.037.62-.007.912-.133l1.103-.476-1.475-3.422-1.104.476zm1.58-.728l.345.571 1.8-1.087.526.871-.952.576.35.58.953-.575.36.595-1.748 1.056.345.571 2.328-1.406-1.927-3.19-2.38 1.438zm5.992-.345l-1.905-2.408-.51.404 1.904 2.408-.842.666.407.515 2.195-1.736-.407-.514-.842.665zm-.748-3.356l.477.467 1.47-1.503.728.711-.778.796.485.474.778-.795.497.486-1.428 1.46.478.466 1.901-1.945-2.664-2.605-1.944 1.988zm2.307-2.412l.536.399 1.255-1.687 2.454 1.826.405-.544-2.99-2.225-1.66 2.231zm4.914-3.64l.814.446-.509.927c-.079.143-.178.236-.3.28-.12.043-.245.03-.371-.04-.12-.066-.194-.161-.22-.286-.028-.125-.002-.259.077-.402l.509-.926zm-1.868-1.026l1.282.704-.514.936c-.11.202-.175.4-.194.597-.006.433.197.762.606.987.38.209.76.2 1.139-.028.178-.11.327-.271.444-.486l.825-1.501-3.266-1.794-.322.585zm1.549-3.762l2.137.78-2.51.244 1.76 1.81-2.136-.78-.223.61 3.5 1.278.223-.611-1.704-1.788 2.454-.266.223-.611-3.501-1.277-.223.61zm3.714-1.998c-.054.272-.206.462-.455.57-.248.106-.565.12-.95.043-.342-.069-.608-.183-.8-.342-.243-.2-.333-.457-.27-.77.056-.276.21-.47.46-.582.252-.112.572-.13.961-.05.386.077.672.216.858.416.187.2.252.439.196.715zm-.92-1.797c-.512-.103-.968-.067-1.367.11-.46.203-.741.555-.842 1.056-.093.458.009.86.304 1.205.296.345.73.575 1.3.69.56.113 1.04.065 1.439-.144.4-.209.645-.539.735-.99.097-.48.005-.891-.275-1.235-.281-.344-.712-.575-1.294-.692zm.274-3.698c-.585-.036-1.062.076-1.43.338-.37.261-.57.634-.6 1.12-.037.613.207 1.11.733 1.488l.35-.603c-.286-.185-.42-.462-.4-.833.017-.277.14-.492.371-.643.23-.15.545-.214.945-.19.337.022.622.12.854.293.233.174.344.402.334.684-.034.362-.204.63-.512.804l.262.624c.569-.307.872-.769.91-1.387.03-.489-.117-.884-.444-1.187-.327-.302-.785-.472-1.373-.508zm-3.794-16.012l.285.439c.11.171.172.354.184.55.028.42-.164.763-.578 1.031-.417.27-.817.3-1.201.09-.176-.095-.313-.218-.412-.37l-.284-.439 2.006-1.3zm-2.282 2.103c.171.264.393.47.665.616.606.323 1.23.277 1.871-.14.622-.402.914-.945.874-1.626-.015-.317-.11-.61-.283-.877l-.653-1.008-3.128 2.027.654 1.008zm-.985-1.441l.507-.435-1.369-1.595.773-.663.724.844.515-.441-.724-.845.528-.452 1.329 1.549.506-.435-1.77-2.064-2.829 2.426 1.81 2.111zm-3.386-3.57l.483.436 2.057-2.28.797.719.44-.488-2.078-1.873-.44.487.797.719-2.056 2.28zm-.747-1.528l-1.73-1.194.578-.838.916.632.385-.558-.915-.632.394-.572 1.68 1.159.38-.55-2.239-1.544-2.116 3.067 2.288 1.58.38-.55zm-3.149-1.316l.302-.596-1.876-.95 1.382-2.729-.605-.306-1.684 3.324 2.481 1.257zm-4.117-5.1l1 .344c.154.053.262.136.326.248.063.112.071.236.024.373-.045.13-.126.218-.245.266-.118.047-.254.044-.409-.01l-.998-.344.302-.878zm-.997 2.891l.477-1.383 1.01.348c.217.075.424.106.621.091.428-.068.718-.323.87-.765.141-.41.068-.782-.22-1.117-.139-.157-.323-.276-.555-.356l-1.619-.559-1.215 3.523.63.218zm-3.562-3.136l.659 2.435 1.49-2.038-.413 2.237.64.118.677-3.665-.64-.118-1.48 1.978-.67-2.375-.64-.118-.676 3.665.64.118.413-2.237zm-3.94.128c.013-.393.103-.698.27-.915.166-.217.39-.32.672-.311.278.009.49.127.637.354.146.228.213.538.2.93-.011.35-.08.63-.206.846-.157.273-.395.404-.714.393-.282-.009-.498-.128-.65-.358-.152-.23-.222-.542-.209-.939zm.837 1.964c.467.016.846-.15 1.138-.5.291-.347.447-.813.466-1.394.019-.571-.108-1.036-.38-1.396-.272-.36-.637-.547-1.097-.562-.49-.016-.88.143-1.173.476-.293.334-.45.797-.469 1.39-.017.522.094.966.335 1.33.275.42.669.64 1.18.656zm-4.633-.28c.32.32.72.453 1.204.401.612-.066 1.06-.39 1.344-.973l-.653-.243c-.134.313-.386.491-.754.535-.276.03-.508-.056-.696-.258-.188-.202-.303-.502-.346-.9-.036-.335.012-.632.145-.89.132-.26.338-.407.618-.445.362-.028.655.095.879.37l.57-.364c-.398-.509-.905-.73-1.52-.664-.487.052-.852.265-1.095.638s-.334.853-.27 1.44c.063.582.254 1.033.574 1.353zm-7.525-.455c.187-.082.378-.112.573-.091.418.041.725.288.92.74.198.456.162.856-.11 1.2-.121.158-.265.273-.432.345l-.48.208-.95-2.195.479-.207zm1.216 2.806c.29-.125.529-.31.718-.553.419-.545.476-1.168.172-1.87-.295-.68-.781-1.057-1.46-1.13-.315-.037-.62.007-.912.134l-1.102.478 1.482 3.42 1.102-.479zm-1.578.732l-.346-.57-1.797 1.09-.528-.87.951-.577-.352-.58-.951.576-.36-.594 1.745-1.059-.346-.57-2.326 1.41 1.933 3.186 2.377-1.442zm-5.99.355l1.908 2.405.51-.404-1.909-2.405.84-.668-.407-.514-2.192 1.74.408.514.841-.668zm.753 3.355l-.478-.465-1.467 1.505-.729-.71.777-.797-.487-.473-.776.797-.498-.486 1.425-1.462-.478-.466-1.898 1.948 2.669 2.601 1.94-1.992zm-2.303 2.417l-.536-.398-1.252 1.69-2.458-1.823-.404.545 2.994 2.22 1.656-2.234zm-4.905 3.647l-.815-.446.507-.927c.078-.143.178-.236.299-.28.121-.043.245-.03.372.039.12.066.194.16.22.285.028.125.002.26-.076.402l-.507.927zm1.869 1.023l-1.284-.703.513-.936c.11-.202.174-.401.193-.598.005-.433-.198-.762-.608-.986-.38-.208-.76-.198-1.138.03-.179.11-.327.272-.444.487l-.822 1.503 3.27 1.788.32-.585zm-1.543 3.766l-2.138-.775 2.51-.25-1.765-1.805 2.138.775.222-.611-3.503-1.271-.222.612 1.708 1.784-2.453.27-.222.612 3.503 1.27.222-.61zM7.45 29.49c.054-.273.206-.463.454-.57.248-.107.565-.123.95-.046.343.069.609.182.8.342.244.2.335.456.272.768-.055.277-.208.471-.46.584-.25.112-.57.13-.96.052-.385-.077-.671-.216-.858-.415-.187-.2-.253-.438-.198-.715zm.923 1.795c.513.103.969.065 1.367-.113.46-.203.74-.555.84-1.057.092-.458-.01-.86-.306-1.204-.296-.345-.73-.574-1.3-.688-.56-.112-1.04-.063-1.44.147-.399.21-.643.54-.733.99-.096.48-.003.892.278 1.236.281.343.713.573 1.294.69zm-.266 3.699c.584.035 1.061-.079 1.43-.34.369-.263.567-.636.596-1.12.037-.615-.208-1.111-.735-1.488l-.348.603c.286.184.42.462.401.832-.016.278-.14.492-.37.644-.23.151-.545.215-.945.19-.337-.02-.622-.116-.854-.29-.233-.174-.345-.401-.336-.683.033-.362.204-.63.511-.805l-.263-.624c-.568.308-.871.77-.908 1.389-.03.489.12.884.447 1.186.327.302.785.47 1.374.506z" transform="translate(-1270 -159) translate(400 159) translate(870) translate(5 5)"/>
                    </g>
                </g>
            </g>
        </g>
    </g>
</svg>
