<svg xmlns="http://www.w3.org/2000/svg" viewBox="0 0 40.29 15.69"><defs><style>.cls-1{fill:#e2e7f2;}.cls-2{fill:#a3adc3;}.cls-3{fill:none;stroke:#fff;stroke-linecap:square;stroke-miterlimit:10;stroke-dasharray:3 3;}</style></defs><title>icon-folder-none-on_1</title><g id="레이어_2" data-name="레이어 2"><g id="Layer_1" data-name="Layer 1"><path class="cls-1" d="M39.57,14.43V3.36A1.16,1.16,0,0,0,38.41,2.2H31.82a1.14,1.14,0,0,1-1-.51L30.39,1a1.14,1.14,0,0,0-1-.51H24a1.16,1.16,0,0,0-1.16,1.16v12.8Z"/><path class="cls-2" d="M38.5,1.73H31.91a.54.54,0,0,1-.44-.23L31,.8A1.77,1.77,0,0,0,29.52,0H24.08a1.82,1.82,0,0,0-1.79,1.92V14a1.77,1.77,0,0,0,1.79,1.65H38.5a1.79,1.79,0,0,0,1.79-1.78V3.65A1.82,1.82,0,0,0,38.5,1.73Zm0,12.7H24.08a.53.53,0,0,1-.53-.52V1.79a.53.53,0,0,1,.53-.53h5.44A.51.51,0,0,1,30,1.5l.47.7a1.78,1.78,0,0,0,1.49.8H38.5a.52.52,0,0,1,.53.52V13.91A.53.53,0,0,1,38.5,14.43Z"/><line class="cls-3" x1="20" y1="7.85" x2="0.5" y2="7.85"/></g></g></svg>