<svg xmlns="http://www.w3.org/2000/svg" viewBox="0 0 40.61 15.69"><defs><style>.cls-1{fill:#ea634d;}.cls-2{fill:#bb5137;}.cls-3{fill:#1f1613;}.cls-4,.cls-5{fill:#fff;}.cls-4,.cls-6,.cls-7{stroke:#6c788f;stroke-miterlimit:10;}.cls-6,.cls-7{fill:none;}.cls-7{stroke-dasharray:3.21 2.14;}</style></defs><title>자산 9</title><g id="레이어_2" data-name="레이어 2"><g id="Layer_1" data-name="Layer 1"><path class="cls-1" d="M23.24,13.75a1.15,1.15,0,0,0,1.15,1.15H38.82A1.15,1.15,0,0,0,40,13.75V7.38a1.14,1.14,0,0,0-1.15-1.15H24.39a1.14,1.14,0,0,0-1.15,1.15Z"/><path class="cls-2" d="M40,6.23V3.81a1.15,1.15,0,0,0-1.15-1.16h-6.6a1.17,1.17,0,0,1-1-.51l-.46-.7a1.18,1.18,0,0,0-1-.52H24.39a1.15,1.15,0,0,0-1.15,1.16V6.23Z"/><path class="cls-3" d="M38.82,1.73h-6.6a.52.52,0,0,1-.43-.23L31.32.8A1.78,1.78,0,0,0,29.84,0H24.39a1.81,1.81,0,0,0-1.78,1.92V14a1.76,1.76,0,0,0,1.78,1.65H38.82a1.8,1.8,0,0,0,1.79-1.78V3.65A1.83,1.83,0,0,0,38.82,1.73Zm-14.95.06a.52.52,0,0,1,.52-.53h5.45a.52.52,0,0,1,.43.24l.47.7a1.77,1.77,0,0,0,1.48.8h6.6a.52.52,0,0,1,.52.52V5.81a1.77,1.77,0,0,0-.52-.08H24.39a1.82,1.82,0,0,0-.52.08Zm15,12.64H24.39a.52.52,0,0,1-.52-.52V7.52A.52.52,0,0,1,24.39,7H38.82a.52.52,0,0,1,.52.52v6.39A.52.52,0,0,1,38.82,14.43Z"/><path class="cls-3" d="M34.67,10.08H28.54a.63.63,0,0,0,0,1.26h6.13a.63.63,0,1,0,0-1.26Z"/><rect class="cls-4" x="0.5" y="3.35" width="9" height="9"/><line class="cls-5" x1="9.5" y1="7.85" x2="20" y2="7.85"/><line class="cls-6" x1="9.5" y1="7.85" x2="11" y2="7.85"/><line class="cls-7" x1="13.14" y1="7.85" x2="17.43" y2="7.85"/><line class="cls-6" x1="18.5" y1="7.85" x2="20" y2="7.85"/><line class="cls-4" x1="2.14" y1="7.85" x2="7.86" y2="7.85"/></g></g></svg>