<svg xmlns="http://www.w3.org/2000/svg" viewBox="0 0 40.61 15.69"><defs><style>.cls-1{fill:#e2e7f2;}.cls-2{fill:#a3adc3;}.cls-3,.cls-4{fill:#fff;}.cls-3,.cls-5,.cls-6{stroke:#6c788f;stroke-miterlimit:10;}.cls-5,.cls-6{fill:none;}.cls-6{stroke-dasharray:3.21 2.14;}</style></defs><title>icon-folder-exist-on_1</title><g id="레이어_2" data-name="레이어 2"><g id="Layer_1" data-name="Layer 1"><path class="cls-1" d="M39.89,14.43V3.36A1.16,1.16,0,0,0,38.73,2.2h-6.6a1.17,1.17,0,0,1-1-.51L30.71,1a1.17,1.17,0,0,0-1-.51H24.3a1.16,1.16,0,0,0-1.15,1.16v12.8Z"/><path class="cls-2" d="M38.82,1.73h-6.6a.52.52,0,0,1-.43-.23L31.32.8A1.78,1.78,0,0,0,29.84,0H24.39a1.81,1.81,0,0,0-1.78,1.92V14a1.76,1.76,0,0,0,1.78,1.65H38.82a1.8,1.8,0,0,0,1.79-1.78V3.65A1.83,1.83,0,0,0,38.82,1.73Zm0,12.7H24.39a.52.52,0,0,1-.52-.52V1.79a.52.52,0,0,1,.52-.53h5.45a.52.52,0,0,1,.43.24l.47.7a1.77,1.77,0,0,0,1.48.8h6.6a.52.52,0,0,1,.52.52V13.91A.52.52,0,0,1,38.82,14.43Z"/><path class="cls-2" d="M34.43,7.93H32V5.5a.64.64,0,0,0-1.27,0V7.93H28.3a.64.64,0,0,0-.63.64.63.63,0,0,0,.63.63h2.43v2.43a.64.64,0,1,0,1.27,0V9.2h2.43a.64.64,0,0,0,.64-.63A.64.64,0,0,0,34.43,7.93Z"/><rect class="cls-3" x="0.5" y="3.85" width="9" height="9"/><line class="cls-4" x1="9.5" y1="8.35" x2="20" y2="8.35"/><line class="cls-5" x1="9.5" y1="8.35" x2="11" y2="8.35"/><line class="cls-6" x1="13.14" y1="8.35" x2="17.43" y2="8.35"/><line class="cls-5" x1="18.5" y1="8.35" x2="20" y2="8.35"/><line class="cls-3" x1="2.14" y1="8.35" x2="7.86" y2="8.35"/><line class="cls-3" x1="5" y1="5.49" x2="5" y2="11.21"/></g></g></svg>