<svg xmlns="http://www.w3.org/2000/svg" width="24" height="24" viewBox="0 0 24 24">
    <path fill="#6C788F" fill-rule="nonzero" d="M20.32 11.96l-.578-6.105a.664.664 0 0 0-.597-.597l-6.106-.578h-.008a.2.2 0 0 0-.148.056l-9.147 9.147a.195.195 0 0 0 0 .275l7.106 7.106a.193.193 0 0 0 .138.056c.053 0 .102-.02.14-.056l9.146-9.147a.206.206 0 0 0 .054-.156zm-9.341 7.343L5.697 14.02l7.807-7.806 4.824.457.457 4.824-7.806 7.807zM15.28 8c-.947 0-1.719.771-1.719 1.719 0 .947.772 1.719 1.72 1.719.947 0 1.718-.772 1.718-1.72C17 8.772 16.229 8 15.281 8zm0 2.344a.624.624 0 1 1-.001-1.249.624.624 0 0 1 .001 1.249z"/>
</svg>
