<svg xmlns="http://www.w3.org/2000/svg" width="84" height="14" viewBox="0 0 84 14">
    <path fill="#EEE" fill-rule="nonzero" d="M6.516 2.772a4.298 4.298 0 0 0-1.519-.57 3.032 3.032 0 0 0-1.111.012 1.567 1.567 0 0 0-.474.175.9.9 0 0 0-.312.294.752.752 0 0 0-.112.411c0 .117.017.221.05.313a.89.89 0 0 0 .139.249c.058.073.125.14.201.197.076.059.156.112.24.161.203.117.415.234.637.352l.663.354c.22.118.434.236.64.355.207.119.398.237.573.353.233.157.43.32.591.492.162.172.292.353.392.543.1.19.173.39.218.598.044.21.066.427.066.653 0 .327-.046.622-.138.887-.092.265-.22.501-.385.709-.165.208-.36.387-.585.539-.225.152-.47.276-.735.374a4.49 4.49 0 0 1-.836.22c-.293.047-.59.071-.891.071-.29 0-.577-.016-.863-.049a5.268 5.268 0 0 1-1.267-.308 1.46 1.46 0 0 1-.35-.184.839.839 0 0 1-.243-.273.819.819 0 0 1-.091-.404c0-.126.023-.237.068-.332a.686.686 0 0 1 .19-.242.819.819 0 0 1 .283-.147c.108-.033.224-.049.348-.049.119 0 .236.016.352.047.115.032.229.067.341.107.24.082.477.14.71.173.234.034.445.051.634.051.182 0 .363-.015.543-.044.18-.029.34-.081.483-.157a.948.948 0 0 0 .346-.312.895.895 0 0 0 .133-.509c0-.105-.016-.2-.047-.287a.936.936 0 0 0-.126-.236 1.093 1.093 0 0 0-.182-.193 2.141 2.141 0 0 0-.219-.159l-.219-.132-.34-.192-.922-.495-.481-.256-.307-.172a5.753 5.753 0 0 1-.703-.5 2.666 2.666 0 0 1-.482-.526 2.299 2.299 0 0 1-.308-.65A2.855 2.855 0 0 1 1 3.263c0-.331.047-.626.14-.884.093-.258.222-.483.387-.677.164-.194.357-.358.579-.494.222-.135.461-.244.72-.327.257-.083.526-.143.806-.18.28-.037.56-.056.84-.056a6.991 6.991 0 0 1 1.584.18c.241.057.468.126.679.205.21.08.404.166.579.259l-.798 1.484zm9.8-1.974l-3.612 4.536 2.912 3.598c.068.082.124.176.17.282a.776.776 0 0 1 .068.306.976.976 0 0 1-.077.394.922.922 0 0 1-.532.502 1.12 1.12 0 0 1-.399.07 1.143 1.143 0 0 1-.609-.194.55.55 0 0 1-.147-.142l-3.024-4.088a.876.876 0 0 1-.096-.16 1.297 1.297 0 0 1-.121-.484c0-.105.015-.209.046-.312a.975.975 0 0 1 .157-.304l3.01-4.004h2.254zm-5.698 0V9.38c0 .177-.02.328-.058.451a.992.992 0 0 1-.176.333.856.856 0 0 1-.303.235 1.005 1.005 0 0 1-.436.087c-.168 0-.313-.03-.436-.088a.856.856 0 0 1-.302-.234.992.992 0 0 1-.177-.332 1.534 1.534 0 0 1-.058-.452V.798h1.946zm10.65 2.282v4.536c0 .243.028.449.087.618.058.169.138.308.24.416a.897.897 0 0 0 .358.236 1.48 1.48 0 0 0 .982-.021c.165-.063.311-.142.44-.238.128-.095.236-.2.323-.316.088-.116.15-.226.187-.331v-4.9h1.862v6.402c0 .133-.012.26-.036.38a.898.898 0 0 1-.13.32.654.654 0 0 1-.254.222.889.889 0 0 1-.406.082.75.75 0 0 1-.372-.086.768.768 0 0 1-.252-.226 1.032 1.032 0 0 1-.15-.316 1.986 1.986 0 0 1-.07-.359c-.09.119-.2.239-.326.359a2.11 2.11 0 0 1-.455.322c-.177.094-.38.171-.613.23-.232.06-.499.09-.8.09-.378 0-.72-.054-1.027-.161a1.983 1.983 0 0 1-.786-.499 2.265 2.265 0 0 1-.502-.857c-.118-.347-.177-.76-.177-1.241V3.08h1.876zm8.179 0v.784c.084-.093.192-.196.324-.308a2.68 2.68 0 0 1 .472-.315 3.039 3.039 0 0 1 1.444-.343c.378 0 .72.054 1.027.161.307.107.569.274.786.499.217.225.384.511.502.859s.177.76.177 1.239v3.906a.94.94 0 0 1-.107.47.843.843 0 0 1-.257.29 1.018 1.018 0 0 1-1.155 0 .816.816 0 0 1-.254-.287.964.964 0 0 1-.103-.473v-3.78c0-.24-.03-.446-.088-.616a1.146 1.146 0 0 0-.24-.418.897.897 0 0 0-.358-.237 1.48 1.48 0 0 0-.982.021c-.164.064-.31.143-.44.239a1.607 1.607 0 0 0-.323.316c-.087.116-.15.226-.187.331v4.144a.94.94 0 0 1-.107.47.843.843 0 0 1-.257.29 1.018 1.018 0 0 1-1.155 0 .816.816 0 0 1-.254-.287.964.964 0 0 1-.103-.473V3.08h1.638zM37.178 0c.143 0 .278.023.406.07a.969.969 0 0 1 .56.51c.056.12.084.253.084.4a.926.926 0 0 1-.644.898 1.206 1.206 0 0 1-.406.068c-.144 0-.28-.023-.407-.068a1.003 1.003 0 0 1-.333-.194.926.926 0 0 1-.31-.704.937.937 0 0 1 .31-.71.996.996 0 0 1 .333-.2c.127-.047.263-.07.407-.07zm.938 3.08v6.482c0 .128-.017.24-.05.336a.896.896 0 0 1-.132.248.773.773 0 0 1-.182.174 1.033 1.033 0 0 1-.948.108.99.99 0 0 1-.205-.108.79.79 0 0 1-.18-.174.863.863 0 0 1-.13-.248 1.04 1.04 0 0 1-.049-.336V3.08h1.876zm1.152 0l2.12-.007 1.267 4.272.167.586.069.27.094.409h.066a18.742 18.742 0 0 1 .36-1.456l1.205-4.074h1.96l-2.258 6.51a1.273 1.273 0 0 1-.52.672 1.44 1.44 0 0 1-.386.177c-.14.04-.285.061-.434.061a1.535 1.535 0 0 1-.84-.247 1.348 1.348 0 0 1-.314-.285 1.27 1.27 0 0 1-.208-.378l-2.348-6.51zM50.59 7.385a1.29 1.29 0 0 1-.276-.033.846.846 0 0 1-.28-.118.706.706 0 0 1-.217-.225.673.673 0 0 1-.088-.359.665.665 0 0 1 .305-.581.875.875 0 0 1 .28-.119c.1-.023.192-.035.276-.035h1.866c0-.294-.037-.547-.11-.758a1.392 1.392 0 0 0-.305-.518 1.202 1.202 0 0 0-.457-.297 1.635 1.635 0 0 0-.567-.096c-.305 0-.571.065-.798.195-.226.131-.415.307-.567.527-.151.22-.265.475-.34.763-.074.288-.111.59-.111.905 0 .439.058.81.175 1.117.116.305.272.554.467.745.195.191.418.33.67.417.252.086.515.129.788.129a4.158 4.158 0 0 0 1.239-.182l.169-.054.394-.14a.927.927 0 0 1 .553-.01c.08.024.149.06.208.11.06.049.107.11.142.187a.634.634 0 0 1 .053.268c0 .12-.033.24-.098.358a.962.962 0 0 1-.28.31 2.653 2.653 0 0 1-.567.315 4.75 4.75 0 0 1-.65.213 5.579 5.579 0 0 1-1.304.161c-.33 0-.654-.029-.969-.087a3.894 3.894 0 0 1-.892-.277 3.236 3.236 0 0 1-.774-.49 2.894 2.894 0 0 1-.609-.73 3.68 3.68 0 0 1-.397-.993 5.289 5.289 0 0 1-.142-1.283c0-.427.045-.818.135-1.174.09-.356.216-.677.38-.963a3.282 3.282 0 0 1 1.331-1.291c.272-.144.562-.252.87-.324.308-.072.627-.108.956-.108.53 0 1 .081 1.412.244.412.164.758.411 1.04.742.28.332.495.748.642 1.25.147.502.22 1.09.22 1.764v.525H50.59zm6.927-4.305l.077.987a3.14 3.14 0 0 1 .313-.455c.122-.15.27-.282.44-.399.172-.117.37-.211.596-.284a2.522 2.522 0 0 1 .964-.1.843.843 0 0 1 .158.027V4.76a1.623 1.623 0 0 0-.266-.044 3.142 3.142 0 0 0-.266-.012c-.194 0-.38.022-.557.067a1.509 1.509 0 0 0-.478.208 1.252 1.252 0 0 0-.548.873v3.71a.926.926 0 0 1-.106.473.884.884 0 0 1-.564.426 1.176 1.176 0 0 1-.267.039c-.073 0-.162-.013-.268-.039a.884.884 0 0 1-.563-.427.926.926 0 0 1-.107-.472V3.08h1.442zm8.186 1.82a5.115 5.115 0 0 0-.392-.196 3.731 3.731 0 0 0-.884-.268 3.03 3.03 0 0 0-.855-.017 1.187 1.187 0 0 0-.324.086.644.644 0 0 0-.238.171.416.416 0 0 0-.093.28c0 .089.015.166.044.231.029.065.073.126.131.182.058.056.13.11.214.16l.186.105.108.057c.119.06.246.121.381.182l.777.346c.121.057.228.11.319.161.203.113.38.233.533.361.153.128.28.269.384.422.102.153.18.318.232.497.053.178.08.374.08.586 0 .392-.078.732-.234 1.02a2.1 2.1 0 0 1-.624.716 2.75 2.75 0 0 1-.903.422 4.07 4.07 0 0 1-1.068.138c-.383 0-.723-.03-1.022-.088a4.046 4.046 0 0 1-.724-.199 1.968 1.968 0 0 1-.263-.131.973.973 0 0 1-.22-.179.83.83 0 0 1-.15-.232.725.725 0 0 1-.057-.291c0-.119.022-.225.065-.317a.684.684 0 0 1 .175-.232.754.754 0 0 1 .26-.144 1.046 1.046 0 0 1 .592-.014l.128.037.124.04c.198.072.394.128.588.166.194.039.385.058.574.058.12 0 .237-.008.354-.024.116-.017.221-.048.315-.093a.587.587 0 0 0 .225-.19.523.523 0 0 0 .086-.309c0-.1-.017-.189-.05-.266a.626.626 0 0 0-.146-.205 1.145 1.145 0 0 0-.23-.164 3.5 3.5 0 0 0-.302-.149l-.163-.07-.353-.16-.37-.178-.188-.094a9.073 9.073 0 0 1-.368-.198 3.14 3.14 0 0 1-.55-.378 2.007 2.007 0 0 1-.372-.427 1.7 1.7 0 0 1-.214-.49 2.248 2.248 0 0 1-.068-.567c0-.257.037-.488.112-.695.075-.206.177-.388.306-.546.13-.157.283-.293.459-.406.176-.113.365-.206.567-.28.202-.073.412-.127.632-.16.219-.035.437-.051.654-.051.47 0 .897.04 1.283.124.386.083.742.208 1.07.376L65.702 4.9zM68.885 0c.142 0 .277.023.406.07a.969.969 0 0 1 .56.51c.056.12.084.253.084.4a.926.926 0 0 1-.644.898 1.206 1.206 0 0 1-.406.068c-.145 0-.281-.023-.408-.068a1.003 1.003 0 0 1-.333-.194.926.926 0 0 1-.31-.704.937.937 0 0 1 .31-.71.996.996 0 0 1 .333-.2c.127-.047.263-.07.408-.07zm.938 3.08v6.482c0 .128-.017.24-.051.336a.896.896 0 0 1-.131.248.773.773 0 0 1-.182.174 1.033 1.033 0 0 1-.949.108.99.99 0 0 1-.205-.108.79.79 0 0 1-.18-.174.863.863 0 0 1-.13-.248 1.04 1.04 0 0 1-.048-.336V3.08h1.876zm4.256-1.498V3.08h1.011c.142 0 .266.013.371.038.105.026.2.068.284.127a.633.633 0 0 1 .206.232.759.759 0 0 1 .077.359.712.712 0 0 1-.084.364.655.655 0 0 1-.217.228.88.88 0 0 1-.289.117c-.104.022-.22.033-.348.033h-1.011v3.486c0 .159.002.297.008.415a.916.916 0 0 0 .058.297c.033.08.085.14.158.18a.65.65 0 0 0 .308.06c.08 0 .164-.008.252-.025l.133-.031c.135-.037.259-.056.37-.056.1 0 .194.015.279.044.085.029.157.071.217.127.06.057.106.125.14.207.034.082.05.175.05.28 0 .175-.047.32-.141.436a1.07 1.07 0 0 1-.362.282 2.703 2.703 0 0 1-.571.187c-.224.05-.463.075-.717.075a5.56 5.56 0 0 1-.462-.02 2.392 2.392 0 0 1-.445-.078 1.795 1.795 0 0 1-.402-.166 1.261 1.261 0 0 1-.338-.28 1.486 1.486 0 0 1-.249-.425 2.244 2.244 0 0 1-.134-.599 4.68 4.68 0 0 1-.025-.397l-.003-.387V4.578h-1.054V3.08h1.054V1.582h1.876zm4.319 1.498l1.19 3.458c.068.198.131.397.19.599l.328 1.207h.045l.709-2.618.52-1.82.068-.247.152-.579h2.009l-2.52 7.504a5.292 5.292 0 0 1-.597 1.242c-.239.36-.503.66-.79.903-.289.243-.592.427-.909.552a2.558 2.558 0 0 1-.941.187c-.124 0-.24-.016-.347-.049a.819.819 0 0 1-.28-.145.674.674 0 0 1-.187-.242.795.795 0 0 1-.068-.341.702.702 0 0 1 .177-.495.845.845 0 0 1 .194-.161l.117-.065.128-.056c.184-.072.367-.161.549-.266.182-.105.345-.226.488-.362a1.79 1.79 0 0 0 .349-.454c.088-.165.133-.346.133-.542a.97.97 0 0 0-.025-.201 3.763 3.763 0 0 0-.14-.462l-.073-.191L76.29 3.08h2.107z"/>
</svg>
