<svg width="42" height="42" viewBox="0 0 42 42" xmlns="http://www.w3.org/2000/svg">
    <g transform="translate(10.5 11.5)" stroke="#00BFAE" fill="none" fill-rule="evenodd">
        <circle fill="#F8F8F8" cx="4" cy="17" r="1.5"/>
        <circle fill="#F8F8F8" cx="17" cy="17" r="1.5"/>
        <path d="M12.666 0c3.298 0 6.079 2.777 6.486 6.477.066.601.161 1.004.285 1.208.056.092.108.183.157.273A2.997 2.997 0 0 1 21 10.5v3a3 3 0 0 1-3 3H3a3 3 0 0 1-3-3v-3c0-1.072.562-2.012 1.407-2.543.048-.09.1-.18.156-.272.124-.204.219-.607.285-1.208C2.246 2.86 4.91.127 8.11.004L8.334 0h4.332z" stroke-width="1.2" fill="#FFF"/>
        <circle fill="#F8F8F8" cx="3.75" cy="12.25" r="1.25"/>
        <circle fill="#F8F8F8" cx="16.75" cy="12.25" r="1.25"/>
        <path d="M12.194 2.3c.932 0 1.799.33 2.478.888a3.893 3.893 0 0 1 1.349 2.26l.4 2.03H4.58l.401-2.035c.181-.913.672-1.699 1.35-2.256A3.893 3.893 0 0 1 8.808 2.3z" stroke-width="1.2"/>
    </g>
</svg>
