<?xml version="1.0" encoding="UTF-8"?>
<svg width="84px" height="30px" viewBox="0 0 84 30" version="1.1" xmlns="http://www.w3.org/2000/svg" xmlns:xlink="http://www.w3.org/1999/xlink">
    <title>DCBF5E6F-C1CD-4E80-9D9E-A7F1BA5CD5EC</title>
    <defs>
        <rect id="path-1" x="0" y="0" width="23.8" height="27"></rect>
    </defs>
    <g id="Stamp-Event" stroke="none" stroke-width="1" fill="none" fill-rule="evenodd">
        <g id="StampEvent_02_Popup_06_B" transform="translate(-603.000000, -497.000000)">
            <g id="End" transform="translate(385.000000, 153.000000)">
                <g id="btn_strach_small" transform="translate(218.000000, 344.000000)">
                    <rect id="bg-copy" stroke="#FF5740" stroke-width="1.5" fill="#FFFFFF" x="0.75" y="0.75" width="82.5" height="28.5" rx="4"></rect>
                    <g id="icon" transform="translate(7.000000, 1.500000)">
                        <mask id="mask-2" fill="white">
                            <use xlink:href="#path-1"></use>
                        </mask>
                        <g id="Mask"></g>
                        <g mask="url(#mask-2)">
                            <g transform="translate(0.866389, 3.371449)">
                                <g id="Group" stroke="none" stroke-width="1" fill="none" transform="translate(2.766919, 0.000000)">
                                    <path d="M16.5620127,7.12855102 C16.7704114,7.12855102 16.959081,7.21302129 17.095651,7.34959123 C17.2322209,7.48616118 17.3166912,7.6748308 17.3166912,7.88322952 L17.3166912,7.88322952 L17.3166912,16.378551 C17.3166912,16.723729 17.1767802,17.036229 16.9505747,17.2624345 C16.7243692,17.48864 16.4118692,17.628551 16.0666912,17.628551 L16.0666912,17.628551 L3.26669121,17.628551 C2.92151324,17.628551 2.60901324,17.48864 2.38280773,17.2624345 C2.15660223,17.036229 2.01669121,16.723729 2.01669121,16.378551 L2.01669121,16.378551 L2.01669121,8.13406781 C2.01669121,7.85640201 2.12923751,7.60502282 2.31120026,7.42306007 C2.49316301,7.24109732 2.74454221,7.12855102 3.022208,7.12855102 L3.022208,7.12855102 Z" id="Combined-Shape" stroke="#FF5740" stroke-width="1.5" fill="#FFE207" transform="translate(9.666691, 12.378551) rotate(-15.000000) translate(-9.666691, -12.378551) "></path>
                                    <line x1="11.4166912" y1="1.50355102" x2="9.837929" y2="3.75" id="Path-5-Copy" stroke="#FF5740" stroke-linecap="round"></line>
                                    <line x1="6.337929" y1="1.49229998" x2="4.64935263" y2="3.75" id="Path-5-Copy" stroke="#FF5740" stroke-linecap="round" transform="translate(5.493641, 2.621150) scale(-1, 1) translate(-5.493641, -2.621150) "></line>
                                    <line x1="8.12457906" y1="4.54747351e-13" x2="8.05127895" y2="3.75" id="Path-6" stroke="#FF5740" stroke-linecap="round" transform="translate(8.087929, 1.875000) scale(-1, 1) translate(-8.087929, -1.875000) "></line>
                                    <polygon id="Rectangle-Copy-12" fill="#FF5740" transform="translate(9.376194, 10.614964) rotate(-195.000000) translate(-9.376194, -10.614964) " points="4.46837387 9.76915031 14.315265 9.59415031 14.284015 11.4607769 4.43712387 11.6357769"></polygon>
                                </g>
                                <path d="M0.656106472,25.878551 C-0.402136432,20.7017279 -0.180238736,16.9313397 1.32179956,14.5673865 C2.13423281,14.0014814 3.16909617,13.2718695 4.42638964,12.378551 L5.4987693,16.5488531 L5.09126262,18.1133163 C7.1729547,14.75287 8.68707068,13.5708934 9.63361059,14.5673865 C10.5801505,15.5638796 10.3025414,16.7458562 8.80078326,18.1133163 C8.69380998,19.1964995 8.62157739,20.0582393 8.58408549,20.6985356 C8.4780631,22.5092135 6.15358091,23.5593223 6.81550582,25.128551 C7.43076337,26.5871452 5.37763026,26.8371452 0.656106472,25.878551 Z" id="Path-7" stroke="#FF5740" stroke-width="1.5" fill="#FFFFFF" stroke-linecap="round" stroke-linejoin="round"></path>
                            </g>
                        </g>
                    </g>
                    <path d="M42.305,16.37 L42.305,15.1 L38.845,15.1 L38.845,14.48 L41.235,14.48 L41.235,10.81 L39.635,10.81 L39.635,11.51 L36.455,11.51 L36.455,10.81 L34.855,10.81 L34.855,14.48 L37.225,14.48 L37.225,15.1 L33.795,15.1 L33.795,16.37 L42.305,16.37 Z M39.635,13.24 L36.455,13.24 L36.455,12.71 L39.635,12.71 L39.635,13.24 Z M41.295,19.95 L41.295,16.86 L34.735,16.86 L34.735,18.12 L39.675,18.12 L39.675,19.95 L41.295,19.95 Z M51.115,17.62 L51.115,10.56 L49.495,10.56 L49.495,15.52 L47.815,15.52 L47.815,16.75 L49.495,16.75 L49.495,17.62 L51.115,17.62 Z M51.315,19.81 L51.315,18.54 L45.775,18.54 L45.775,17.06 L46.915,17.06 L46.915,15.12 C47.625,15.06 48.355,14.97 49.055,14.84 L48.945,13.71 C48.695,13.75 48.435,13.78 48.155,13.8 C48.325,12.62 48.325,11.76 48.325,11.28 L48.325,10.97 L43.805,10.97 L43.805,12.24 L46.705,12.24 C46.685,12.69 46.635,13.26 46.535,13.93 C45.255,14 43.995,14.01 42.945,14.02 L43.135,15.28 C43.795,15.28 44.535,15.26 45.305,15.23 L45.305,16.95 L44.165,16.95 L44.165,19.81 L51.315,19.81 Z M62.995,15.27 L62.995,14 L61.855,14 C62.055,13.02 62.055,12.29 62.055,11.62 L62.055,10.94 L55.525,10.94 L55.525,12.21 L60.455,12.21 C60.435,12.72 60.395,13.29 60.255,14 L54.505,14 L54.505,15.27 L62.995,15.27 Z M59.255,19.72 L59.105,18.58 C58.585,18.71 58.125,18.74 56.915,18.75 L56.915,18.43 L58.535,18.43 L58.535,15.84 L55.345,15.84 L55.345,17.01 L56.975,17.01 L56.975,17.33 L55.355,17.33 L55.355,19.91 L56.5190872,19.9094065 C58.1227686,19.905124 58.6640909,19.8745455 59.255,19.72 Z M62.045,19.96 L62.045,15.84 L58.945,15.84 L58.945,17.1 L60.455,17.1 L60.455,19.96 L62.045,19.96 Z M71.585,19.93 L71.585,10.56 L69.965,10.56 L69.965,19.93 L71.585,19.93 Z M64.515,18.44 C67.955,16.8 68.785,14.47 68.785,11.51 L64.215,11.51 L64.215,12.78 L67.135,12.78 C66.925,14.75 66.005,16.06 63.675,17.18 L64.515,18.44 Z" id="복권긁기" fill="#FF5740" fill-rule="nonzero"></path>
                </g>
            </g>
        </g>
    </g>
</svg>