<svg width="42" height="42" viewBox="0 0 42 42" xmlns="http://www.w3.org/2000/svg">
    <g transform="translate(9 9)" stroke="#00BFAE" fill="none" fill-rule="evenodd">
        <circle stroke-width="1.2" fill="#FFF" cx="22" cy="12.38" r="1.4"/>
        <circle stroke-width="1.2" fill="#FFF" cx="2" cy="12.38" r="1.4"/>
        <path d="M12 5.084c3.132 0 5.39.885 6.902 2.324C20.663 9.085 21.4 11.49 21.4 14c0 .856-.172 3.9-2.585 6-1.402 1.22-3.552 2.102-6.815 2.102-3.264 0-5.415-.882-6.816-2.102C2.772 17.9 2.6 14.86 2.6 14c0-2.51.737-4.915 2.498-6.592C6.611 5.97 8.868 5.084 12 5.084z" stroke-width="1.2" fill="#FFF"/>
        <path d="M11.433 4.784c-.267-1.37-1.336-2.586-3.233-2.217M12.483 5.02C12.03 3.698 13.502 1.1 15.27 1.1" stroke-width="1.2" stroke-linecap="round"/>
        <circle fill="#3E8AE9" cx="8" cy="13.65" r="1"/>
        <circle fill="#3E8AE9" cx="16" cy="13.65" r="1"/>
        <path d="M10 17c.339.764 1.104 1.178 1.995 1.178.602 0 1.147-.112 1.542-.507A2.13 2.13 0 0 0 14 17" stroke-width="1.2" stroke-linecap="round"/>
    </g>
</svg>
