<svg width="42" height="42" viewBox="0 0 42 42" xmlns="http://www.w3.org/2000/svg">
    <g transform="translate(10.75 11)" stroke="#00BFAE" fill="none" fill-rule="evenodd">
        <path d="m19.815 7.6.004 2.109a3.102 3.102 0 0 1-3.022 2.387h-.956L16.91 7.6h2.904z" stroke-width="1.2"/>
        <path d="M16.5 5.6c.387 0 .737.157.99.41s.41.603.41.99v2.031a7.346 7.346 0 0 1-2.158 5.21 7.346 7.346 0 0 1-5.21 2.159H7.924a7.3 7.3 0 0 1-5.098-2.065A7.302 7.302 0 0 1 .604 9.312L.6 7c0-.387.157-.737.41-.99s.603-.41.99-.41z" stroke-width="1.2" fill="#FFF"/>
        <rect fill="#3E8AE9" x="1.75" y="19" width="15" height="1" rx=".5"/>
        <g stroke-linecap="round">
            <path d="M13.25 3.464c.527-.221.877-.482 1.05-.781.259-.45.001-1.04.26-1.489.173-.299.553-.61 1.139-.935M8.25 3.464c.527-.221.877-.482 1.05-.781.259-.45.001-1.04.26-1.489.173-.299.553-.61 1.139-.935M3.25 3.464c.527-.221.877-.482 1.05-.781.259-.45.001-1.04.26-1.489C4.733.895 5.113.584 5.7.26"/>
        </g>
    </g>
</svg>
