<svg xmlns="http://www.w3.org/2000/svg" width="42" height="42" viewBox="0 0 42 42">
    <g fill="none" fill-rule="evenodd">
        <g>
            <g>
                <g>
                    <g>
                        <g transform="translate(-316.000000, -115.000000) translate(146.000000, 115.000000) translate(2.000000, 0.000000) translate(168.000000, 0.000000) translate(9.000000, 9.000000) translate(1.750000, 2.000000)">
                            <path stroke="#3E8AE9" stroke-width="1.2" d="M19.815 7.6l.004 2.109c-.167.7-.563 1.297-1.097 1.718-.534.422-1.206.67-1.925.67h0-.956L16.91 7.6h2.904z"/>
                            <path fill="#FFF" stroke="#3E8AE9" stroke-width="1.2" d="M16.5 5.6c.387 0 .737.157.99.41s.41.603.41.99h0v2.031c0 2.035-.825 3.877-2.158 5.21-1.334 1.334-3.176 2.159-5.21 2.159h0-2.607c-1.982 0-3.78-.787-5.098-2.065-1.32-1.28-2.16-3.053-2.223-5.023h0L.6 7c0-.387.157-.737.41-.99s.603-.41.99-.41h0z"/>
                            <rect width="16" height="1.2" x="1.25" y="18.5" fill="#3E8AE9" rx=".6"/>
                            <g stroke="#3E8AE9" stroke-linecap="round">
                                <path d="M9.224 1.602c.456.346.856.519 1.202.519.518 0 .901-.519 1.42-.519.345 0 .805.173 1.378.519" transform="translate(3.250000, 0.000000) translate(11.224479, 1.861654) rotate(-60.000000) translate(-11.224479, -1.861654)"/>
                                <path d="M4.224 1.602c.456.346.856.519 1.202.519.518 0 .901-.519 1.42-.519.345 0 .805.173 1.378.519" transform="translate(3.250000, 0.000000) translate(6.224479, 1.861654) rotate(-60.000000) translate(-6.224479, -1.861654)"/>
                                <path d="M-.776 1.602c.456.346.856.519 1.202.519.518 0 .901-.519 1.42-.519.345 0 .805.173 1.378.519" transform="translate(3.250000, 0.000000) translate(1.224479, 1.861654) rotate(-60.000000) translate(-1.224479, -1.861654)"/>
                            </g>
                        </g>
                    </g>
                </g>
            </g>
        </g>
    </g>
</svg>
