<svg xmlns="http://www.w3.org/2000/svg" width="16" height="16" viewBox="0 0 16 16">
    <g fill="none" fill-rule="evenodd">
        <g fill="#999" fill-rule="nonzero">
            <g>
                <g>
                    <g>
                        <g>
                            <g>
                                <path d="M11.486 7H6.514C6.041 7 6 7.447 6 8c0 .553.041 1 .514 1h4.972c.473 0 .514-.447.514-1 0-.553-.041-1-.514-1zm1.98 4H6.534c-.49 0-.533.447-.533 1 0 .553.043 1 .533 1h6.934c.49 0 .533-.447.533-1 0-.553-.043-1-.533-1zM6.534 5h6.934c.49 0 .533-.447.533-1 0-.553-.043-1-.533-1H6.533C6.043 3 6 3.447 6 4c0 .553.043 1 .533 1zM4.4 7H2.6c-.552 0-.6.447-.6 1 0 .553.048 1 .6 1h1.8c.552 0 .6-.447.6-1 0-.553-.048-1-.6-1zm0 4H2.6c-.552 0-.6.447-.6 1 0 .553.048 1 .6 1h1.8c.552 0 .6-.447.6-1 0-.553-.048-1-.6-1zm0-8H2.6c-.552 0-.6.447-.6 1 0 .553.048 1 .6 1h1.8c.552 0 .6-.447.6-1 0-.553-.048-1-.6-1z" transform="translate(-1254 -337) translate(410 137) translate(0 38) translate(0 130) translate(584 30) translate(260 2)"/>
                            </g>
                        </g>
                    </g>
                </g>
            </g>
        </g>
    </g>
</svg>
