<svg xmlns="http://www.w3.org/2000/svg" width="42" height="42" viewBox="0 0 42 42">
    <g fill="none" fill-rule="evenodd">
        <g>
            <g>
                <g>
                    <g transform="translate(-232.000000, -115.000000) translate(146.000000, 115.000000) translate(2.000000, 0.000000) translate(84.000000, 0.000000) translate(9.000000, 9.000000)">
                        <circle cx="22" cy="12.38" r="1.4" fill="#FFF" stroke="#3E8AE9" stroke-width="1.2"/>
                        <circle cx="2" cy="12.38" r="1.4" fill="#FFF" stroke="#3E8AE9" stroke-width="1.2"/>
                        <path fill="#FFF" stroke="#3E8AE9" stroke-width="1.2" d="M12 5.084c3.132 0 5.39.885 6.902 2.324C20.663 9.085 21.4 11.49 21.4 14c0 .856-.172 3.9-2.585 6-1.402 1.22-3.552 2.102-6.815 2.102-3.264 0-5.415-.882-6.816-2.102C2.772 17.9 2.6 14.86 2.6 14c0-2.51.737-4.915 2.498-6.592C6.611 5.97 8.868 5.084 12 5.084z"/>
                        <path stroke="#3E8AE9" stroke-linecap="round" stroke-width="1.2" d="M11.433 4.784c-.267-1.37-1.336-2.586-3.233-2.217M12.483 5.02C12.03 3.698 13.502 1.1 15.27 1.1"/>
                        <circle cx="8" cy="13.65" r="1.25" fill="#3E8AE9"/>
                        <circle cx="16" cy="13.65" r="1.25" fill="#3E8AE9"/>
                        <path stroke="#3E8AE9" stroke-linecap="round" stroke-width="1.2" d="M10 17c.339.764 1.104 1.178 1.995 1.178.602 0 1.147-.112 1.542-.507.195-.195.353-.414.463-.671"/>
                    </g>
                </g>
            </g>
        </g>
    </g>
</svg>
