<svg xmlns="http://www.w3.org/2000/svg" width="42" height="42" viewBox="0 0 42 42">
    <g fill="none" fill-rule="evenodd">
        <g>
            <g>
                <g>
                    <g>
                        <g transform="translate(-863.000000, -115.000000) translate(567.000000, 115.000000) translate(2.000000, 0.000000) translate(294.000000, 0.000000) translate(9.000000, 9.000000) translate(0.500000, 3.100000)">
                            <path stroke="#222" stroke-linecap="round" stroke-width="1.2" d="M19.5 6.342v3.8c0 4.418-3.582 8-8 8s-8-3.582-8-8v-3.8"/>
                            <path fill="#222" d="M11.522 11.5c.902 0 2.23 1.608 1.804 2.105-.426.497-3.132.556-3.609 0-.476-.556.903-2.105 1.805-2.105z" transform="translate(11.513969, 12.750000) rotate(-180.000000) translate(-11.513969, -12.750000)"/>
                            <path stroke="#222" stroke-width="1.2" d="M3.609 12.048C1.231 11.785.028 10.558 0 8.364 0 3.744 3.745 0 8.364 0h6.272C19.256 0 23 3.745 23 8.364c-.292 2.677-1.506 3.905-3.64 3.684"/>
                            <ellipse cx="8.141" cy="8.793" fill="#222" rx="1.1" ry="1.2" transform="translate(8.140752, 8.792747) rotate(19.000000) translate(-8.140752, -8.792747)"/>
                            <ellipse cx="14.861" cy="8.793" fill="#222" rx="1.1" ry="1.2" transform="translate(14.860752, 8.792747) scale(-1, 1) rotate(19.000000) translate(-14.860752, -8.792747)"/>
                        </g>
                    </g>
                </g>
            </g>
        </g>
    </g>
</svg>
