<svg xmlns="http://www.w3.org/2000/svg" width="42" height="42" viewBox="0 0 42 42">
    <g fill="none" fill-rule="evenodd">
        <g>
            <g>
                <g>
                    <g>
                        <g transform="translate(-695.000000, -115.000000) translate(567.000000, 115.000000) translate(2.000000, 0.000000) translate(126.000000, 0.000000) translate(9.000000, 9.000000) translate(1.500000, 1.500000)">
                            <rect width="19.8" height="19.8" x=".6" y=".6" stroke="#222" stroke-width="1.2" rx="4"/>
                            <path fill="#222" fill-rule="nonzero" d="M9.184 16.158c1.316 0 2.478-.448 3.514-1.372.84.896 1.4 1.19 2.03 1.19.266 0 .872-.213.718-.702-.154-.488-.567-.482-.676-.557-.18-.123-.532-.253-1.204-.953.658-.854 1.106-1.876 1.358-3.066.014-.07.014-.14.014-.196 0-.434-.308-.63-.798-.63-.378 0-.574.182-.63.532-.168.938-.434 1.792-.882 2.464-.602-.602-1.47-1.568-2.422-2.688 2.114-.798 2.576-1.82 2.576-2.786C12.782 5.952 11.718 5 10.024 5S7.196 6.078 7.196 7.534c0 .812.49 1.554 1.008 2.198C6.034 10.74 5.6 11.916 5.6 12.994c0 1.862 1.526 3.164 3.584 3.164zm.336-6.874c-.798-.938-.924-1.26-.924-1.722 0-.84.56-1.414 1.428-1.414.854 0 1.47.512 1.47 1.296 0 .868-.854 1.392-1.974 1.84zm-.224 5.67c-1.008 0-2.419-.608-2.419-1.994 0-1.386 1.089-1.8 2.097-2.318 1.302 1.512 2.254 2.632 2.814 3.22-.77.742-1.61 1.092-2.492 1.092z"/>
                        </g>
                    </g>
                </g>
            </g>
        </g>
    </g>
</svg>
