<svg xmlns="http://www.w3.org/2000/svg" width="42" height="42" viewBox="0 0 42 42">
    <g fill="none" fill-rule="evenodd">
        <g stroke="#3E8AE9">
            <g>
                <g>
                    <g>
                        <g transform="translate(-358.000000, -115.000000) translate(146.000000, 115.000000) translate(2.000000, 0.000000) translate(210.000000, 0.000000) translate(9.000000, 9.000000) translate(1.500000, 2.500000)">
                            <circle cx="4" cy="17" r="1.5" fill="#F8F8F8"/>
                            <circle cx="17" cy="17" r="1.5" fill="#F8F8F8"/>
                            <path fill="#FFF" stroke-width="1.2" d="M12.666 0c3.298 0 6.079 2.777 6.486 6.477.066.601.161 1.004.285 1.208.056.092.108.183.157.273.844.53 1.406 1.47 1.406 2.542v3c0 1.657-1.343 3-3 3H3c-1.657 0-3-1.343-3-3v-3c0-1.072.562-2.012 1.407-2.543.048-.09.1-.18.156-.272.124-.204.219-.607.285-1.208C2.246 2.86 4.91.127 8.11.004L8.334 0h4.332z"/>
                            <circle cx="3.75" cy="12.25" r="1.25" fill="#F8F8F8"/>
                            <circle cx="16.75" cy="12.25" r="1.25" fill="#F8F8F8"/>
                            <path stroke-width="1.2" d="M12.194 2.3c.932 0 1.799.33 2.478.888.678.558 1.17 1.345 1.349 2.26h0l.4 2.03H4.58l.401-2.035c.181-.913.672-1.699 1.35-2.256.679-.558 1.545-.887 2.476-.887h0z"/>
                        </g>
                    </g>
                </g>
            </g>
        </g>
    </g>
</svg>
