<?xml version="1.0" encoding="UTF-8"?>
<svg width="317px" height="36px" viewBox="0 0 317 36" version="1.1" xmlns="http://www.w3.org/2000/svg" xmlns:xlink="http://www.w3.org/1999/xlink">
    <title>title_01</title>
    <g id="Stamp-Event" stroke="none" stroke-width="1" fill="none" fill-rule="evenodd">
        <g id="StampEvent_02_Popup_02" transform="translate(-419.000000, -223.000000)" fill="#FFED61" fill-rule="nonzero">
            <g id="@-Quiz" transform="translate(380.000000, 148.000000)">
                <g id="Top" transform="translate(0.000000, 2.000000)">
                    <g id="Title_01" transform="translate(39.000000, 65.000000)">
                        <path d="M9,37.552 L9,23.696 L11.272,22.992 C11.592,22.8853333 11.8533333,22.9173333 12.056,23.088 C12.2586667,23.2586667 12.36,23.5573333 12.36,23.984 L12.36,23.984 L12.36,37.552 L18.44,37.552 L18.44,23.696 L20.776,22.992 C21.0746667,22.9066667 21.32,22.944 21.512,23.104 C21.704,23.264 21.8,23.5573333 21.8,23.984 L21.8,23.984 L21.8,37.552 L27.88,37.552 L27.88,20.176 C27.88,19.024 27.592,18.1066667 27.016,17.424 C26.44,16.7413333 25.6506667,16.4 24.648,16.4 C24.1573333,16.4 23.6293333,16.448 23.064,16.544 C22.4986667,16.64 21.928,16.768 21.352,16.928 C20.776,17.088 20.2106667,17.264 19.656,17.456 C19.1013333,17.648 18.5786667,17.8293333 18.088,18 C17.7893333,17.5306667 17.4053333,17.1466667 16.936,16.848 C16.4666667,16.5493333 15.9226667,16.4 15.304,16.4 C14.856,16.4 14.376,16.448 13.864,16.544 C13.352,16.64 12.824,16.768 12.28,16.928 C11.736,17.088 11.192,17.2586667 10.648,17.44 C10.104,17.6213333 9.576,17.808 9.064,18 L9.064,18 L9,18 L9,16.72 L0.808,16.72 L2.92,21.008 L2.92,37.552 L9,37.552 Z M42.152,43.6 C44.5626667,43.6 46.3333333,43.0186667 47.464,41.856 C48.5946667,40.6933333 49.16,39.0026667 49.16,36.784 L49.16,36.784 L49.16,16.72 L43.08,16.72 L43.08,28.112 C42.312,28.2613333 41.592,28.3893333 40.92,28.496 C40.248,28.6026667 39.5706667,28.7093333 38.888,28.816 C38.5466667,28.8586667 38.28,28.8106667 38.088,28.672 C37.896,28.5333333 37.8,28.2506667 37.8,27.824 L37.8,27.824 L37.8,16.72 L29.608,16.72 L31.72,21.008 L31.72,31.472 C31.72,32.9226667 31.9653333,33.9413333 32.456,34.528 C32.9466667,35.1146667 33.7466667,35.408 34.856,35.408 C35.432,35.408 36.0613333,35.36 36.744,35.264 C37.4266667,35.168 38.12,35.04 38.824,34.88 C39.528,34.72 40.2373333,34.544 40.952,34.352 C41.6666667,34.16 42.3546667,33.9786667 43.016,33.808 L43.016,33.808 L43.08,33.808 L43.08,35.952 C43.08,36.7626667 42.9093333,37.3066667 42.568,37.584 C42.2266667,37.8613333 41.6933333,38 40.968,38 L40.968,38 L32.264,38 L33.224,43.6 L42.152,43.6 Z M61.416,37.552 C63.1013333,37.552 64.552,37.4133333 65.768,37.136 C66.984,36.8586667 67.9813333,36.4266667 68.76,35.84 C69.5386667,35.2533333 70.1146667,34.5066667 70.488,33.6 C70.8613333,32.6933333 71.048,31.6106667 71.048,30.352 C71.048,28.944 70.9626667,27.776 70.792,26.848 C70.6213333,25.92 70.264,25.1306667 69.72,24.48 C69.176,23.8293333 68.3866667,23.2426667 67.352,22.72 C66.3173333,22.1973333 64.9466667,21.6266667 63.24,21.008 C62.2373333,20.6453333 61.4426667,20.3253333 60.856,20.048 C60.2693333,19.7706667 59.8213333,19.504 59.512,19.248 C59.2026667,18.992 59,18.736 58.904,18.48 C58.808,18.224 58.76,17.9466667 58.76,17.648 C58.76,17.0506667 58.9573333,16.624 59.352,16.368 C59.7466667,16.112 60.456,15.984 61.48,15.984 L61.48,15.984 L70.536,15.984 L69.096,10.064 L61.48,10.064 C58.1733333,10.064 55.7733333,10.6186667 54.28,11.728 C52.7866667,12.8373333 52.04,14.6293333 52.04,17.104 C52.04,18.448 52.1253333,19.5626667 52.296,20.448 C52.4666667,21.3333333 52.8186667,22.096 53.352,22.736 C53.8853333,23.376 54.6586667,23.952 55.672,24.464 C56.6853333,24.976 58.0346667,25.5413333 59.72,26.16 C60.744,26.544 61.56,26.8746667 62.168,27.152 C62.776,27.4293333 63.24,27.7013333 63.56,27.968 C63.88,28.2346667 64.088,28.512 64.184,28.8 C64.28,29.088 64.328,29.424 64.328,29.808 C64.328,30.448 64.1093333,30.912 63.672,31.2 C63.2346667,31.488 62.4826667,31.632 61.416,31.632 L61.416,31.632 L52.264,31.632 L52.264,37.552 L61.416,37.552 Z M84.104,37.872 C85.576,37.872 86.9306667,37.7333333 88.168,37.456 C89.4053333,37.1786667 90.4773333,36.752 91.384,36.176 C92.2906667,35.6 93,34.8746667 93.512,34 C94.024,33.1253333 94.28,32.0906667 94.28,30.896 L94.28,30.896 L94.28,10.064 L87.24,10.064 L87.24,29.36 C87.24,30.2346667 86.9306667,30.8853333 86.312,31.312 C85.6933333,31.7386667 84.9573333,31.952 84.104,31.952 C83.2506667,31.952 82.5146667,31.7386667 81.896,31.312 C81.2773333,30.8853333 80.968,30.2346667 80.968,29.36 L80.968,29.36 L80.968,10.064 L71.816,10.064 L73.928,14.48 L73.928,30.896 C73.928,32.0906667 74.184,33.1253333 74.696,34 C75.208,34.8746667 75.9173333,35.6 76.824,36.176 C77.7306667,36.752 78.8026667,37.1786667 80.04,37.456 C81.2773333,37.7333333 82.632,37.872 84.104,37.872 Z M104.84,37.552 L104.84,22.864 L111.592,37.552 L118.312,37.552 L118.312,10.064 L111.592,10.064 L111.592,24.752 L104.84,10.064 L96.008,10.064 L98.12,14.352 L98.12,37.552 L104.84,37.552 Z M129.512,37.52 L129.512,10.064 L120.36,10.064 L122.472,14.352 L122.472,37.52 L129.512,37.52 Z M150.536,19.632 L156.072,15.024 L161.608,19.632 L169.96,19.632 L163.848,14.864 L169.672,14.864 L169.672,10.544 L159.688,10.544 L159.688,8.624 L150.696,8.624 L151.72,10.544 L142.472,10.544 L142.472,14.864 L148.296,14.864 L142.184,19.632 L150.536,19.632 Z M170.152,39.312 L170.152,35.472 L149.512,35.472 L149.512,34.576 L169.672,34.576 L169.672,26.192 L159.592,26.192 L159.592,24.784 L170.792,24.784 L170.792,20.464 L141.352,20.464 L141.352,24.784 L152.552,24.784 L152.552,26.192 L142.472,26.192 L142.472,30.032 L162.632,30.032 L162.632,30.896 L142.472,30.896 L142.472,35.728 C142.472,36.176 142.632,36.5706667 142.952,36.912 L142.952,36.912 L144.744,38.8 C145.064,39.1413333 145.458667,39.312 145.928,39.312 L145.928,39.312 L170.152,39.312 Z M202.312,26.736 L202.312,9.584 L193.64,9.584 L195.272,13.072 L195.272,15.248 L188.904,15.248 L191.528,20.848 L195.272,20.848 L195.272,26.736 L202.312,26.736 Z M180.232,25.872 L182.76,20.368 L185.352,25.872 L192.84,25.872 L188.424,16.464 L184.744,16.048 L187.528,10.064 L180.36,10.064 L173.064,25.872 L180.232,25.872 Z M202.312,39.312 L202.312,27.696 L175.176,27.696 L175.176,33.296 L195.272,33.296 L195.272,39.312 L202.312,39.312 Z M225.064,26.928 L225.064,22.128 L218.44,22.128 L218.44,20.464 L219.112,20.464 C219.944,20.464 220.690667,20.3146667 221.352,20.016 C222.013333,19.7173333 222.578667,19.3226667 223.048,18.832 C223.517333,18.3413333 223.88,17.7653333 224.136,17.104 C224.392,16.4426667 224.52,15.7493333 224.52,15.024 C224.52,14.2986667 224.392,13.6053333 224.136,12.944 C223.88,12.2826667 223.517333,11.7013333 223.048,11.2 C222.578667,10.6986667 222.013333,10.304 221.352,10.016 C220.690667,9.728 219.944,9.584 219.112,9.584 L219.112,9.584 L210.728,9.584 C209.896,9.584 209.149333,9.728 208.488,10.016 C207.826667,10.304 207.261333,10.6986667 206.792,11.2 C206.322667,11.7013333 205.96,12.2826667 205.704,12.944 C205.448,13.6053333 205.32,14.2986667 205.32,15.024 C205.32,15.7706667 205.448,16.4693333 205.704,17.12 C205.96,17.7706667 206.322667,18.3466667 206.792,18.848 C207.261333,19.3493333 207.826667,19.744 208.488,20.032 C209.149333,20.32 209.896,20.464 210.728,20.464 L210.728,20.464 L211.4,20.464 L211.4,22.128 L204.904,22.128 L204.904,26.928 L225.064,26.928 Z M233.064,27.568 L233.064,21.264 L236.392,21.264 L236.392,15.664 L233.064,15.664 L233.064,9.584 L224.392,9.584 L226.024,13.072 L226.024,27.568 L233.064,27.568 Z M217.032,15.824 L212.808,15.824 C212.530667,15.824 212.306667,15.7493333 212.136,15.6 C211.965333,15.4506667 211.88,15.2586667 211.88,15.024 C211.88,14.7893333 211.965333,14.5973333 212.136,14.448 C212.306667,14.2986667 212.530667,14.224 212.808,14.224 L212.808,14.224 L217.032,14.224 C217.309333,14.224 217.533333,14.2986667 217.704,14.448 C217.874667,14.5973333 217.96,14.7893333 217.96,15.024 C217.96,15.2586667 217.874667,15.4506667 217.704,15.6 C217.533333,15.7493333 217.309333,15.824 217.032,15.824 L217.032,15.824 Z M227.912,39.312 C228.872,39.312 229.72,39.1733333 230.456,38.896 C231.192,38.6186667 231.816,38.24 232.328,37.76 C232.84,37.28 233.224,36.704 233.48,36.032 C233.736,35.36 233.864,34.6293333 233.864,33.84 C233.864,33.0506667 233.736,32.32 233.48,31.648 C233.224,30.976 232.84,30.4 232.328,29.92 C231.816,29.44 231.192,29.0613333 230.456,28.784 C229.72,28.5066667 228.872,28.368 227.912,28.368 L227.912,28.368 L212.52,28.368 C211.602667,28.368 210.776,28.5066667 210.04,28.784 C209.304,29.0613333 208.68,29.44 208.168,29.92 C207.656,30.4 207.261333,30.976 206.984,31.648 C206.706667,32.32 206.568,33.0506667 206.568,33.84 C206.568,34.6293333 206.706667,35.36 206.984,36.032 C207.261333,36.704 207.656,37.28 208.168,37.76 C208.68,38.24 209.304,38.6186667 210.04,38.896 C210.776,39.1733333 211.602667,39.312 212.52,39.312 L212.52,39.312 L227.912,39.312 Z M225.832,34.672 L214.6,34.672 C213.938667,34.672 213.608,34.3946667 213.608,33.84 C213.608,33.2853333 213.938667,33.008 214.6,33.008 L214.6,33.008 L225.832,33.008 C226.493333,33.008 226.824,33.2853333 226.824,33.84 C226.824,34.3946667 226.493333,34.672 225.832,34.672 L225.832,34.672 Z M273.832,26.352 L273.832,20.432 L253.352,20.432 L253.352,15.984 L273.672,15.984 L273.672,10.064 L245.16,10.064 L246.472,13.552 L246.472,22.768 C246.472,23.216 246.632,23.6106667 246.952,23.952 L246.952,23.952 L248.744,25.84 C249.064,26.1813333 249.458667,26.352 249.928,26.352 L249.928,26.352 L273.832,26.352 Z M274.792,38.352 L274.792,32.432 L263.592,32.432 L263.592,27.312 L256.552,27.312 L256.552,32.432 L245.352,32.432 L245.352,38.352 L274.792,38.352 Z M306.312,30.864 L306.312,9.584 L297.64,9.584 L299.272,13.072 L299.272,17.264 L292.968,17.264 L295.688,22.864 L299.272,22.864 L299.272,30.864 L306.312,30.864 Z M284.232,26.832 L286.632,21.84 L289.032,26.832 L296.52,26.832 L292.424,18.384 L288.52,17.936 L289.608,15.664 L296.04,15.664 L296.04,10.064 L277.864,10.064 L277.864,15.664 L282.44,15.664 L277.064,26.832 L284.232,26.832 Z M306.632,39.312 L306.632,33.712 L286.632,33.712 L286.632,28.176 L279.496,28.176 L279.496,35.728 C279.496,36.176 279.656,36.5706667 279.976,36.912 L279.976,36.912 L281.768,38.8 C282.088,39.1413333 282.482667,39.312 282.952,39.312 L282.952,39.312 L306.632,39.312 Z M316.072,31.024 L317.032,9.584 L309.992,9.584 L310.952,31.024 L316.072,31.024 Z M316.712,39.312 L316.712,33.296 L310.312,33.296 L310.312,39.312 L316.712,39.312 Z" id="mySUNI출석왕도전!"></path>
                    </g>
                </g>
            </g>
        </g>
    </g>
</svg>