<svg xmlns="http://www.w3.org/2000/svg" width="266" height="48" viewBox="0 0 266 48">
    <g fill="none" fill-rule="evenodd">
        <g>
            <g>
                <g transform="translate(-421 -252) translate(380 148) translate(41 104)">
                    <path fill="#FFF" fill-rule="nonzero" d="M9.744 7.904V5.28H6.64V3.808h-3.2V5.28H.24v2.624h9.504zM13.52 18.16v-5.536h1.68V9.76h-1.68V4.032h-3.136V18.16h3.136zm-8.512-.704c2.672 0 4.496-1.28 4.496-3.392v-2.256c0-2.16-1.824-3.472-4.496-3.472-2.656 0-4.464 1.312-4.464 3.472v2.256c0 2.16 1.808 3.392 4.464 3.392zm.016-2.592c-.768 0-1.312-.352-1.312-1.04v-1.84c0-.688.544-1.056 1.312-1.056s1.312.368 1.312 1.056v1.84c0 .688-.544 1.04-1.312 1.04zm23.9-2.368v-2.56H19.26v-.48h9.504V4.192h-12.64v2.48h9.504v.48h-9.504v5.344h12.8zm-4.752 5.664v-2.432H29.5V13.04H15.388v2.688h5.328v2.432h3.456zm19.98 0V4.032H41.21V18.16h2.944zm-3.503-.128V4.08h-2.912v4.88h-.768V7.68c0-2.24-1.36-3.568-3.408-3.552-2.048-.016-3.408 1.312-3.408 3.552v6.24c0 2.24 1.36 3.568 3.408 3.552 2.048.016 3.408-1.312 3.408-3.552v-2.096h.768v6.208h2.912zm-7.088-3.248c-.368 0-.528-.368-.528-.784V7.6c0-.416.16-.784.528-.784s.528.368.528.784V14c0 .416-.16.784-.528.784zM51.41 7.872c.864 0 1.52-.624 1.52-1.456 0-.768-.528-1.344-1.232-1.248-.144.016-.208 0-.16-.16.224-.56.752-1.024 1.328-1.312l-.704-.8c-1.376.608-2.352 1.76-2.352 3.136 0 1.072.752 1.84 1.6 1.84zm15.292 4.08v-2.72h1.488V6.544h-1.488V4.032h-2.976v7.92h2.976zm-3.472-.32V9.056h-1.904V6.768h1.52V4.192h-4.4v7.44h4.784zm-5.168 0V9.056h-1.536V6.768h1.36V4.192h-4.24v7.44h4.416zm8.64 6.608v-5.808h-12.08v2.624h8.944v3.184h3.136zm2.38-10.208c1.377-.608 2.353-1.76 2.353-3.136 0-1.072-.752-1.84-1.6-1.84-.864 0-1.52.624-1.52 1.456 0 .768.528 1.344 1.232 1.248.144-.016.208 0 .16.16-.224.56-.752 1.024-1.328 1.312l.704.8zM81.96 7.008V4.864h-3.008v-1.36h-3.184v1.36h-3.072v2.144h9.264zm3.952 7.472v-3.824h1.568V7.968h-1.568V4.032h-3.136V14.48h3.136zm-7.024-1.536c1.76 0 2.864-1.2 2.864-2.752 0-1.552-1.104-2.752-2.864-2.752h-3.136c-1.76 0-2.864 1.2-2.864 2.752 0 1.552 1.104 2.752 2.864 2.752h3.136zm-.816-2.16h-1.504c-.368 0-.576-.24-.576-.592s.208-.592.576-.592h1.504c.368 0 .576.24.576.592s-.208.592-.576.592zm7.92 7.376v-2.304h-9.04v-2.32h-3.136v4.624h12.176zm19.369-3.92V4.032h-3.136v2.944h-1.728V4.112H97.36v1.536H95.2V4.112h-3.136v8.16h8.432V9.664h1.728v4.576h3.136zm-8-4.544H95.2V8.192h2.16v1.504zm8.08 8.464v-2.544H96.4v-2.56h-3.136v5.104h12.176zm3.244 1.504l1.424-5.104h-3.184l-.64 5.104h2.4zM128.55 9.376l.496-1.92c-1.68-.272-3.616-.592-5.216-.976-.08-.016-.112-.032-.128-.08h4.656V4.512h-4.544v-.864h-3.68v.864h-4.528V6.4h4.624c-.016.048-.048.064-.112.08-1.6.4-3.536.704-5.216.976l.496 1.92c2.272-.288 4.4-.704 6.576-1.168 2.176.464 4.304.88 6.576 1.168zm-.096 8.768v-1.856h-9.664v-.48h9.504v-3.856h-4.528v-.528h5.264v-1.92h-14.112v1.92h5.264v.528h-4.528v1.808h9.504v.464h-9.504v3.92h12.8zm2.7-6.192c1.249-.944 2.257-1.728 3.249-2.688.976.992 2.048 1.792 3.152 2.624l1.824-1.968c-1.104-.912-2.096-1.744-2.944-2.72-.272-.304-.352-.64-.352-1.04V4.032h-3.36V6.08c0 .448-.08.72-.352 1.04-.848.96-1.936 1.856-3.12 2.816l1.904 2.016zm12.225 0v-7.92h-3.136v1.36h-2.384v2.592h2.384v3.968h3.136zm0 6.288v-5.808h-12.08v2.624h8.944v3.184h3.136zm15.34-.592V14.96h-5.328v-2h4.592v-2.688h-9.344V7.04h9.184V4.352h-12.32v8.608h4.432v2h-5.328v2.688h14.112zm13.789-6v-2.72h1.568V6.24h-1.568V4.032h-3.136v7.616h3.136zm-11.92.112c1.248-.672 2.416-1.392 3.456-2.144 1.008.72 1.968 1.312 3.2 1.984l1.664-1.952c-1.024-.624-2.08-1.328-2.928-2.048-.272-.224-.272-.464-.272-.768h2.768v-2.64h-8.832v2.64h2.704c0 .4-.032.608-.384.88-.848.656-1.904 1.328-3.024 1.968l1.648 2.08zm9.2 6.656c2.224 0 3.264-1.488 3.264-3.2 0-1.712-.992-3.2-3.216-3.2h-6.592c-2.224 0-3.216 1.488-3.216 3.2 0 1.712.944 3.2 3.168 3.2h6.592zm-.672-2.608h-5.152c-.496 0-.8-.24-.8-.592 0-.368.288-.608.8-.608h5.152c.512 0 .8.24.8.608 0 .352-.304.592-.8.592zm11.513-7.936c.864 0 1.52-.624 1.52-1.456 0-.768-.528-1.344-1.232-1.248-.144.016-.208 0-.16-.16.224-.56.752-1.024 1.328-1.312l-.704-.8c-1.376.608-2.352 1.76-2.352 3.136 0 1.072.752 1.84 1.6 1.84zM196.16 18.24v-5.248h-4.528v-1.216h5.264V9.344h-.816V4.08h-6.24v2.448h3.104v2.816h-3.584V4.08h-6.08v2.448h2.944v2.816h-3.44v2.432h5.264v1.216h-4.528v2.432h9.504v2.816h3.136zm2.14-10.208c1.376-.608 2.352-1.76 2.352-3.136 0-1.072-.752-1.84-1.6-1.84-.864 0-1.52.624-1.52 1.456 0 .768.528 1.344 1.232 1.248.144-.016.208 0 .16.16-.224.56-.752 1.024-1.328 1.312l.704.8zm12.973-.128V5.28h-3.104V3.808h-3.2V5.28h-3.2v2.624h9.504zm3.776 10.256v-5.536h1.68V9.76h-1.68V4.032h-3.136V18.16h3.136zm-8.512-.704c2.672 0 4.496-1.28 4.496-3.392v-2.256c0-2.16-1.824-3.472-4.496-3.472-2.656 0-4.464 1.312-4.464 3.472v2.256c0 2.16 1.808 3.392 4.464 3.392zm.016-2.592c-.768 0-1.312-.352-1.312-1.04v-1.84c0-.688.544-1.056 1.312-1.056s1.312.368 1.312 1.056v1.84c0 .688-.544 1.04-1.312 1.04zm23.9 3.296V4.032h-3.136V18.16h3.136zm-11.616-.752c2-1.68 4.144-3.712 5.712-5.6.688-.816 1.024-1.824 1.024-2.848V4.272h-8.176V6.96h5.024v1.584c0 .752-.24 1.344-.656 1.856-1.36 1.648-3.072 3.28-4.96 4.912l2.032 2.096z"/>
                    <path fill="#FFED61" fill-rule="nonzero" d="M14.32 33.96v-1.792h-1.264v-5.216H1.552v1.776h9.296v.8H1.552v1.744h9.296v.896H.4v1.792h13.92zm-.944 7.232v-1.76H3.872v-.656h9.184v-4.048H1.648v1.76h9.2v.656H1.664v4.048h11.712zm14.316-5.84v-8.32h-2.208v8.32h2.208zm-3.184-.432v-1.888h-6.832v-.992h5.808v-4.736h-8.032v1.888h5.824v.992h-5.808v4.736h9.04zm3.184 6.272v-5.328h-11.2v1.888h8.992v3.44h2.208zm11.325-9.6c1.856 0 3.104-.848 3.104-2.352 0-1.52-1.264-2.384-3.104-2.384h-5.872c-1.824 0-3.104.864-3.104 2.384 0 1.504 1.248 2.352 3.104 2.352h5.872zm-.32-1.792h-5.232c-.752 0-1.216-.144-1.216-.576 0-.432.464-.576 1.216-.576h5.232c.768 0 1.216.144 1.216.576 0 .432-.464.576-1.216.576zm4.352 4.24v-1.792h-13.92v1.792h13.92zm-.944 7.152v-1.76H32.6v-.656h9.184v-4.048H30.377v1.76h9.2v.656h-9.184v4.048h11.712zM54.69 30.568v-1.92h-2.608v-1.76h-2.208v1.76H47.25v1.92h7.44zm6.048 10.576V27.032h-2.176v5.6h-1.088v-5.44H55.33v13.552h2.144v-6h1.088v6.4h2.176zm-9.76-1.68c2.192 0 3.504-1.536 3.504-3.76v-.768c0-2.224-1.312-3.76-3.504-3.76s-3.504 1.536-3.504 3.76v.768c0 2.224 1.312 3.76 3.504 3.76zm0-1.856c-.976 0-1.328-.784-1.328-2.048v-.48c0-1.264.352-2.048 1.328-2.048.976 0 1.328.784 1.328 2.048v.48c0 1.264-.352 2.048-1.328 2.048zm22.764 3.552v-4.688h1.92v-2.08h-1.92v-2.72h1.92v-2.08h-1.92v-2.56h-2.208V41.16h2.208zm-7.808-1.856c2.48 0 4.08-1.536 4.08-3.76V31c0-2.224-1.6-3.76-4.08-3.76s-4.08 1.536-4.08 3.76v4.544c0 2.224 1.6 3.76 4.08 3.76zm0-1.952c-1.248 0-1.872-.784-1.872-2.048V31.24c0-1.264.624-2.048 1.872-2.048 1.248 0 1.872.784 1.872 2.048v4.064c0 1.264-.624 2.048-1.872 2.048zm15.05-4.72c1.52-.336 3.071-.736 4.511-1.184.368-.112.688-.24.976-.448.288.208.592.336.96.448 1.472.416 3.024.768 4.528 1.12l.944-1.472c-1.536-.384-3.184-.8-4.688-1.264-.32-.096-.496-.24-.576-.496h4.64v-1.792h-4.688v-1.072h-2.24v1.072h-4.688v1.792h4.624c-.08.256-.24.384-.56.496-1.504.496-3.152.928-4.688 1.328l.944 1.472zm11.503 8.56V39.56h-9.504V39h9.184v-3.664h-4.576v-.784h5.84V32.92h-13.92v1.632h5.84v.784H80.76v1.632h9.2v.56h-9.184v3.664h11.712zM106.804 35v-7.968h-2.208v2.208h-2.656v1.952h2.656V35h2.208zm-11.632.064c1.264-1.056 2.384-2.048 3.584-3.168 1.184 1.104 2.08 1.888 3.36 2.912l1.264-1.52c-1.264-1.072-1.936-1.744-2.944-2.688-.352-.32-.56-.832-.56-1.328V27.24h-2.24v2.032c0 .496-.208 1.008-.56 1.328-1.04.976-2 1.872-3.232 2.944l1.328 1.52zm11.632 6.128v-5.648h-11.2v1.952h8.992v3.696h2.208zm15.356-.976v-1.952h-5.68v-2.88h4.544v-1.952h-9.28v-4.016h9.12v-1.952h-11.328v7.92h4.704v2.88h-6v1.952h13.92zm12.812-5.488v-3.024h1.792v-2.032h-1.792v-2.64h-2.208v7.696h2.208zm-11.312 0c1.2-.896 2.4-1.792 3.552-2.688 1.088.8 2.144 1.6 3.28 2.432l1.264-1.456c-.976-.72-2.016-1.52-2.928-2.304-.32-.272-.496-.64-.496-1.168v-.256h3.04V27.4h-8.416v1.888h3.136v.256c0 .528-.176.896-.496 1.168-1.056.864-2.176 1.728-3.264 2.56l1.328 1.456zm8.496 6.4c1.84 0 3.184-1.136 3.184-3.024 0-1.888-1.344-3.024-3.184-3.024h-5.152c-1.84 0-3.184 1.136-3.184 3.024 0 1.888 1.344 3.024 3.184 3.024h5.152zm-.24-1.92h-4.672c-.768 0-1.216-.4-1.216-1.104 0-.704.448-1.104 1.216-1.104h4.672c.768 0 1.216.4 1.216 1.104 0 .704-.448 1.104-1.216 1.104zm14.94-7.616c1.857 0 3.105-.848 3.105-2.352 0-1.52-1.264-2.384-3.104-2.384h-5.872c-1.824 0-3.104.864-3.104 2.384 0 1.504 1.248 2.352 3.104 2.352h5.872zm-.32-1.792h-5.231c-.752 0-1.216-.144-1.216-.576 0-.432.464-.576 1.216-.576h5.232c.768 0 1.216.144 1.216.576 0 .432-.464.576-1.216.576zm4.353 4.24v-1.792h-13.92v1.792h13.92zm-.944 7.152v-1.76h-9.504v-.656h9.184v-4.048h-11.408v1.76h9.2v.656h-9.184v4.048h11.712zm18.12-6.144v-8.016h-2.175v6.48c-.752-.912-1.36-1.568-1.952-2.528-.24-.384-.304-.592-.304-1.152v-.512h1.616V27.4h-4.608v1.92h.816v.512c0 .56-.048.768-.272 1.152-.208.368-.464.704-.768 1.04-.304-.336-.56-.672-.768-1.04-.224-.384-.272-.592-.272-1.152v-.512h.816V27.4h-4.608v1.92h1.616v.512c0 .56-.064.768-.304 1.152-.624.992-1.248 1.84-2 2.848l1.744 1.104c.608-.8 1.216-1.552 1.792-2.336l1.984 2.256 2.016-2.256c.576.784 1.264 1.584 1.968 2.336l1.488-1.264v1.376h2.176zm0 6.144v-5.648h-11.36v1.952h9.153v3.696h2.208zm11.165-9.6c1.856 0 3.104-.848 3.104-2.352 0-1.52-1.264-2.384-3.104-2.384h-5.872c-1.824 0-3.104.864-3.104 2.384 0 1.504 1.248 2.352 3.104 2.352h5.872zm-.32-1.792h-5.232c-.752 0-1.216-.144-1.216-.576 0-.432.464-.576 1.216-.576h5.232c.768 0 1.216.144 1.216.576 0 .432-.464.576-1.216.576zm4.352 4.24v-1.792h-13.92v1.792h13.92zm-.944 7.152v-1.76h-9.504v-.656h9.184v-4.048H170.59v1.76h9.2v.656h-9.184v4.048h11.712zm17.193-6.96l1.344-1.488c-1.568-.992-3.296-2.144-4.592-3.104-.576-.432-.816-.96-.816-1.68v-.832h-2.272v.848c0 .72-.24 1.232-.816 1.664-1.296.96-3.024 2.112-4.592 3.104l1.344 1.488c1.984-1.2 3.456-2.16 5.2-3.408 1.744 1.248 3.216 2.208 5.2 3.408zm-4.08 6.928v-4.144h5.84v-1.952h-13.92v1.952h5.84v4.144h2.24zm14.665-6.544c2.672 0 4.384-1.744 4.384-3.824s-1.712-3.824-4.384-3.824c-2.672 0-4.384 1.744-4.384 3.824s1.712 3.824 4.384 3.824zm8.192.32v-7.904h-2.208v7.904h2.208zm-8.192-2.24c-1.328 0-2.176-.784-2.176-1.904 0-1.12.848-1.904 2.176-1.904 1.328 0 2.176.784 2.176 1.904 0 1.12-.848 1.904-2.176 1.904zm8.416 8.528l1.248-1.68c-.848-.576-2.048-1.328-2.704-1.92-.256-.224-.304-.576-.304-.896v-1.344h-2.208v1.344c0 .336-.048.672-.256.896-.336.384-.96.848-1.392 1.152-.416-.288-1.072-.816-1.392-1.152-.224-.24-.256-.56-.256-.896v-1.344h-2.208v1.344c0 .32-.064.656-.304.896-.656.624-1.712 1.344-2.544 1.92l1.248 1.68c.912-.64 1.888-1.296 2.768-1.968.944.704 1.776 1.328 2.688 1.904.912-.624 1.744-1.184 2.688-1.904.96.656 2 1.312 2.928 1.968zm14.252-.064V27.032h-2.208v4.928h-2V31c0-2.224-1.6-3.76-4.08-3.76s-4.08 1.536-4.08 3.76v4.544c0 2.224 1.6 3.76 4.08 3.76s4.08-1.536 4.08-3.76v-1.472h2v7.088h2.208zm-8.288-3.808c-1.248 0-1.872-.784-1.872-2.048V31.24c0-1.264.624-2.048 1.872-2.048 1.248 0 1.872.784 1.872 2.048v4.064c0 1.264-.624 2.048-1.872 2.048zm23.533 2.864v-1.952h-3.312V35.32c1.456-.544 2.336-2 2.336-3.888 0-2.4-1.44-4.128-3.68-4.128h-4.592c-2.24 0-3.68 1.728-3.68 4.128 0 1.872.864 3.328 2.32 3.872v2.96h-3.312v1.952h13.92zm-4.896-6.624H239c-1.168 0-1.696-.992-1.696-2.16 0-1.12.528-2.176 1.696-2.176h4.112c1.168 0 1.696 1.056 1.696 2.176 0 1.168-.528 2.16-1.696 2.16zm-.624 4.672h-2.88v-2.72h2.88v2.72zm8.556-.992c.096-.976.32-3.52.32-4.192v-6.16h-2.304v6.16c0 .656.224 3.216.32 4.192h1.664zm.4 3.6v-2.48h-2.464v2.48h2.464z"/>
                    <path fill="#FFED61" d="M0 44H252V45H0z"/>
                    <path fill="#FFF" d="M257.876 27.788L256.336 39.15 260.005 36.749 261.243 40.426 262.63 39.922 261.346 36.332 265.347 35.848z" transform="rotate(-7 260.842 34.107)"/>
                    <path fill="#D8D8D8" stroke="#FFF" stroke-linecap="round" d="M255 23.155L256.984 25.562"/>
                    <path fill="#D8D8D8" stroke="#FFF" stroke-linecap="round" d="M262 23.155L264 25.562" transform="matrix(-1 0 0 1 526 0)"/>
                    <rect width="1" height="6" x="259" y="20" fill="#FFF" rx=".5"/>
                </g>
            </g>
        </g>
    </g>
</svg>
