<?xml version="1.0" encoding="UTF-8"?>
<svg width="130px" height="22px" viewBox="0 0 130 22" version="1.1" xmlns="http://www.w3.org/2000/svg" xmlns:xlink="http://www.w3.org/1999/xlink">
    <title>tag_period</title>
    <g id="Stamp-Event" stroke="none" stroke-width="1" fill="none" fill-rule="evenodd">
        <g id="StampEvent_02_Popup_02" transform="translate(-420.000000, -188.000000)">
            <g id="@-Quiz" transform="translate(380.000000, 148.000000)">
                <g id="Top" transform="translate(0.000000, 2.000000)">
                    <g id="기한" transform="translate(40.000000, 38.000000)">
                        <rect id="Rectangle" fill="#FFFFFF" x="0" y="0" width="130" height="22" rx="11"></rect>
                        <path d="M15.885,15 L15.885,13.174 L13.201,13.174 L14.576,11.887 C15.0013333,11.4836667 15.3111667,11.0895 15.5055,10.7045 C15.6998333,10.3195 15.797,9.89966667 15.797,9.445 C15.797,9.01966667 15.7163333,8.6255 15.555,8.2625 C15.3936667,7.8995 15.17,7.586 14.884,7.322 C14.598,7.058 14.2588333,6.85266667 13.8665,6.706 C13.4741667,6.55933333 13.047,6.486 12.585,6.486 C12.1156667,6.486 11.6848333,6.563 11.2925,6.717 C10.9001667,6.871 10.561,7.091 10.275,7.377 C9.989,7.663 9.76716667,8.004 9.6095,8.4 C9.45183333,8.796 9.373,9.236 9.373,9.72 L9.373,9.72 L11.727,9.72 C11.705,9.566 11.694,9.44866667 11.694,9.368 C11.694,9.082 11.7765,8.84366667 11.9415,8.653 C12.1065,8.46233333 12.3356667,8.367 12.629,8.367 C12.783,8.367 12.9168333,8.3945 13.0305,8.4495 C13.1441667,8.5045 13.2413333,8.57783333 13.322,8.6695 C13.4026667,8.76116667 13.4631667,8.86566667 13.5035,8.983 C13.5438333,9.10033333 13.564,9.22133333 13.564,9.346 C13.564,9.46333333 13.5456667,9.60633333 13.509,9.775 C13.4723333,9.94366667 13.3788333,10.1636667 13.2285,10.435 C13.0781667,10.7063333 12.849,11.0381667 12.541,11.4305 C12.233,11.8228333 11.8076667,12.3013333 11.265,12.866 L11.265,12.866 L9.208,15 L15.885,15 Z M20.12,15.231 C20.6333333,15.231 21.1063333,15.1265 21.539,14.9175 C21.9716667,14.7085 22.342,14.4115 22.65,14.0265 C22.958,13.6415 23.1981667,13.1795 23.3705,12.6405 C23.5428333,12.1015 23.629,11.502 23.629,10.842 C23.629,10.182 23.5428333,9.5825 23.3705,9.0435 C23.1981667,8.5045 22.958,8.04433333 22.65,7.663 C22.342,7.28166667 21.9716667,6.9865 21.539,6.7775 C21.1063333,6.5685 20.6333333,6.464 20.12,6.464 C19.5993333,6.464 19.1245,6.5685 18.6955,6.7775 C18.2665,6.9865 17.8961667,7.28166667 17.5845,7.663 C17.2728333,8.04433333 17.0308333,8.5045 16.8585,9.0435 C16.6861667,9.5825 16.6,10.182 16.6,10.842 C16.6,11.502 16.6861667,12.1015 16.8585,12.6405 C17.0308333,13.1795 17.2728333,13.6415 17.5845,14.0265 C17.8961667,14.4115 18.2665,14.7085 18.6955,14.9175 C19.1245,15.1265 19.5993333,15.231 20.12,15.231 Z M20.12,13.317 C19.9073333,13.317 19.7166667,13.2565 19.548,13.1355 C19.3793333,13.0145 19.2345,12.844 19.1135,12.624 C18.9925,12.404 18.899,12.1436667 18.833,11.843 C18.767,11.5423333 18.734,11.2086667 18.734,10.842 C18.734,10.4826667 18.767,10.1508333 18.833,9.8465 C18.899,9.54216667 18.9925,9.28183333 19.1135,9.0655 C19.2345,8.84916667 19.3793333,8.6805 19.548,8.5595 C19.7166667,8.4385 19.9073333,8.378 20.12,8.378 C20.3253333,8.378 20.5141667,8.4385 20.6865,8.5595 C20.8588333,8.6805 21.0036667,8.84916667 21.121,9.0655 C21.2383333,9.28183333 21.33,9.54216667 21.396,9.8465 C21.462,10.1508333 21.495,10.4826667 21.495,10.842 C21.495,11.2086667 21.462,11.5423333 21.396,11.843 C21.33,12.1436667 21.2383333,12.404 21.121,12.624 C21.0036667,12.844 20.8588333,13.0145 20.6865,13.1355 C20.5141667,13.2565 20.3253333,13.317 20.12,13.317 Z M30.845,15 L30.845,13.174 L28.161,13.174 L29.536,11.887 C29.9613333,11.4836667 30.2711667,11.0895 30.4655,10.7045 C30.6598333,10.3195 30.757,9.89966667 30.757,9.445 C30.757,9.01966667 30.6763333,8.6255 30.515,8.2625 C30.3536667,7.8995 30.13,7.586 29.844,7.322 C29.558,7.058 29.2188333,6.85266667 28.8265,6.706 C28.4341667,6.55933333 28.007,6.486 27.545,6.486 C27.0756667,6.486 26.6448333,6.563 26.2525,6.717 C25.8601667,6.871 25.521,7.091 25.235,7.377 C24.949,7.663 24.7271667,8.004 24.5695,8.4 C24.4118333,8.796 24.333,9.236 24.333,9.72 L24.333,9.72 L26.687,9.72 C26.665,9.566 26.654,9.44866667 26.654,9.368 C26.654,9.082 26.7365,8.84366667 26.9015,8.653 C27.0665,8.46233333 27.2956667,8.367 27.589,8.367 C27.743,8.367 27.8768333,8.3945 27.9905,8.4495 C28.1041667,8.5045 28.2013333,8.57783333 28.282,8.6695 C28.3626667,8.76116667 28.4231667,8.86566667 28.4635,8.983 C28.5038333,9.10033333 28.524,9.22133333 28.524,9.346 C28.524,9.46333333 28.5056667,9.60633333 28.469,9.775 C28.4323333,9.94366667 28.3388333,10.1636667 28.1885,10.435 C28.0381667,10.7063333 27.809,11.0381667 27.501,11.4305 C27.193,11.8228333 26.7676667,12.3013333 26.225,12.866 L26.225,12.866 L24.168,15 L30.845,15 Z M36.411,15 L36.411,6.706 L33.045,6.706 L33.045,8.532 L34.255,8.532 L34.255,15 L36.411,15 Z M40.69,15.231 C40.866,15.231 41.0328333,15.198 41.1905,15.132 C41.3481667,15.066 41.4856667,14.9743333 41.603,14.857 C41.7203333,14.7396667 41.812,14.6021667 41.878,14.4445 C41.944,14.2868333 41.977,14.12 41.977,13.944 C41.977,13.768 41.944,13.6011667 41.878,13.4435 C41.812,13.2858333 41.7203333,13.1483333 41.603,13.031 C41.4856667,12.9136667 41.3481667,12.822 41.1905,12.756 C41.0328333,12.69 40.866,12.657 40.69,12.657 C40.514,12.657 40.3471667,12.69 40.1895,12.756 C40.0318333,12.822 39.8943333,12.9136667 39.777,13.031 C39.6596667,13.1483333 39.568,13.2858333 39.502,13.4435 C39.436,13.6011667 39.403,13.768 39.403,13.944 C39.403,14.12 39.436,14.2868333 39.502,14.4445 C39.568,14.6021667 39.6596667,14.7396667 39.777,14.857 C39.8943333,14.9743333 40.0318333,15.066 40.1895,15.132 C40.3471667,15.198 40.514,15.231 40.69,15.231 Z M46.3,15.231 C46.8133333,15.231 47.2863333,15.1265 47.719,14.9175 C48.1516667,14.7085 48.522,14.4115 48.83,14.0265 C49.138,13.6415 49.3781667,13.1795 49.5505,12.6405 C49.7228333,12.1015 49.809,11.502 49.809,10.842 C49.809,10.182 49.7228333,9.5825 49.5505,9.0435 C49.3781667,8.5045 49.138,8.04433333 48.83,7.663 C48.522,7.28166667 48.1516667,6.9865 47.719,6.7775 C47.2863333,6.5685 46.8133333,6.464 46.3,6.464 C45.7793333,6.464 45.3045,6.5685 44.8755,6.7775 C44.4465,6.9865 44.0761667,7.28166667 43.7645,7.663 C43.4528333,8.04433333 43.2108333,8.5045 43.0385,9.0435 C42.8661667,9.5825 42.78,10.182 42.78,10.842 C42.78,11.502 42.8661667,12.1015 43.0385,12.6405 C43.2108333,13.1795 43.4528333,13.6415 43.7645,14.0265 C44.0761667,14.4115 44.4465,14.7085 44.8755,14.9175 C45.3045,15.1265 45.7793333,15.231 46.3,15.231 Z M46.3,13.317 C46.0873333,13.317 45.8966667,13.2565 45.728,13.1355 C45.5593333,13.0145 45.4145,12.844 45.2935,12.624 C45.1725,12.404 45.079,12.1436667 45.013,11.843 C44.947,11.5423333 44.914,11.2086667 44.914,10.842 C44.914,10.4826667 44.947,10.1508333 45.013,9.8465 C45.079,9.54216667 45.1725,9.28183333 45.2935,9.0655 C45.4145,8.84916667 45.5593333,8.6805 45.728,8.5595 C45.8966667,8.4385 46.0873333,8.378 46.3,8.378 C46.5053333,8.378 46.6941667,8.4385 46.8665,8.5595 C47.0388333,8.6805 47.1836667,8.84916667 47.301,9.0655 C47.4183333,9.28183333 47.51,9.54216667 47.576,9.8465 C47.642,10.1508333 47.675,10.4826667 47.675,10.842 C47.675,11.2086667 47.642,11.5423333 47.576,11.843 C47.51,12.1436667 47.4183333,12.404 47.301,12.624 C47.1836667,12.844 47.0388333,13.0145 46.8665,13.1355 C46.6941667,13.2565 46.5053333,13.317 46.3,13.317 Z M56.2,15 L56.2,13.295 L57.201,13.295 L57.201,11.645 L56.2,11.645 L56.2,6.706 L53.362,6.706 L50.194,11.909 L50.194,13.295 L54.198,13.295 L54.198,15 L56.2,15 Z M54.198,11.645 L52.295,11.645 L54.198,8.378 L54.198,11.645 Z M59.39,15.231 C59.566,15.231 59.7328333,15.198 59.8905,15.132 C60.0481667,15.066 60.1856667,14.9743333 60.303,14.857 C60.4203333,14.7396667 60.512,14.6021667 60.578,14.4445 C60.644,14.2868333 60.677,14.12 60.677,13.944 C60.677,13.768 60.644,13.6011667 60.578,13.4435 C60.512,13.2858333 60.4203333,13.1483333 60.303,13.031 C60.1856667,12.9136667 60.0481667,12.822 59.8905,12.756 C59.7328333,12.69 59.566,12.657 59.39,12.657 C59.214,12.657 59.0471667,12.69 58.8895,12.756 C58.7318333,12.822 58.5943333,12.9136667 58.477,13.031 C58.3596667,13.1483333 58.268,13.2858333 58.202,13.4435 C58.136,13.6011667 58.103,13.768 58.103,13.944 C58.103,14.12 58.136,14.2868333 58.202,14.4445 C58.268,14.6021667 58.3596667,14.7396667 58.477,14.857 C58.5943333,14.9743333 58.7318333,15.066 58.8895,15.132 C59.0471667,15.198 59.214,15.231 59.39,15.231 Z M65,15.231 C65.5133333,15.231 65.9863333,15.1265 66.419,14.9175 C66.8516667,14.7085 67.222,14.4115 67.53,14.0265 C67.838,13.6415 68.0781667,13.1795 68.2505,12.6405 C68.4228333,12.1015 68.509,11.502 68.509,10.842 C68.509,10.182 68.4228333,9.5825 68.2505,9.0435 C68.0781667,8.5045 67.838,8.04433333 67.53,7.663 C67.222,7.28166667 66.8516667,6.9865 66.419,6.7775 C65.9863333,6.5685 65.5133333,6.464 65,6.464 C64.4793333,6.464 64.0045,6.5685 63.5755,6.7775 C63.1465,6.9865 62.7761667,7.28166667 62.4645,7.663 C62.1528333,8.04433333 61.9108333,8.5045 61.7385,9.0435 C61.5661667,9.5825 61.48,10.182 61.48,10.842 C61.48,11.502 61.5661667,12.1015 61.7385,12.6405 C61.9108333,13.1795 62.1528333,13.6415 62.4645,14.0265 C62.7761667,14.4115 63.1465,14.7085 63.5755,14.9175 C64.0045,15.1265 64.4793333,15.231 65,15.231 Z M65,13.317 C64.7873333,13.317 64.5966667,13.2565 64.428,13.1355 C64.2593333,13.0145 64.1145,12.844 63.9935,12.624 C63.8725,12.404 63.779,12.1436667 63.713,11.843 C63.647,11.5423333 63.614,11.2086667 63.614,10.842 C63.614,10.4826667 63.647,10.1508333 63.713,9.8465 C63.779,9.54216667 63.8725,9.28183333 63.9935,9.0655 C64.1145,8.84916667 64.2593333,8.6805 64.428,8.5595 C64.5966667,8.4385 64.7873333,8.378 65,8.378 C65.2053333,8.378 65.3941667,8.4385 65.5665,8.5595 C65.7388333,8.6805 65.8836667,8.84916667 66.001,9.0655 C66.1183333,9.28183333 66.21,9.54216667 66.276,9.8465 C66.342,10.1508333 66.375,10.4826667 66.375,10.842 C66.375,11.2086667 66.342,11.5423333 66.276,11.843 C66.21,12.1436667 66.1183333,12.404 66.001,12.624 C65.8836667,12.844 65.7388333,13.0145 65.5665,13.1355 C65.3941667,13.2565 65.2053333,13.317 65,13.317 Z M72.018,15.231 C72.546,15.231 73.0263333,15.1631667 73.459,15.0275 C73.8916667,14.8918333 74.2583333,14.6975 74.559,14.4445 C74.8596667,14.1915 75.0925,13.8853333 75.2575,13.526 C75.4225,13.1666667 75.505,12.7633333 75.505,12.316 C75.505,11.8906667 75.4316667,11.4983333 75.285,11.139 C75.1383333,10.7796667 74.9366667,10.4716667 74.68,10.215 C74.4233333,9.95833333 74.1153333,9.75666667 73.756,9.61 C73.3966667,9.46333333 73.008,9.39 72.59,9.39 C72.4726667,9.39 72.359,9.3955 72.249,9.4065 C72.139,9.4175 72.018,9.43033333 71.886,9.445 L71.886,9.445 L72.029,8.532 L74.9,8.532 L74.9,6.706 L70.555,6.706 L69.862,11.161 C70.1186667,11.0436667 70.379,10.9575 70.643,10.9025 C70.907,10.8475 71.1636667,10.82 71.413,10.82 C71.9703333,10.82 72.4213333,10.9465 72.766,11.1995 C73.1106667,11.4525 73.283,11.7843333 73.283,12.195 C73.283,12.547 73.1546667,12.8421667 72.898,13.0805 C72.6413333,13.3188333 72.293,13.438 71.853,13.438 C71.5083333,13.438 71.1453333,13.3555 70.764,13.1905 C70.3826667,13.0255 70.0086667,12.7853333 69.642,12.47 L69.642,12.47 L69.323,14.494 C69.719,14.7433333 70.1425,14.9285 70.5935,15.0495 C71.0445,15.1705 71.5193333,15.231 72.018,15.231 Z M91.18,15.231 C91.6933333,15.231 92.1663333,15.1265 92.599,14.9175 C93.0316667,14.7085 93.402,14.4115 93.71,14.0265 C94.018,13.6415 94.2581667,13.1795 94.4305,12.6405 C94.6028333,12.1015 94.689,11.502 94.689,10.842 C94.689,10.182 94.6028333,9.5825 94.4305,9.0435 C94.2581667,8.5045 94.018,8.04433333 93.71,7.663 C93.402,7.28166667 93.0316667,6.9865 92.599,6.7775 C92.1663333,6.5685 91.6933333,6.464 91.18,6.464 C90.6593333,6.464 90.1845,6.5685 89.7555,6.7775 C89.3265,6.9865 88.9561667,7.28166667 88.6445,7.663 C88.3328333,8.04433333 88.0908333,8.5045 87.9185,9.0435 C87.7461667,9.5825 87.66,10.182 87.66,10.842 C87.66,11.502 87.7461667,12.1015 87.9185,12.6405 C88.0908333,13.1795 88.3328333,13.6415 88.6445,14.0265 C88.9561667,14.4115 89.3265,14.7085 89.7555,14.9175 C90.1845,15.1265 90.6593333,15.231 91.18,15.231 Z M91.18,13.317 C90.9673333,13.317 90.7766667,13.2565 90.608,13.1355 C90.4393333,13.0145 90.2945,12.844 90.1735,12.624 C90.0525,12.404 89.959,12.1436667 89.893,11.843 C89.827,11.5423333 89.794,11.2086667 89.794,10.842 C89.794,10.4826667 89.827,10.1508333 89.893,9.8465 C89.959,9.54216667 90.0525,9.28183333 90.1735,9.0655 C90.2945,8.84916667 90.4393333,8.6805 90.608,8.5595 C90.7766667,8.4385 90.9673333,8.378 91.18,8.378 C91.3853333,8.378 91.5741667,8.4385 91.7465,8.5595 C91.9188333,8.6805 92.0636667,8.84916667 92.181,9.0655 C92.2983333,9.28183333 92.39,9.54216667 92.456,9.8465 C92.522,10.1508333 92.555,10.4826667 92.555,10.842 C92.555,11.2086667 92.522,11.5423333 92.456,11.843 C92.39,12.1436667 92.2983333,12.404 92.181,12.624 C92.0636667,12.844 91.9188333,13.0145 91.7465,13.1355 C91.5741667,13.2565 91.3853333,13.317 91.18,13.317 Z M101.08,15 L101.08,13.295 L102.081,13.295 L102.081,11.645 L101.08,11.645 L101.08,6.706 L98.242,6.706 L95.074,11.909 L95.074,13.295 L99.078,13.295 L99.078,15 L101.08,15 Z M99.078,11.645 L97.175,11.645 L99.078,8.378 L99.078,11.645 Z M104.27,15.231 C104.446,15.231 104.612833,15.198 104.7705,15.132 C104.928167,15.066 105.065667,14.9743333 105.183,14.857 C105.300333,14.7396667 105.392,14.6021667 105.458,14.4445 C105.524,14.2868333 105.557,14.12 105.557,13.944 C105.557,13.768 105.524,13.6011667 105.458,13.4435 C105.392,13.2858333 105.300333,13.1483333 105.183,13.031 C105.065667,12.9136667 104.928167,12.822 104.7705,12.756 C104.612833,12.69 104.446,12.657 104.27,12.657 C104.094,12.657 103.927167,12.69 103.7695,12.756 C103.611833,12.822 103.474333,12.9136667 103.357,13.031 C103.239667,13.1483333 103.148,13.2858333 103.082,13.4435 C103.016,13.6011667 102.983,13.768 102.983,13.944 C102.983,14.12 103.016,14.2868333 103.082,14.4445 C103.148,14.6021667 103.239667,14.7396667 103.357,14.857 C103.474333,14.9743333 103.611833,15.066 103.7695,15.132 C103.927167,15.198 104.094,15.231 104.27,15.231 Z M109.814,15.231 C110.290667,15.231 110.728833,15.165 111.1285,15.033 C111.528167,14.901 111.872833,14.714 112.1625,14.472 C112.452167,14.23 112.677667,13.9403333 112.839,13.603 C113.000333,13.2656667 113.081,12.8916667 113.081,12.481 C113.081,11.9823333 112.961833,11.5625 112.7235,11.2215 C112.485167,10.8805 112.153333,10.644 111.728,10.512 C112.006667,10.3286667 112.221167,10.1105 112.3715,9.8575 C112.521833,9.6045 112.597,9.28 112.597,8.884 C112.597,8.51733333 112.532833,8.1855 112.4045,7.8885 C112.276167,7.5915 112.092833,7.3385 111.8545,7.1295 C111.616167,6.9205 111.330167,6.75916667 110.9965,6.6455 C110.662833,6.53183333 110.290667,6.475 109.88,6.475 C109.462,6.475 109.080667,6.5355 108.736,6.6565 C108.391333,6.7775 108.090667,6.9535 107.834,7.1845 C107.577333,7.4155 107.3665,7.69966667 107.2015,8.037 C107.0365,8.37433333 106.928333,8.75933333 106.877,9.192 L106.877,9.192 L108.868,9.192 C108.868,8.91333333 108.948667,8.686 109.11,8.51 C109.271333,8.334 109.484,8.246 109.748,8.246 C109.997333,8.246 110.200833,8.323 110.3585,8.477 C110.516167,8.631 110.595,8.83266667 110.595,9.082 C110.595,9.33866667 110.510667,9.54766667 110.342,9.709 C110.173333,9.87033333 109.953333,9.951 109.682,9.951 L109.682,9.951 L109.5775,9.951 C109.537167,9.951 109.487667,9.94733333 109.429,9.94 L109.429,9.94 L109.429,11.293 C109.509667,11.2783333 109.583,11.2655 109.649,11.2545 C109.715,11.2435 109.784667,11.238 109.858,11.238 C110.151333,11.238 110.404333,11.3296667 110.617,11.513 C110.829667,11.6963333 110.936,11.9676667 110.936,12.327 C110.936,12.6276667 110.848,12.8806667 110.672,13.086 C110.496,13.2913333 110.217333,13.394 109.836,13.394 C109.476667,13.394 109.190667,13.2931667 108.978,13.0915 C108.765333,12.8898333 108.651667,12.5946667 108.637,12.206 L108.637,12.206 L106.503,12.206 C106.503,12.4553333 106.526833,12.701 106.5745,12.943 C106.622167,13.185 106.715667,13.427 106.855,13.669 C107.163,14.2116667 107.573667,14.6076667 108.087,14.857 C108.600333,15.1063333 109.176,15.231 109.814,15.231 Z M117.36,15.231 C117.873333,15.231 118.346333,15.1265 118.779,14.9175 C119.211667,14.7085 119.582,14.4115 119.89,14.0265 C120.198,13.6415 120.438167,13.1795 120.6105,12.6405 C120.782833,12.1015 120.869,11.502 120.869,10.842 C120.869,10.182 120.782833,9.5825 120.6105,9.0435 C120.438167,8.5045 120.198,8.04433333 119.89,7.663 C119.582,7.28166667 119.211667,6.9865 118.779,6.7775 C118.346333,6.5685 117.873333,6.464 117.36,6.464 C116.839333,6.464 116.3645,6.5685 115.9355,6.7775 C115.5065,6.9865 115.136167,7.28166667 114.8245,7.663 C114.512833,8.04433333 114.270833,8.5045 114.0985,9.0435 C113.926167,9.5825 113.84,10.182 113.84,10.842 C113.84,11.502 113.926167,12.1015 114.0985,12.6405 C114.270833,13.1795 114.512833,13.6415 114.8245,14.0265 C115.136167,14.4115 115.5065,14.7085 115.9355,14.9175 C116.3645,15.1265 116.839333,15.231 117.36,15.231 Z M117.36,13.317 C117.147333,13.317 116.956667,13.2565 116.788,13.1355 C116.619333,13.0145 116.4745,12.844 116.3535,12.624 C116.2325,12.404 116.139,12.1436667 116.073,11.843 C116.007,11.5423333 115.974,11.2086667 115.974,10.842 C115.974,10.4826667 116.007,10.1508333 116.073,9.8465 C116.139,9.54216667 116.2325,9.28183333 116.3535,9.0655 C116.4745,8.84916667 116.619333,8.6805 116.788,8.5595 C116.956667,8.4385 117.147333,8.378 117.36,8.378 C117.565333,8.378 117.754167,8.4385 117.9265,8.5595 C118.098833,8.6805 118.243667,8.84916667 118.361,9.0655 C118.478333,9.28183333 118.57,9.54216667 118.636,9.8465 C118.702,10.1508333 118.735,10.4826667 118.735,10.842 C118.735,11.2086667 118.702,11.5423333 118.636,11.843 C118.57,12.1436667 118.478333,12.404 118.361,12.624 C118.243667,12.844 118.098833,13.0145 117.9265,13.1355 C117.754167,13.2565 117.565333,13.317 117.36,13.317 Z" id="2021.04.0504.30" fill="#FF5740" fill-rule="nonzero"></path>
                        <path d="M82.7392578,12.1113281 C83.0322266,12.1113281 83.2949219,12.0576172 83.5273438,11.9501953 C83.7597656,11.8427734 83.9570312,11.6894531 84.1191406,11.4902344 C84.28125,11.2910156 84.4052734,11.0488281 84.4912109,10.7636719 C84.5771484,10.4785156 84.6201172,10.1582031 84.6201172,9.80273438 C84.6201172,9.76757812 84.6191406,9.73144531 84.6171875,9.69433594 C84.6152344,9.65722656 84.6123047,9.61914062 84.6083984,9.58007812 L84.6083984,9.58007812 L83.2783203,9.58007812 C83.2548828,10.2753906 83.0224609,10.6230469 82.5810547,10.6230469 C82.4638672,10.6230469 82.3457031,10.5888672 82.2265625,10.5205078 C82.1074219,10.4521484 81.9619141,10.3320312 81.7900391,10.1601562 C81.6494141,10.0195312 81.515625,9.90136719 81.3886719,9.80566406 C81.2617188,9.70996094 81.1376953,9.63085938 81.0166016,9.56835938 C80.8955078,9.50585938 80.7744141,9.4609375 80.6533203,9.43359375 C80.5322266,9.40625 80.4052734,9.39257812 80.2724609,9.39257812 C79.9794922,9.39257812 79.7158203,9.44628906 79.4814453,9.55371094 C79.2470703,9.66113281 79.0488281,9.81445312 78.8867188,10.0136719 C78.7246094,10.2128906 78.5996094,10.4550781 78.5117188,10.7402344 C78.4238281,11.0253906 78.3798828,11.3457031 78.3798828,11.7011719 C78.3798828,11.7402344 78.3808594,11.7773438 78.3828125,11.8125 C78.3847656,11.8476562 78.3876953,11.8847656 78.3916016,11.9238281 L78.3916016,11.9238281 L79.7275391,11.9238281 C79.7431641,11.2285156 79.9755859,10.8808594 80.4248047,10.8808594 C80.4873047,10.8808594 80.546875,10.8886719 80.6035156,10.9042969 C80.6601562,10.9199219 80.7197266,10.9462891 80.7822266,10.9833984 C80.8447266,11.0205078 80.9121094,11.0693359 80.984375,11.1298828 C81.0566406,11.1904297 81.1376953,11.265625 81.2275391,11.3554688 C81.3681641,11.4921875 81.5009766,11.6083984 81.6259766,11.7041016 C81.7509766,11.7998047 81.8730469,11.8779297 81.9921875,11.9384766 C82.1113281,11.9990234 82.2324219,12.0429688 82.3554688,12.0703125 C82.4785156,12.0976562 82.6064453,12.1113281 82.7392578,12.1113281 Z" id="~" fill="#FF5740" fill-rule="nonzero"></path>
                    </g>
                </g>
            </g>
        </g>
    </g>
</svg>