<svg xmlns="http://www.w3.org/2000/svg" width="60" height="60" viewBox="0 0 60 60">
    <g fill="none" fill-rule="evenodd">
        <g>
            <g>
                <g transform="translate(-622 -362) translate(380 148) translate(240 214)">
                    <circle cx="32" cy="30" r="29" fill="#FFE207" stroke="#FF5740" stroke-width="2"/>
                    <circle cx="32" cy="30" r="24.75" stroke="#FF5740" stroke-width=".5"/>
                    <g>
                        <path fill="#FF5740" d="M4.686.008l50.692.243c.933.005 1.74.655 1.942 1.566 1.003 4.51 1.504 7.724 1.504 9.642 0 1.907-.495 4.99-1.487 9.246-.212.909-1.024 1.55-1.957 1.546l-50.748-.243c-.95-.005-1.766-.677-1.951-1.609L.939 11.673 2.707 1.66C2.877.701 3.712.003 4.686.008z" transform="rotate(-15 103.16 13.404)"/>
                        <path fill="#FFE207" fill-rule="nonzero" d="M16.99 9.771c1.424-.315 2.88-.69 4.23-1.11.344-.105.644-.225.914-.42.27.195.555.315.9.42 1.38.39 2.835.72 4.245 1.05l.885-1.38c-1.44-.36-2.985-.75-4.395-1.185-.3-.09-.465-.225-.54-.465h4.35v-1.68h-4.395V3.996h-2.1v1.005H16.69v1.68h4.335c-.075.24-.225.36-.525.465-1.41.465-2.955.87-4.395 1.245l.885 1.38zm10.784 8.025v-1.53h-8.91v-.525h8.61v-3.435h-4.29v-.735h5.475v-1.53H15.61v1.53h5.475v.735H16.78v1.53h8.625v.525h-8.61v3.435h10.98zm13.755-5.805v-7.47h-2.07v2.07h-2.49v1.83h2.49v3.57h2.07zm-10.905.06c1.185-.99 2.235-1.92 3.36-2.97 1.11 1.035 1.95 1.77 3.15 2.73l1.185-1.425c-1.185-1.005-1.815-1.635-2.76-2.52-.33-.3-.525-.78-.525-1.245V4.716h-2.1v1.905c0 .465-.195.945-.525 1.245l-.363.34-.72.67c-.603.558-1.225 1.122-1.947 1.75l1.245 1.425zm10.905 5.745v-5.295h-10.5v1.83h8.43v3.465h2.07z" transform="rotate(-15 103.16 13.404)"/>
                    </g>
                </g>
            </g>
        </g>
    </g>
</svg>
