<?xml version="1.0" encoding="UTF-8"?>
<svg width="230px" height="18px" viewBox="0 0 230 18" version="1.1" xmlns="http://www.w3.org/2000/svg" xmlns:xlink="http://www.w3.org/1999/xlink">
    <title>title_02</title>
    <g id="Stamp-Event" stroke="none" stroke-width="1" fill="none" fill-rule="evenodd">
        <g id="StampEvent_02_Popup_02" transform="translate(-421.000000, -266.000000)" fill="#FFFFFF" fill-rule="nonzero">
            <g id="@-Quiz" transform="translate(380.000000, 148.000000)">
                <g id="Top" transform="translate(0.000000, 2.000000)">
                    <g id="Title_02" transform="translate(41.000000, 116.000000)">
                        <path d="M9.744,5.904 L9.744,3.28 L6.64,3.28 L6.64,1.808 L3.44,1.808 L3.44,3.28 L0.24,3.28 L0.24,5.904 L9.744,5.904 Z M13.52,16.16 L13.52,10.624 L15.2,10.624 L15.2,7.76 L13.52,7.76 L13.52,2.032 L10.384,2.032 L10.384,16.16 L13.52,16.16 Z M5.008,15.456 C7.68,15.456 9.504,14.176 9.504,12.064 L9.504,9.808 C9.504,7.648 7.68,6.336 5.008,6.336 C2.352,6.336 0.544,7.648 0.544,9.808 L0.544,12.064 C0.544,14.224 2.352,15.456 5.008,15.456 Z M5.024,12.864 C4.256,12.864 3.712,12.512 3.712,11.824 L3.712,9.984 C3.712,9.296 4.256,8.928 5.024,8.928 C5.792,8.928 6.336,9.296 6.336,9.984 L6.336,11.824 C6.336,12.512 5.792,12.864 5.024,12.864 Z M28.9244444,10.496 L28.9244444,7.936 L19.2604444,7.936 L19.2604444,7.456 L28.7644444,7.456 L28.7644444,2.192 L16.1244444,2.192 L16.1244444,4.672 L25.6284444,4.672 L25.6284444,5.152 L16.1244444,5.152 L16.1244444,10.496 L28.9244444,10.496 Z M24.1724444,16.16 L24.1724444,13.728 L29.5004444,13.728 L29.5004444,11.04 L15.3884444,11.04 L15.3884444,13.728 L20.7164444,13.728 L20.7164444,16.16 L24.1724444,16.16 Z M44.1528889,16.16 L44.1528889,2.032 L41.2088889,2.032 L41.2088889,16.16 L44.1528889,16.16 Z M40.6488889,16.032 L40.6488889,2.08 L37.7368889,2.08 L37.7368889,6.96 L36.9688889,6.96 L36.9688889,5.68 C36.9688889,3.44 35.6088889,2.112 33.5608889,2.128 C31.5128889,2.112 30.1528889,3.44 30.1528889,5.68 L30.1528889,11.92 C30.1528889,14.16 31.5128889,15.488 33.5608889,15.472 C35.6088889,15.488 36.9688889,14.16 36.9688889,11.92 L36.9688889,9.824 L37.7368889,9.824 L37.7368889,16.032 L40.6488889,16.032 Z M33.5608889,12.784 C33.1928889,12.784 33.0328889,12.416 33.0328889,12 L33.0328889,5.6 C33.0328889,5.184 33.1928889,4.816 33.5608889,4.816 C33.9288889,4.816 34.0888889,5.184 34.0888889,5.6 L34.0888889,12 C34.0888889,12.416 33.9288889,12.784 33.5608889,12.784 Z M51.4097778,5.872 C52.2737778,5.872 52.9297778,5.248 52.9297778,4.416 C52.9297778,3.648 52.4017778,3.072 51.6977778,3.168 C51.5537778,3.184 51.4897778,3.168 51.5377778,3.008 C51.7617778,2.448 52.2897778,1.984 52.8657778,1.696 L52.1617778,0.896 C50.7857778,1.504 49.8097778,2.656 49.8097778,4.032 C49.8097778,5.104 50.5617778,5.872 51.4097778,5.872 Z M66.7022222,9.952 L66.7022222,7.232 L68.1902222,7.232 L68.1902222,4.544 L66.7022222,4.544 L66.7022222,2.032 L63.7262222,2.032 L63.7262222,9.952 L66.7022222,9.952 Z M63.2302222,9.632 L63.2302222,7.056 L61.3262222,7.056 L61.3262222,4.768 L62.8462222,4.768 L62.8462222,2.192 L58.4462222,2.192 L58.4462222,9.632 L63.2302222,9.632 Z M58.0622222,9.632 L58.0622222,7.056 L56.5262222,7.056 L56.5262222,4.768 L57.8862222,4.768 L57.8862222,2.192 L53.6462222,2.192 L53.6462222,9.632 L58.0622222,9.632 Z M66.7022222,16.24 L66.7022222,10.432 L54.6222222,10.432 L54.6222222,13.056 L63.5662222,13.056 L63.5662222,16.24 L66.7022222,16.24 Z M69.0826667,6.032 C70.4586667,5.424 71.4346667,4.272 71.4346667,2.896 C71.4346667,1.824 70.6826667,1.056 69.8346667,1.056 C68.9706667,1.056 68.3146667,1.68 68.3146667,2.512 C68.3146667,3.28 68.8426667,3.856 69.5466667,3.76 C69.6906667,3.744 69.7546667,3.76 69.7066667,3.92 C69.4826667,4.48 68.9546667,4.944 68.3786667,5.232 L69.0826667,6.032 Z M81.9591111,5.008 L81.9591111,2.864 L78.9511111,2.864 L78.9511111,1.504 L75.7671111,1.504 L75.7671111,2.864 L72.6951111,2.864 L72.6951111,5.008 L81.9591111,5.008 Z M85.9111111,12.48 L85.9111111,8.656 L87.4791111,8.656 L87.4791111,5.968 L85.9111111,5.968 L85.9111111,2.032 L82.7751111,2.032 L82.7751111,12.48 L85.9111111,12.48 Z M78.8871111,10.944 C80.6471111,10.944 81.7511111,9.744 81.7511111,8.192 C81.7511111,6.64 80.6471111,5.44 78.8871111,5.44 L75.7511111,5.44 C73.9911111,5.44 72.8871111,6.64 72.8871111,8.192 C72.8871111,9.744 73.9911111,10.944 75.7511111,10.944 L78.8871111,10.944 Z M78.0711111,8.784 L76.5671111,8.784 C76.1991111,8.784 75.9911111,8.544 75.9911111,8.192 C75.9911111,7.84 76.1991111,7.6 76.5671111,7.6 L78.0711111,7.6 C78.4391111,7.6 78.6471111,7.84 78.6471111,8.192 C78.6471111,8.544 78.4391111,8.784 78.0711111,8.784 Z M85.9911111,16.16 L85.9911111,13.856 L76.9511111,13.856 L76.9511111,11.536 L73.8151111,11.536 L73.8151111,16.16 L85.9911111,16.16 Z M105.36,12.24 L105.36,2.032 L102.224,2.032 L102.224,4.976 L100.496,4.976 L100.496,2.112 L97.36,2.112 L97.36,3.648 L95.2,3.648 L95.2,2.112 L92.064,2.112 L92.064,10.272 L100.496,10.272 L100.496,7.664 L102.224,7.664 L102.224,12.24 L105.36,12.24 Z M97.36,7.696 L95.2,7.696 L95.2,6.192 L97.36,6.192 L97.36,7.696 Z M105.44,16.16 L105.44,13.616 L96.4,13.616 L96.4,11.056 L93.264,11.056 L93.264,16.16 L105.44,16.16 Z M108.684444,17.664 L110.108444,12.56 L106.924444,12.56 L106.284444,17.664 L108.684444,17.664 Z M128.549333,7.376 L129.045333,5.456 C127.365333,5.184 125.429333,4.864 123.829333,4.48 C123.749333,4.464 123.717333,4.448 123.701333,4.4 L128.357333,4.4 L128.357333,2.512 L123.813333,2.512 L123.813333,1.648 L120.133333,1.648 L120.133333,2.512 L115.605333,2.512 L115.605333,4.4 L120.229333,4.4 C120.213333,4.448 120.181333,4.464 120.117333,4.48 C118.517333,4.88 116.581333,5.184 114.901333,5.456 L115.397333,7.376 C117.669333,7.088 119.797333,6.672 121.973333,6.208 C124.149333,6.672 126.277333,7.088 128.549333,7.376 Z M128.453333,16.144 L128.453333,14.288 L118.789333,14.288 L118.789333,13.808 L128.293333,13.808 L128.293333,9.952 L123.765333,9.952 L123.765333,9.424 L129.029333,9.424 L129.029333,7.504 L114.917333,7.504 L114.917333,9.424 L120.181333,9.424 L120.181333,9.952 L115.653333,9.952 L115.653333,11.76 L125.157333,11.76 L125.157333,12.224 L115.653333,12.224 L115.653333,16.144 L128.453333,16.144 Z M131.153778,9.952 C132.401778,9.008 133.409778,8.224 134.401778,7.264 C135.377778,8.256 136.449778,9.056 137.553778,9.888 L139.377778,7.92 C138.273778,7.008 137.281778,6.176 136.433778,5.2 C136.161778,4.896 136.081778,4.56 136.081778,4.16 L136.081778,2.032 L132.721778,2.032 L132.721778,4.08 C132.721778,4.528 132.641778,4.8 132.369778,5.12 C131.521778,6.08 130.433778,6.976 129.249778,7.936 L131.153778,9.952 Z M143.377778,9.952 L143.377778,2.032 L140.241778,2.032 L140.241778,3.392 L137.857778,3.392 L137.857778,5.984 L140.241778,5.984 L140.241778,9.952 L143.377778,9.952 Z M143.377778,16.24 L143.377778,10.432 L131.297778,10.432 L131.297778,13.056 L140.241778,13.056 L140.241778,16.24 L143.377778,16.24 Z M158.718222,15.648 L158.718222,12.96 L153.390222,12.96 L153.390222,10.96 L157.982222,10.96 L157.982222,8.272 L148.638222,8.272 L148.638222,5.04 L157.822222,5.04 L157.822222,2.352 L145.502222,2.352 L145.502222,10.96 L149.934222,10.96 L149.934222,12.96 L144.606222,12.96 L144.606222,15.648 L158.718222,15.648 Z M172.506667,9.648 L172.506667,6.928 L174.074667,6.928 L174.074667,4.24 L172.506667,4.24 L172.506667,2.032 L169.370667,2.032 L169.370667,9.648 L172.506667,9.648 Z M160.586667,9.76 C161.834667,9.088 163.002667,8.368 164.042667,7.616 C165.050667,8.336 166.010667,8.928 167.242667,9.6 L168.906667,7.648 C167.882667,7.024 166.826667,6.32 165.978667,5.6 C165.706667,5.376 165.706667,5.136 165.706667,4.832 L168.474667,4.832 L168.474667,2.192 L159.642667,2.192 L159.642667,4.832 L162.346667,4.832 C162.346667,5.232 162.314667,5.44 161.962667,5.712 C161.114667,6.368 160.058667,7.04 158.938667,7.68 L160.586667,9.76 Z M169.786667,16.416 C172.010667,16.416 173.050667,14.928 173.050667,13.216 C173.050667,11.504 172.058667,10.016 169.834667,10.016 L163.242667,10.016 C161.018667,10.016 160.026667,11.504 160.026667,13.216 C160.026667,14.928 160.970667,16.416 163.194667,16.416 L169.786667,16.416 Z M169.114667,13.808 L163.962667,13.808 C163.466667,13.808 163.162667,13.568 163.162667,13.216 C163.162667,12.848 163.450667,12.608 163.962667,12.608 L169.114667,12.608 C169.626667,12.608 169.914667,12.848 169.914667,13.216 C169.914667,13.568 169.610667,13.808 169.114667,13.808 Z M180.227556,5.872 C181.091556,5.872 181.747556,5.248 181.747556,4.416 C181.747556,3.648 181.219556,3.072 180.515556,3.168 C180.371556,3.184 180.307556,3.168 180.355556,3.008 C180.579556,2.448 181.107556,1.984 181.683556,1.696 L180.979556,0.896 C179.603556,1.504 178.627556,2.656 178.627556,4.032 C178.627556,5.104 179.379556,5.872 180.227556,5.872 Z M195.76,16.24 L195.76,10.992 L191.232,10.992 L191.232,9.776 L196.496,9.776 L196.496,7.344 L195.68,7.344 L195.68,2.08 L189.44,2.08 L189.44,4.528 L192.544,4.528 L192.544,7.344 L188.96,7.344 L188.96,2.08 L182.88,2.08 L182.88,4.528 L185.824,4.528 L185.824,7.344 L182.384,7.344 L182.384,9.776 L187.648,9.776 L187.648,10.992 L183.12,10.992 L183.12,13.424 L192.624,13.424 L192.624,16.24 L195.76,16.24 Z M197.900444,6.032 C199.276444,5.424 200.252444,4.272 200.252444,2.896 C200.252444,1.824 199.500444,1.056 198.652444,1.056 C197.788444,1.056 197.132444,1.68 197.132444,2.512 C197.132444,3.28 197.660444,3.856 198.364444,3.76 C198.508444,3.744 198.572444,3.76 198.524444,3.92 C198.300444,4.48 197.772444,4.944 197.196444,5.232 L197.900444,6.032 Z M210.872889,5.904 L210.872889,3.28 L207.768889,3.28 L207.768889,1.808 L204.568889,1.808 L204.568889,3.28 L201.368889,3.28 L201.368889,5.904 L210.872889,5.904 Z M214.648889,16.16 L214.648889,10.624 L216.328889,10.624 L216.328889,7.76 L214.648889,7.76 L214.648889,2.032 L211.512889,2.032 L211.512889,16.16 L214.648889,16.16 Z M206.136889,15.456 C208.808889,15.456 210.632889,14.176 210.632889,12.064 L210.632889,9.808 C210.632889,7.648 208.808889,6.336 206.136889,6.336 C203.480889,6.336 201.672889,7.648 201.672889,9.808 L201.672889,12.064 C201.672889,14.224 203.480889,15.456 206.136889,15.456 Z M206.152889,12.864 C205.384889,12.864 204.840889,12.512 204.840889,11.824 L204.840889,9.984 C204.840889,9.296 205.384889,8.928 206.152889,8.928 C206.920889,8.928 207.464889,9.296 207.464889,9.984 L207.464889,11.824 C207.464889,12.512 206.920889,12.864 206.152889,12.864 Z M230.053333,16.16 L230.053333,2.032 L226.917333,2.032 L226.917333,16.16 L230.053333,16.16 Z M218.437333,15.408 C220.437333,13.728 222.581333,11.696 224.149333,9.808 C224.837333,8.992 225.173333,7.984 225.173333,6.96 L225.173333,2.272 L216.997333,2.272 L216.997333,4.96 L222.021333,4.96 L222.021333,6.544 C222.021333,7.296 221.781333,7.888 221.365333,8.4 C220.005333,10.048 218.293333,11.68 216.405333,13.312 L218.437333,15.408 Z" id="하루에‘딱’한번,출석도장‘꾹’하기"></path>
                    </g>
                </g>
            </g>
        </g>
    </g>
</svg>