<svg xmlns="http://www.w3.org/2000/svg" width="1200" height="88" viewBox="0 0 1200 88">
    <g fill="none" fill-rule="evenodd">
        <g>
            <g>
                <g>
                    <g>
                        <path fill="#53BC64" fill-rule="nonzero" d="M1 66v6h4v2H1v6h-2V66h2zm535 0v14h-2V66h2zM13 72v2H7v-2h6zm8 0v2h-6v-2h6zm8 0v2h-6v-2h6zm8 0v2h-6v-2h6zm8 0v2h-6v-2h6zm8 0v2h-6v-2h6zm8 0v2h-6v-2h6zm8 0v2h-6v-2h6zm8 0v2h-6v-2h6zm8 0v2h-6v-2h6zm8 0v2h-6v-2h6zm8 0v2h-6v-2h6zm8 0v2h-6v-2h6zm8 0v2h-6v-2h6zm8 0v2h-6v-2h6zm8 0v2h-6v-2h6zm8 0v2h-6v-2h6zm8 0v2h-6v-2h6zm8 0v2h-6v-2h6zm8 0v2h-6v-2h6zm8 0v2h-6v-2h6zm8 0v2h-6v-2h6zm8 0v2h-6v-2h6zm8 0v2h-6v-2h6zm8 0v2h-6v-2h6zm8 0v2h-6v-2h6zm8 0v2h-6v-2h6zm8 0v2h-6v-2h6zm8 0v2h-6v-2h6zm8 0v2h-6v-2h6zm8 0v2h-6v-2h6zm8 0v2h-6v-2h6zm8 0v2h-6v-2h6zm8 0v2h-6v-2h6zm8 0v2h-6v-2h6zm8 0v2h-6v-2h6zm8 0v2h-6v-2h6zm8 0v2h-6v-2h6zm8 0v2h-6v-2h6zm8 0v2h-6v-2h6zm8 0v2h-6v-2h6zm8 0v2h-6v-2h6zm8 0v2h-6v-2h6zm8 0v2h-6v-2h6zm8 0v2h-6v-2h6zm8 0v2h-6v-2h6zm8 0v2h-6v-2h6zm8 0v2h-6v-2h6zm8 0v2h-6v-2h6zm8 0v2h-6v-2h6zm8 0v2h-6v-2h6zm8 0v2h-6v-2h6zm8 0v2h-6v-2h6zm8 0v2h-6v-2h6zm8 0v2h-6v-2h6zm8 0v2h-6v-2h6zm8 0v2h-6v-2h6zm8 0v2h-6v-2h6zm8 0v2h-6v-2h6zm8 0v2h-6v-2h6zm8 0v2h-6v-2h6zm8 0v2h-6v-2h6zm8 0v2h-6v-2h6zm8 0v2h-6v-2h6zm8 0v2h-6v-2h6zm8 0v2h-6v-2h6z" transform="translate(-100.000000, -804.000000) translate(100.000000, 725.000000) translate(0.000000, 79.000000) translate(116.000000, 0.000000)"/>
                        <text fill="#222" font-family="NotoSansCJKkr-Bold, Noto Sans CJK KR" font-size="20" font-weight="bold" letter-spacing="-.5" transform="translate(-100.000000, -804.000000) translate(100.000000, 725.000000) translate(0.000000, 79.000000) translate(116.000000, 0.000000)">
                            <tspan x="181" y="23">Geopolitics &amp; Biz.</tspan>
                        </text>
                        <path fill="#53BC64" fill-rule="nonzero" d="M268.5 69v4h-2v-4h2zm0-6v4h-2v-4h2zm0-6v4h-2v-4h2zm0-6v4h-2v-4h2zm-1-18c3.866 0 7 3.134 7 7 0 3.526-2.607 6.443-5.999 6.929L268.5 49h-2v-2.07c-3.392-.486-6-3.404-6-6.93 0-3.866 3.134-7 7-7z" transform="translate(-100.000000, -804.000000) translate(100.000000, 725.000000) translate(0.000000, 79.000000) translate(116.000000, 0.000000)"/>
                        <path fill="#AFBD44" fill-rule="nonzero" d="M549 66v6h4v2h-4v6h-2V66h2zm535 0v14h-2V66h2zm-523 6v2h-6v-2h6zm8 0v2h-6v-2h6zm8 0v2h-6v-2h6zm8 0v2h-6v-2h6zm8 0v2h-6v-2h6zm8 0v2h-6v-2h6zm8 0v2h-6v-2h6zm8 0v2h-6v-2h6zm8 0v2h-6v-2h6zm8 0v2h-6v-2h6zm8 0v2h-6v-2h6zm8 0v2h-6v-2h6zm8 0v2h-6v-2h6zm8 0v2h-6v-2h6zm8 0v2h-6v-2h6zm8 0v2h-6v-2h6zm8 0v2h-6v-2h6zm8 0v2h-6v-2h6zm8 0v2h-6v-2h6zm8 0v2h-6v-2h6zm8 0v2h-6v-2h6zm8 0v2h-6v-2h6zm8 0v2h-6v-2h6zm8 0v2h-6v-2h6zm8 0v2h-6v-2h6zm8 0v2h-6v-2h6zm8 0v2h-6v-2h6zm8 0v2h-6v-2h6zm8 0v2h-6v-2h6zm8 0v2h-6v-2h6zm8 0v2h-6v-2h6zm8 0v2h-6v-2h6zm8 0v2h-6v-2h6zm8 0v2h-6v-2h6zm8 0v2h-6v-2h6zm8 0v2h-6v-2h6zm8 0v2h-6v-2h6zm8 0v2h-6v-2h6zm8 0v2h-6v-2h6zm8 0v2h-6v-2h6zm8 0v2h-6v-2h6zm8 0v2h-6v-2h6zm8 0v2h-6v-2h6zm8 0v2h-6v-2h6zm8 0v2h-6v-2h6zm8 0v2h-6v-2h6zm8 0v2h-6v-2h6zm8 0v2h-6v-2h6zm8 0v2h-6v-2h6zm8 0v2h-6v-2h6zm8 0v2h-6v-2h6zm8 0v2h-6v-2h6zm8 0v2h-6v-2h6zm8 0v2h-6v-2h6zm8 0v2h-6v-2h6zm8 0v2h-6v-2h6zm8 0v2h-6v-2h6zm8 0v2h-6v-2h6zm8 0v2h-6v-2h6zm8 0v2h-6v-2h6zm8 0v2h-6v-2h6zm8 0v2h-6v-2h6zm8 0v2h-6v-2h6zm8 0v2h-6v-2h6zm8 0v2h-6v-2h6zm8 0v2h-6v-2h6z" transform="translate(-100.000000, -804.000000) translate(100.000000, 725.000000) translate(0.000000, 79.000000) translate(116.000000, 0.000000)"/>
                        <text fill="#222" font-family="NotoSansCJKkr-Bold, Noto Sans CJK KR" font-size="20" font-weight="bold" letter-spacing="-.5" transform="translate(-100.000000, -804.000000) translate(100.000000, 725.000000) translate(0.000000, 79.000000) translate(116.000000, 0.000000)">
                            <tspan x="712.5" y="23">Managing Global Biz.</tspan>
                        </text>
                        <path fill="#AFBD44" fill-rule="nonzero" d="M816.5 69v4h-2v-4h2zm0-6v4h-2v-4h2zm0-6v4h-2v-4h2zm0-6v4h-2v-4h2zm-1-18c3.866 0 7 3.134 7 7 0 3.526-2.607 6.443-5.999 6.929L816.5 49h-2v-2.07c-3.392-.486-6-3.404-6-6.93 0-3.866 3.134-7 7-7z" transform="translate(-100.000000, -804.000000) translate(100.000000, 725.000000) translate(0.000000, 79.000000) translate(116.000000, 0.000000)"/>
                    </g>
                </g>
            </g>
        </g>
    </g>
</svg>
