<?xml version="1.0" encoding="UTF-8"?>
<svg width="24px" height="24px" viewBox="0 0 24 24" version="1.1" xmlns="http://www.w3.org/2000/svg" xmlns:xlink="http://www.w3.org/1999/xlink">
    <title>F2DED676-A625-44C9-B49F-F6D71534DF53</title>
    <g id="Note" stroke="none" stroke-width="1" fill="none" fill-rule="evenodd">
        <g id="Note_Mypage_03_Note_01_All(54-10-00)_open" transform="translate(-1151.000000, -648.000000)" fill="#6C788F" fill-rule="nonzero">
            <g id="search" transform="translate(100.000000, 398.000000)">
                <g id="small-title" transform="translate(0.000000, 246.000000)">
                    <g id="btn-/-list-/-excel-/-download-/-all" transform="translate(1036.000000, 0.000000)">
                        <g id="icon-/-24px-/-excel" transform="translate(15.000000, 4.000000)">
                            <g id="Group-15" transform="translate(3.000000, 3.000000)">
                                <g id="Group-18" transform="translate(0.000000, 4.000000)">
                                    <path d="M10,0 L10,10 L0,10 L0,0 L10,0 Z M4.241,2 L2,2 L3.87969739,4.99961923 L2,8 L4.24,8 L5.00069739,6.78761923 L5.76,8 L8,8 L6.12069739,4.99961923 L8,2 L5.759,2 L5.00069739,3.21161923 L4.241,2 Z" id="Combined-Shape"></path>
                                </g>
                                <rect id="Rectangle" x="3" y="0" width="2" height="3"></rect>
                                <rect id="Rectangle-Copy-28" x="3" y="15" width="2" height="3"></rect>
                                <rect id="Rectangle-Copy-9" x="16" y="0" width="2" height="16"></rect>
                                <rect id="Rectangle-Copy-16" x="5" y="0" width="13" height="2"></rect>
                                <rect id="Rectangle-Copy-31" x="11" y="5" width="4" height="2"></rect>
                                <rect id="Rectangle-Copy-32" x="11" y="8" width="4" height="2"></rect>
                                <rect id="Rectangle-Copy-33" x="11" y="11" width="4" height="2"></rect>
                                <rect id="Rectangle-Copy-18" x="4" y="16" width="14" height="2"></rect>
                            </g>
                        </g>
                    </g>
                </g>
            </g>
        </g>
    </g>
</svg>