<?xml version="1.0" encoding="UTF-8"?>
<svg width="24px" height="24px" viewBox="0 0 24 24" version="1.1" xmlns="http://www.w3.org/2000/svg" xmlns:xlink="http://www.w3.org/1999/xlink">
    <title>B42447E3-A7A2-4355-A509-B6AEBFF5B7FE</title>
    <defs>
        <path d="M9,0 C13.9705627,0 18,4.02943725 18,9 C18,13.9705627 13.9705627,18 9,18 C4.02943725,18 0,13.9705627 0,9 C0,4.02943725 4.02943725,0 9,0 Z M9,3 C5.6862915,3 3,5.6862915 3,9 C3,12.3137085 5.6862915,15 9,15 C12.3137085,15 15,12.3137085 15,9 C15,5.6862915 12.3137085,3 9,3 Z" id="path-1"></path>
    </defs>
    <g id="Symbols_assets" stroke="none" stroke-width="1" fill="none" fill-rule="evenodd">
        <g id="icon_20" transform="translate(3.000000, 3.000000)">
            <path d="M9,0 L9,3 L9,3 C5.6862915,3 3,5.6862915 3,9 C3,12.3137085 5.6862915,15 9,15 C12.3137085,15 15,12.3137085 15,9 C15,8.33689093 14.8924292,7.69890636 14.6937859,7.10254472 L17.5407736,6.15410146 C17.838678,7.04856237 18,8.00544179 18,9 C18,13.9705627 13.9705627,18 9,18 C4.02943725,18 0,13.9705627 0,9 C0,4.02943725 4.02943725,0 9,0 Z" id="off" fill="#CBCFE1"></path>
            <g id="on">
                <mask id="mask-2" fill="white">
                    <use xlink:href="#path-1"></use>
                </mask>
                <use id="Combined-Shape" fill="#CFCFCF" xlink:href="#path-1"></use>
                <polygon id="Rectangle" fill="#FF664D" mask="url(#mask-2)" points="9 -3 21 -3 21 5 9 9"></polygon>
            </g>
        </g>
    </g>
</svg>