<?xml version="1.0" encoding="UTF-8"?>
<svg width="90px" height="90px" viewBox="0 0 90 90" version="1.1" xmlns="http://www.w3.org/2000/svg" xmlns:xlink="http://www.w3.org/1999/xlink">
    <title>18B67D2F-B543-4606-BBE2-ED8EB436D841</title>
    <defs>
        <circle id="path-1" cx="45" cy="45" r="45"></circle>
    </defs>
    <g id="Stamp-Event" stroke="none" stroke-width="1" fill="none" fill-rule="evenodd">
        <g id="StampEvent_02_Popup_06_B" transform="translate(-655.000000, -285.000000)">
            <g id="End" transform="translate(385.000000, 153.000000)">
                <g id="남자" transform="translate(270.000000, 132.000000)">
                    <mask id="mask-2" fill="white">
                        <use xlink:href="#path-1"></use>
                    </mask>
                    <circle stroke="#222222" cx="45" cy="45" r="44.5"></circle>
                    <g mask="url(#mask-2)">
                        <g transform="translate(10.608696, 17.000000)">
                            <path d="M46.7767019,31.2793382 L49.189161,31.98498 C56.0192602,33.9820399 71.159863,38.7892461 74.9647655,44.8914316 L81,104.290522 C61.4982228,111.439619 47.3800743,115.306806 38.6455544,115.892082 C29.3800743,116.512937 16.4982228,114.454947 0,109.718112 C0,109.718112 27.0973191,83.8783119 23.887469,66.7182928 C20.6776188,49.5587949 19.4422608,38.6484478 32.9953083,31 L46.7767019,31.2793382 Z" id="Fill-20" stroke="none" fill="#504C5D"></path>
                            <polygon id="Fill-22" stroke="none" fill="#F5A0A9" points="43 31.767459 28.5 36 28 28 26.011444 22.9497508 26 18 39.5710272 18"></polygon>
                            <polygon id="Fill-24" stroke="none" fill="#212123" points="36 24 28.2676906 30 27 24.9641625"></polygon>
                            <path d="M41.8085318,15.9290817 C41.0126546,20.5858674 37.7830447,24.7984911 33.3360619,26.3753433 C27.402192,28.4798621 21.5438063,25.0940868 20.2529756,18.8128052 C18.9636646,12.5294744 22.7292631,5.7292353 28.6651594,3.62420421 C28.9625368,3.5186709 29.258901,3.42850651 29.5557719,3.34910037 C35.1755464,1.86702324 40.5212473,5.22103602 41.7462193,11.1887915 C42.0704468,12.7630822 42.0760195,14.3722091 41.8085318,15.9290817" id="Fill-26" stroke="none" fill="#F5A0A9" transform="translate(31.000000, 15.000000) rotate(-19.000000) translate(-31.000000, -15.000000) "></path>
                            <path d="M42.6280231,18 C32.6790155,13.8000746 31.3393898,3.00754589 31,0.751671432 C31,0.749455989 31,0.749455989 31.0004483,0.747240547 C36.7539346,-1.36407628 42.9660678,0.906198555 43.8752917,8.74055754 C44.3308003,12.661891 43.4525116,16.1501054 42.6280231,18" id="Fill-28" stroke="none" fill="#212123"></path>
                            <path d="M44.9899342,16.8164883 C44.8346261,19.295577 42.9223662,21.1633976 40.7187318,20.988676 C38.5150974,20.8139544 36.8543542,18.662662 37.0101205,16.1830579 C37.1649705,13.7044846 39.0776885,11.8361485 41.2813229,12.0113856 C43.4849573,12.1861072 45.1452423,14.3368842 44.9899342,16.8164883" id="Fill-30" stroke="none" fill="#F5A0A9"></path>
                            <path d="M39.7157025,18 C39.659777,18 39.6038516,17.9753851 39.5637311,17.9282773 C38.7402489,16.9508959 38.8294054,15.4540552 39.7627123,14.5912604 C40.2145739,14.172807 40.7953072,13.9686731 41.3971139,14.0038979 C41.9989205,14.0433666 42.5500701,14.3260136 42.9492482,14.7992139 C43.0234103,14.8870636 43.0153051,15.0211724 42.9314169,15.0988366 C42.847934,15.1765009 42.7198728,15.168013 42.6453055,15.0801633 C42.3178578,14.6914176 41.865591,14.459698 41.3719879,14.4278684 C40.8791954,14.3922192 40.4018026,14.5662211 40.0309925,14.9095565 C39.2650567,15.6174472 39.1917052,16.8452216 39.8676739,17.6473279 C39.9418359,17.7351776 39.9337308,17.8692864 39.8498426,17.9469506 C39.8113432,17.9825998 39.7635228,18 39.7157025,18" id="Fill-32" stroke="none" fill="#212123"></path>
                            <path d="M32.9974671,14.070301 C32.9584872,14.6215867 32.4802877,15.0364431 31.929697,14.9974633 C31.3791063,14.9584835 30.963553,14.480981 31.0025329,13.9296953 C31.0415128,13.3791056 31.5190162,12.9635531 32.070303,13.0025329 C32.6208937,13.0408166 33.036447,13.5197113 32.9974671,14.070301" id="Fill-34" stroke="none" fill="#212123"></path>
                            <path d="M24.9974671,14.0703047 C24.9584872,14.6208944 24.4802877,15.0364469 23.929697,14.9974671 C23.3791063,14.9577912 22.963553,14.4802887 23.0025329,13.929699 C23.0415128,13.3784133 23.5190162,12.9635569 24.070303,13.0025367 C24.6208937,13.0408204 25.036447,13.519019 24.9974671,14.0703047" id="Fill-36" stroke="none" fill="#212123"></path>
                            <path d="M27.3727381,18 C27.3368878,18 27.2999983,17.9924819 27.2651871,17.9774458 C26.5944227,17.6827374 25.8956014,17.4331375 25.187428,17.2351616 C25.1089729,17.2131086 25.0455854,17.1559712 25.0164895,17.0827954 C24.9879132,17.0086171 24.9967459,16.9259183 25.0409093,16.8597593 C25.8665055,15.6102559 26.6931409,14.3627573 27.5218546,13.11576 C27.5987509,12.9984781 27.7592979,12.9648973 27.8803576,13.040078 C28.0014174,13.1142563 28.0362286,13.2696298 27.9588127,13.3859093 C27.1924474,14.5401838 26.4271212,15.6944583 25.6628342,16.8497352 C26.2821613,17.0376869 26.8921361,17.2627278 27.4808086,17.5213495 C27.6112205,17.5784868 27.6688928,17.7273446 27.6096618,17.853147 C27.566018,17.9458699 27.4714563,18 27.3727381,18" id="Fill-40" stroke="none" fill="#212123"></path>
                            <path d="M30.8227939,10.2676276 C31.3956034,10.1462051 31.9455811,10.2579994 32.4257203,10.454308 C32.9011589,10.6575703 33.3369776,10.9405328 33.5861128,11.3566856 C33.6707248,11.4984343 33.5955141,11.6669281 33.418232,11.7343256 C33.3497366,11.7605357 33.2751975,11.7680243 33.205359,11.7583961 L33.1905855,11.7562565 C32.6647827,11.6851147 32.2578395,11.5492499 31.8448526,11.4101757 C31.4358948,11.263078 31.0504404,11.1084916 30.6622998,10.8052029 L30.6481978,10.79397 C30.4930759,10.6730824 30.4910613,10.4746342 30.6428256,10.3510721 C30.6945329,10.3098847 30.7576561,10.281535 30.8227939,10.2676276" id="Fill-44" stroke="none" fill="#212123" transform="translate(32.075639, 10.989810) rotate(-21.000000) translate(-32.075639, -10.989810) "></path>
                            <path d="M23.0966632,10.2676276 C23.6694727,10.1462051 24.2194504,10.2579994 24.6995896,10.454308 C25.1750282,10.6575703 25.6108469,10.9405328 25.8599821,11.3566856 C25.944594,11.4984343 25.8693834,11.6669281 25.6921012,11.7343256 C25.6236058,11.7605357 25.5490667,11.7680243 25.4792283,11.7583961 L25.4644548,11.7562565 C24.938652,11.6851147 24.5317088,11.5492499 24.1187218,11.4101757 C23.7097641,11.263078 23.3243096,11.1084916 22.9361691,10.8052029 L22.9220671,10.79397 C22.7669452,10.6730824 22.7649306,10.4746342 22.9166949,10.3510721 C22.9684022,10.3098847 23.0315254,10.281535 23.0966632,10.2676276" id="Fill-44" stroke="none" fill="#212123" transform="translate(24.349508, 10.989810) rotate(-21.000000) translate(-24.349508, -10.989810) "></path>
                            <path d="M26,18.7295507 L31,18 C31,18 30.4328119,20.7961149 29.2713388,20.9891728 C28.1092499,21.1822308 26,18.7295507 26,18.7295507" id="Fill-46" stroke="none" fill="#B54757"></path>
                            <path d="M32,0.775915136 C28.4636943,-0.614699253 23.7661279,-0.0943720646 20.9175511,2.00231279 C20.1674506,2.55462226 19.532245,3.2127193 19.2130009,3.96368797 C18.8937568,4.7140416 18.9142738,5.56403235 19.4050398,6.26087715 C19.9442259,7.02660688 20.9938743,7.53647832 22.1042529,7.77757555 C23.2138109,8.01805774 26,8.01805774 27.6989082,7.51655572" id="Fill-48" stroke="none" fill="#212123"></path>
                            <path d="M30.803606,0.948496523 C28.2123061,2.05631852 26.0738504,3.18394826 26.0021504,5.3042338 C25.968825,6.3077375 26.3192463,7.36180037 27.3048693,8.07602876 C28.52377,8.9598544 30.4899667,9.15313126 32.2188465,8.89329548 C33.3135344,8.73009813 34.4304391,8.36466407 35,7.68371513 L30.803606,0.948496523 Z" id="Fill-50" stroke="none" fill="#212123"></path>
                            <path d="M35.3223155,37.4111065 C35.3223155,37.4111065 36.8389239,47.8279864 35.3345386,56.9190524 C33.8306234,66.0101184 31.8203885,71 31.8203885,71 C22.6638531,48.2533183 27.0500766,35.4296173 27.0500766,35.4296173 L30.5214458,35 L35.3223155,37.4111065 Z" id="Fill-52" stroke="none" fill="#FFFFFF"></path>
                            <polygon id="Path-10" stroke="none" fill="#75D1E0" points="31.6591636 40.8998761 35.4581199 58 34.3913043 62.3766825 30.5 58 28.9533054 40.8778886"></polygon>
                            <polygon id="Fill-54" stroke="#504C5D" stroke-width="0.5" fill="#FFFFFF" points="28.5 32.3401848 26.3494541 34.0110885 26 41 30.1161919 35.5286258"></polygon>
                            <polygon id="Fill-58" stroke="none" fill="#75D1E0" points="28 38.4819364 29.3459781 41 31.6591636 40.8998761 33 38.1340834 30.2594835 36"></polygon>
                            <polygon id="Fill-56" stroke="#504C5D" stroke-width="0.5" fill="#FFFFFF" points="30 35.4854096 36.1635532 41 48 31.8807944 42.9048099 28"></polygon>
                            <g id="손" stroke="none" stroke-width="1" fill="none" transform="translate(19.079838, 48.107581) scale(-1, 1) rotate(3.000000) translate(-19.079838, -48.107581) translate(9.997894, 34.829139)">
                                <path d="M6.23843425,24.8000815 C3.49448242,22.1361635 2.24806267,18.7116534 2.49917499,14.5265511 C2.68206106,11.478525 6.73537887,7.41596865 10.2349108,8.11805038 C11.9606993,8.46428086 14.5458723,12.5872247 14.4867454,14.1626314 C14.4066312,16.2972348 14.3078891,17.2188722 14.2560055,18.2359146 C14.2100488,19.1367762 15.500469,20.7934859 15.6962934,21.7994169 L6.23843425,24.8000815 Z" id="Path-8" fill="#EB8893" transform="translate(9.081944, 16.419030) rotate(20.000000) translate(-9.081944, -16.419030) "></path>
                                <rect id="Rectangle" fill="#F5A0A9" x="3.29758715" y="5.31733611" width="3" height="12" rx="1.5"></rect>
                                <rect id="Rectangle" fill="#F5A0A9" x="5.04245032" y="1.58163638" width="3" height="12" rx="1.5"></rect>
                                <rect id="Rectangle" fill="#EB8893" x="7.38732268" y="0" width="3" height="12" rx="1.5"></rect>
                                <rect id="Rectangle" fill="#EB8893" transform="translate(11.746844, 8.593268) rotate(-4.000000) translate(-11.746844, -8.593268) " x="10.2468443" y="2.59326808" width="3" height="12" rx="1.5"></rect>
                                <path d="M4.86139022,5.35408175 C5.51923239,8.60501492 5.60916657,10.9904854 5.13119274,12.5104933" id="Path-9" stroke="#212123" stroke-width="0.5" stroke-linecap="round"></path>
                                <path d="M7.39707157,1.79081819 C8.10637623,6.55747505 8.22204165,9.89080838 7.74406782,11.7908182" id="Path-9-Copy" stroke="#212123" stroke-width="0.5" stroke-linecap="round"></path>
                                <path d="M10.6481573,2.99906387 C11.2456149,6.19773172 11.3053567,8.65207005 10.8273829,10.3620789" id="Path-9-Copy-2" stroke="#212123" stroke-width="0.5" stroke-linecap="round"></path>
                                <path d="M13.229519,9.05674164 C13.6407699,10.2543176 13.730037,11.4517169 13.4973205,12.6489396 C13.264604,13.8461622 13.1108801,14.9969151 13.0361488,16.1011983" id="Path-9-Copy-2" stroke="#212123" stroke-width="0.5" stroke-linecap="round"></path>
                            </g>
                            <polygon id="Path-3" stroke="none" fill="#504C5D" points="13.5536587 57 22.6300355 58.8696858 23 72.9484965 13.5536587 71"></polygon>
                            <g id="손" stroke="none" stroke-width="1" fill="none" transform="translate(26.079838, 47.107581) rotate(-11.000000) translate(-26.079838, -47.107581) translate(16.997894, 33.829139)">
                                <path d="M6.23843425,24.8000815 C3.49448242,22.1361635 2.24806267,18.7116534 2.49917499,14.5265511 C2.68206106,11.478525 6.73537887,7.41596865 10.2349108,8.11805038 C11.9606993,8.46428086 14.5458723,12.5872247 14.4867454,14.1626314 C14.4066312,16.2972348 14.3078891,17.2188722 14.2560055,18.2359146 C14.2100488,19.1367762 15.500469,20.7934859 15.6962934,21.7994169 L6.23843425,24.8000815 Z" id="Path-8" fill="#F5A0A9" transform="translate(9.081944, 16.419030) rotate(20.000000) translate(-9.081944, -16.419030) "></path>
                                <rect id="Rectangle" fill="#F5A0A9" x="3.29758715" y="5.31733611" width="3" height="12" rx="1.5"></rect>
                                <rect id="Rectangle" fill="#F5A0A9" x="5.04245032" y="1.58163638" width="3" height="12" rx="1.5"></rect>
                                <rect id="Rectangle" fill="#F5A0A9" x="7.38732268" y="0" width="3" height="12" rx="1.5"></rect>
                                <rect id="Rectangle" fill="#F5A0A9" transform="translate(11.746844, 8.593268) rotate(-4.000000) translate(-11.746844, -8.593268) " x="10.2468443" y="2.59326808" width="3" height="12" rx="1.5"></rect>
                                <path d="M4.86139022,5.35408175 C5.51923239,8.60501492 5.60916657,10.9904854 5.13119274,12.5104933" id="Path-9" stroke="#212123" stroke-width="0.5" stroke-linecap="round"></path>
                                <path d="M7.39707157,1.79081819 C8.10637623,6.55747505 8.22204165,9.89080838 7.74406782,11.7908182" id="Path-9-Copy" stroke="#212123" stroke-width="0.5" stroke-linecap="round"></path>
                                <path d="M10.4803866,1.36207888 C11.1896913,5.65207005 11.3053567,8.65207005 10.8273829,10.3620789" id="Path-9-Copy-2" stroke="#212123" stroke-width="0.5" stroke-linecap="round"></path>
                                <path d="M13.229519,9.05674164 C13.6407699,10.2543176 13.730037,11.4517169 13.4973205,12.6489396 C13.264604,13.8461622 13.1108801,14.9969151 13.0361488,16.1011983" id="Path-9-Copy-2" stroke="#212123" stroke-width="0.5" stroke-linecap="round"></path>
                            </g>
                            <path d="M12.5209532,29.8158139 C12.4498165,29.8158139 12.3784639,29.7902328 12.3238969,29.7389989 C12.2145393,29.6361078 12.2136965,29.4685899 12.3224473,29.3647838 C13.7670865,27.9860696 15.2906795,26.6473572 16.8504882,25.3855098 C16.9677368,25.2905959 17.1442326,25.3034596 17.2444158,25.4148248 C17.3448229,25.5257664 17.3309015,25.6930771 17.2134292,25.7879911 C15.6654796,27.0403047 14.1532984,28.3690598 12.7196237,29.7373935 C12.6648009,29.7895084 12.5927611,29.8158139 12.5209532,29.8158139" id="Fill-276" stroke="none" fill="#222222" transform="translate(14.776436, 27.568910) rotate(-58.000000) translate(-14.776436, -27.568910) "></path>
                            <path d="M7.00038571,34.6585181 C6.85096496,34.6223501 6.76063479,34.4779441 6.79915524,34.336463 L9.69797359,25.8365655 C9.7362704,25.6948727 9.88796585,25.6096899 10.0385052,25.6456458 C10.1881496,25.6820254 10.2782561,25.8262197 10.2397356,25.9679126 L7.34091723,34.4678101 C7.30844347,34.587476 7.1947789,34.6669676 7.07017766,34.6669676 C7.0471365,34.6669676 7.0238725,34.6642289 7.00038571,34.6585181 Z" id="Fill-278" stroke="none" fill="#222222" transform="translate(8.519452, 30.152192) rotate(-58.000000) translate(-8.519452, -30.152192) "></path>
                            <path d="M6.9969191,38.8620334 C6.84234284,38.8593283 6.71956872,38.7386517 6.72252229,38.5923107 C6.7461461,37.4368308 6.136504,35.4235931 5.95543776,34.2810954 C5.93244153,34.1364567 6.03784636,34.0017318 6.19041694,33.979871 C6.33940811,33.9586467 6.48545394,34.0572909 6.5084501,34.2021413 C6.69398121,35.3740751 7.30585104,37.4171731 7.28177062,38.6023023 C7.27859394,38.7467374 7.15418062,38.8619845 7.00206421,38.8620334 L6.9969191,38.8620334 Z" id="Fill-279" stroke="none" fill="#222222" transform="translate(6.617375, 36.419516) rotate(-58.000000) translate(-6.617375, -36.419516) "></path>
                            <path d="M79.1646084,70.4982586 C77.0334775,80.3109474 39.2463739,94.4723538 39.2463739,94.4723538 L32.2062255,80.9796164 L52.4722327,70.5359385 C52.4722327,70.5359385 11.3465982,67.4631712 7.59312224,59.5822394 C3.83964623,51.702369 7.52545896,46.2409099 12.9217364,43.6250774 C18.3180138,41.0097756 47.0969361,44.9030089 57.5391106,46.7652439 C82.7628261,51.2624167 81.2957394,60.6855699 79.1646084,70.4982586 Z" id="Fill-68" stroke="none" fill="#696575" transform="translate(43.149419, 68.610495) rotate(-256.000000) translate(-43.149419, -68.610495) "></path>
                            <path d="M75.1506657,67.736201 C71.8228267,67.736201 66.2317204,66.9889323 58.3831328,65.9393689 C55.3230146,65.5303214 51.8542145,65.0668711 48.0387973,64.5823782 C33.2273626,62.7029154 26.0820025,60.5319357 22.8967025,52.6353177 C22.8435791,52.5029034 22.9098518,52.3540655 23.0450272,52.3027421 C23.1796766,52.2488526 23.3327351,52.3150597 23.3858585,52.4469609 C26.4743793,60.1028721 33.5082328,62.2209887 48.106648,64.0732501 C51.9241691,64.5582562 55.3934952,65.0217065 58.4541393,65.4312672 C67.6765717,66.663542 73.7684054,67.479584 76.6681014,67.150601 C76.8159002,67.1357173 76.9431859,67.2352847 76.9594911,67.376424 C76.9763223,67.5170501 76.8732314,67.6443321 76.7285884,67.6612689 C76.2762506,67.712079 75.7497504,67.736201 75.1506657,67.736201" id="Fill-70" stroke="none" fill="#212123" transform="translate(49.919833, 60.010070) rotate(-255.000000) translate(-49.919833, -60.010070) "></path>
                        </g>
                    </g>
                </g>
            </g>
        </g>
    </g>
</svg>