<svg width="24" height="24" viewBox="0 0 24 24" xmlns="http://www.w3.org/2000/svg">
    <g fill="none" fill-rule="evenodd">
        <path d="M12 3.3a6.18 6.18 0 0 1 4.384 1.816A6.18 6.18 0 0 1 18.2 9.5a6.18 6.18 0 0 1-1.731 4.298c-.295.306-1.559 1.533-1.907 1.778-.17.12-.325.232-.468.337-.668.488-1.045.787-2.094.787-1.028 0-1.396-.288-2.049-.76a28.82 28.82 0 0 0-.479-.34c-.328-.228-1.577-1.436-1.858-1.718A6.18 6.18 0 0 1 5.8 9.5a6.18 6.18 0 0 1 1.816-4.384A6.18 6.18 0 0 1 12 3.3z" stroke="#777" stroke-width="1.6"/>
        <path d="M14.25 16.1v4.178c-.556.56-1.308.822-2.236.822-.933 0-1.693-.266-2.264-.828V16.1h4.5z" stroke="#777" stroke-width="1.5" fill="#FFF"/>
        <path fill="#777" d="M9 17.85h6v1.5H9zM9.504 10.507 12 6.569l-.528 2.445h2.576L12 13v-2.5z"/>
    </g>
</svg>
