<?xml version="1.0" encoding="utf-8"?>
<!-- Generator: Adobe Illustrator 26.0.1, SVG Export Plug-In . SVG Version: 6.00 Build 0)  -->
<svg version="1.1" id="Layer_1" xmlns="http://www.w3.org/2000/svg" xmlns:xlink="http://www.w3.org/1999/xlink" x="0px" y="0px"
	 viewBox="0 0 24 24" style="enable-background:new 0 0 24 24;" xml:space="preserve">
<style type="text/css">
	.st0{fill-rule:evenodd;clip-rule:evenodd;fill:#CBCFE1;}
	.st1{fill-rule:evenodd;clip-rule:evenodd;fill:#CFCFCF;}
	.st2{filter:url(#Adobe_OpacityMaskFilter);}
	.st3{fill-rule:evenodd;clip-rule:evenodd;fill:#FFFFFF;}
	.st4{mask:url(#mask-2_00000107572748637241752570000009950946900994603705_);fill-rule:evenodd;clip-rule:evenodd;fill:#FF664D;}
</style>
<g id="icon_50" transform="translate(3.000000, 3.000000)">
	<path id="off" class="st0" d="M9,0v3l0,0C5.7,3,3,5.7,3,9s2.7,6,6,6l0,0v3l0,0c-5,0-9-4-9-9S4,0,9,0z"/>
	<g id="on">
		<g id="Combined-Shape">
			<path id="path-1_00000059296225960004022990000008319633730088054400_" class="st1" d="M9,0c5,0,9,4,9,9s-4,9-9,9s-9-4-9-9
				S4,0,9,0z M9,3C5.7,3,3,5.7,3,9s2.7,6,6,6s6-2.7,6-6S12.3,3,9,3z"/>
		</g>
		<defs>
			<filter id="Adobe_OpacityMaskFilter" filterUnits="userSpaceOnUse" x="9" y="-3" width="12" height="24">
				<feColorMatrix  type="matrix" values="1 0 0 0 0  0 1 0 0 0  0 0 1 0 0  0 0 0 1 0"/>
			</filter>
		</defs>
		
			<mask maskUnits="userSpaceOnUse" x="9" y="-3" width="12" height="24" id="mask-2_00000107572748637241752570000009950946900994603705_">
			<g class="st2">
				<path id="path-1_00000000907966683883062780000014630966592942197161_" class="st3" d="M9,0c5,0,9,4,9,9s-4,9-9,9s-9-4-9-9
					S4,0,9,0z M9,3C5.7,3,3,5.7,3,9s2.7,6,6,6s6-2.7,6-6S12.3,3,9,3z"/>
			</g>
		</mask>
		<rect id="Rectangle" x="9" y="-3" class="st4" width="12" height="24"/>
	</g>
</g>
</svg>
