<?xml version="1.0" encoding="UTF-8"?>
<svg width="16px" height="16px" viewBox="0 0 16 16" version="1.1" xmlns="http://www.w3.org/2000/svg" xmlns:xlink="http://www.w3.org/1999/xlink">
    <title>213FB81D-C62F-4B7A-87A9-95449D829599</title>
    <g id="MyPage" stroke="none" stroke-width="1" fill="none" fill-rule="evenodd">
        <g id="MyPage_04_Note_01_All(LM-NO-10)" transform="translate(-130.000000, -568.000000)">
            <g id="My-Profile-Card-(Setting)" transform="translate(100.000000, 159.000000)">
                <g id="li_02" transform="translate(0.000000, 385.000000)">
                    <g id="icon_mypage_menu_stamp" transform="translate(30.000000, 24.000000)">
                        <rect id="area" x="0" y="0" width="16" height="16"></rect>
                        <path d="M10.0002142,9.5 L10.0002142,8.05184895 C10.0140605,7.35806195 10.2143835,6.68132871 10.5795109,6.09486282 C11.338736,4.79925821 11.0462093,3.13382273 9.89275196,2.18495281 C9.07330296,1.50628794 7.96253355,1.31637941 6.96956778,1.68517526 C5.976602,2.05397111 5.24831402,2.92692104 5.05295044,3.98249586 C4.91520582,4.71164783 5.04841035,5.46678918 5.42681923,6.10197175 C5.78560882,6.66901407 5.98442125,7.32517594 6.00161751,7.99903978 L6.00161751,9.5 L10.0002142,9.5 Z" id="Icon-Path" stroke="#AAA"></path>
                        <path d="M11.3333333,11.5 C11.9316418,11.5 12.4733085,11.7425124 12.865398,12.134602 C13.2574876,12.5266915 13.5,13.0683582 13.5,13.6666667 L13.5,13.6666667 L13.5,14.5 L2.5,14.5 L2.5,13.6666667 C2.5,13.0683582 2.74251243,12.5266915 3.13460197,12.134602 C3.52669152,11.7425124 4.06835819,11.5 4.66666667,11.5 L4.66666667,11.5 Z" id="Rectangle" stroke="#A7ABBE"></path>
                        <rect id="Rectangle-Copy" stroke="#A7ABBE" x="5" y="9.5" width="6" height="2"></rect>
                    </g>
                </g>
            </g>
        </g>
    </g>
</svg>