<?xml version="1.0" encoding="utf-8"?>
<!-- Generator: Adobe Illustrator 26.0.1, SVG Export Plug-In . SVG Version: 6.00 Build 0)  -->
<svg version="1.1" id="Layer_1" xmlns="http://www.w3.org/2000/svg" xmlns:xlink="http://www.w3.org/1999/xlink" x="0px" y="0px"
	 viewBox="0 0 24 24" style="enable-background:new 0 0 24 24;" xml:space="preserve">
<style type="text/css">
	.st0{fill-rule:evenodd;clip-rule:evenodd;fill:#CFCFCF;}
	.st1{filter:url(#Adobe_OpacityMaskFilter);}
	.st2{fill-rule:evenodd;clip-rule:evenodd;fill:#FFFFFF;}
	.st3{mask:url(#mask-2_00000165949336100434659860000009514379220488054962_);fill-rule:evenodd;clip-rule:evenodd;fill:#FF664D;}
	.st4{filter:url(#Adobe_OpacityMaskFilter_00000086655545355909008160000006376616144423745684_);}
	.st5{mask:url(#mask-2_00000175319268385191026940000003265852108525177751_);fill-rule:evenodd;clip-rule:evenodd;fill:#FF664D;}
</style>
<g>
	<path id="off" class="st0" d="M12,3v3l0,0c-3.3,0-6,2.7-6,6c0,0.7,0.1,1.3,0.3,1.9l-2.8,0.9C3.2,14,3,13,3,12C3,7,7,3,12,3z"/>
	<g>
		<path id="path-1_00000115503732807526178920000010368778674826952098_" class="st0" d="M12,3c5,0,9,4,9,9s-4,9-9,9s-9-4-9-9
			S7,3,12,3z M12,6c-3.3,0-6,2.7-6,6s2.7,6,6,6s6-2.7,6-6S15.3,6,12,6z"/>
		<g>
			<defs>
				<filter id="Adobe_OpacityMaskFilter" filterUnits="userSpaceOnUse" x="0" y="12" width="12" height="12">
					<feColorMatrix  type="matrix" values="1 0 0 0 0  0 1 0 0 0  0 0 1 0 0  0 0 0 1 0"/>
				</filter>
			</defs>
			
				<mask maskUnits="userSpaceOnUse" x="0" y="12" width="12" height="12" id="mask-2_00000165949336100434659860000009514379220488054962_">
				<g class="st1">
					<path id="path-1_00000173867605352569867150000011724818426336575138_" class="st2" d="M12,3c5,0,9,4,9,9s-4,9-9,9s-9-4-9-9
						S7,3,12,3z M12,6c-3.3,0-6,2.7-6,6s2.7,6,6,6s6-2.7,6-6S15.3,6,12,6z"/>
				</g>
			</mask>
			<polygon id="Rectangle" class="st3" points="12,24 0,24 0,16 12,12 			"/>
			<defs>
				
					<filter id="Adobe_OpacityMaskFilter_00000001647149911934776070000010750548889579190162_" filterUnits="userSpaceOnUse" x="12" y="0" width="12" height="24">
					<feColorMatrix  type="matrix" values="1 0 0 0 0  0 1 0 0 0  0 0 1 0 0  0 0 0 1 0"/>
				</filter>
			</defs>
			
				<mask maskUnits="userSpaceOnUse" x="12" y="0" width="12" height="24" id="mask-2_00000175319268385191026940000003265852108525177751_">
				<g style="filter:url(#Adobe_OpacityMaskFilter_00000001647149911934776070000010750548889579190162_);">
					<path id="path-1_00000032648427314914457940000004874322644997158834_" class="st2" d="M12,3c5,0,9,4,9,9s-4,9-9,9s-9-4-9-9
						S7,3,12,3z M12,6c-3.3,0-6,2.7-6,6s2.7,6,6,6s6-2.7,6-6S15.3,6,12,6z"/>
				</g>
			</mask>
			<rect id="Rectangle_00000176755840921947690100000007015976709919272871_" x="12" class="st5" width="12" height="24"/>
		</g>
	</g>
</g>
</svg>
