<?xml version="1.0" encoding="UTF-8"?>
<svg width="16px" height="16px" viewBox="0 0 16 16" version="1.1" xmlns="http://www.w3.org/2000/svg" xmlns:xlink="http://www.w3.org/1999/xlink">
    <title>4FFC2287-02AA-4722-A391-79C1A3C8F488</title>
    <defs>
        <filter color-interpolation-filters="auto" id="filter-1">
            <feColorMatrix in="SourceGraphic" type="matrix" values="0 0 0 0 0.286275 0 0 0 0 0.764706 0 0 0 0 0.749020 0 0 0 1.000000 0"></feColorMatrix>
        </filter>
    </defs>
    <g id="Note" stroke="none" stroke-width="1" fill="none" fill-rule="evenodd">
        <g id="Mypage_03_Note_01_All(54-10-00)" transform="translate(-160.000000, -898.000000)">
            <g id="List_01" transform="translate(100.000000, 723.000000)">
                <g id="list_01" transform="translate(29.999998, 152.000000)">
                    <g id="Icon_card_time_16px" transform="translate(30.000000, 23.000000)">
                        <g filter="url(#filter-1)">
                            <g transform="translate(0.878680, 0.878680)">
                                <path d="M7.12132034,2.12132034 C3.78798701,2.12132034 1.12132034,4.78798701 1.12132034,8.12132034 C1.12132034,11.4546537 3.78798701,14.1213203 7.12132034,14.1213203 C10.4546537,14.1213203 13.1213203,11.4546537 13.1213203,8.12132034 C13.1213203,4.78798701 10.4546537,2.12132034 7.12132034,2.12132034 Z" id="Shape" fill="#666666" fill-rule="nonzero"></path>
                                <polygon id="Rectangle" fill="#666666" transform="translate(2.121320, 2.121320) rotate(-315.000000) translate(-2.121320, -2.121320) " points="1.12132034 0.121320344 3.12132034 0.121320344 3.12132034 4.12132034 1.12132034 4.12132034"></polygon>
                                <polygon id="Rectangle-Copy-2" fill="#666666" transform="translate(12.121320, 2.121320) rotate(-45.000000) translate(-12.121320, -2.121320) " points="11.1213203 0.121320344 13.1213203 0.121320344 13.1213203 4.12132034 11.1213203 4.12132034"></polygon>
                            </g>
                        </g>
                        <polygon id="Path" fill="#FFFFFF" fill-rule="nonzero" points="8.31818182 6 7.5 6 7.5 9.37078652 10.0636364 11 10.5 10.3258427 8.31818182 8.97752809"></polygon>
                    </g>
                </g>
            </g>
        </g>
    </g>
</svg>