<?xml version="1.0" encoding="utf-8"?>
<!-- Generator: Adobe Illustrator 26.0.1, SVG Export Plug-In . SVG Version: 6.00 Build 0)  -->
<svg version="1.1" id="Layer_1" xmlns="http://www.w3.org/2000/svg" xmlns:xlink="http://www.w3.org/1999/xlink" x="0px" y="0px"
	 viewBox="0 0 24 24" style="enable-background:new 0 0 24 24;" xml:space="preserve">
<style type="text/css">
	.st0{fill-rule:evenodd;clip-rule:evenodd;fill:#CFCFCF;}
	.st1{filter:url(#Adobe_OpacityMaskFilter);}
	.st2{fill-rule:evenodd;clip-rule:evenodd;fill:#FFFFFF;}
	.st3{mask:url(#mask-2_00000030461078792743924130000007463972926360959654_);fill-rule:evenodd;clip-rule:evenodd;fill:#FF664D;}
	.st4{filter:url(#Adobe_OpacityMaskFilter_00000033364334171940509960000004226762222140321457_);}
	.st5{mask:url(#mask-2_00000145766710761275216230000008555183894072829841_);fill-rule:evenodd;clip-rule:evenodd;fill:#FF664D;}
</style>
<g>
	<path id="path-1_00000080168553936142735740000014744546736577612463_" class="st0" d="M12,3c5,0,9,4,9,9s-4,9-9,9s-9-4-9-9
		S7,3,12,3z M12,6c-3.3,0-6,2.7-6,6s2.7,6,6,6s6-2.7,6-6S15.3,6,12,6z"/>
	<g>
		<path id="off" class="st0" d="M12,3v3l0,0c-3.3,0-6,2.7-6,6c0,2,0.9,3.7,2.4,4.8l-1.8,2.4C4.4,17.6,3,14.9,3,12C3,7,7,3,12,3z"/>
		<g>
			<defs>
				<filter id="Adobe_OpacityMaskFilter" filterUnits="userSpaceOnUse" x="12" y="0" width="12" height="24">
					<feColorMatrix  type="matrix" values="1 0 0 0 0  0 1 0 0 0  0 0 1 0 0  0 0 0 1 0"/>
				</filter>
			</defs>
			
				<mask maskUnits="userSpaceOnUse" x="12" y="0" width="12" height="24" id="mask-2_00000030461078792743924130000007463972926360959654_">
				<g class="st1">
					<path id="path-1_00000126325351556554236810000012201233369893040810_" class="st2" d="M12,3c5,0,9,4,9,9s-4,9-9,9s-9-4-9-9
						S7,3,12,3z M12,6c-3.3,0-6,2.7-6,6s2.7,6,6,6s6-2.7,6-6S15.3,6,12,6z"/>
				</g>
			</mask>
			<rect id="Rectangle" x="12" class="st3" width="12" height="24"/>
			<defs>
				
					<filter id="Adobe_OpacityMaskFilter_00000091733880272984117730000005694510227146902663_" filterUnits="userSpaceOnUse" x="3" y="12" width="9" height="12">
					<feColorMatrix  type="matrix" values="1 0 0 0 0  0 1 0 0 0  0 0 1 0 0  0 0 0 1 0"/>
				</filter>
			</defs>
			
				<mask maskUnits="userSpaceOnUse" x="3" y="12" width="9" height="12" id="mask-2_00000145766710761275216230000008555183894072829841_">
				<g style="filter:url(#Adobe_OpacityMaskFilter_00000091733880272984117730000005694510227146902663_);">
					<path id="path-1_00000132080559888723845410000003463494127794346892_" class="st2" d="M12,3c5,0,9,4,9,9s-4,9-9,9s-9-4-9-9
						S7,3,12,3z M12,6c-3.3,0-6,2.7-6,6s2.7,6,6,6s6-2.7,6-6S15.3,6,12,6z"/>
				</g>
			</mask>
			<polygon id="Rectangle_00000047739194662741280910000007260095366872379817_" class="st5" points="12,24 3,24 12,12 			"/>
		</g>
	</g>
</g>
</svg>
