<svg width="24" height="24" viewBox="0 0 24 24" xmlns="http://www.w3.org/2000/svg">
    <g fill="none" fill-rule="evenodd">
        <path d="m13 17.008 7-.047V6.999l-5.17.007-1.814 1.813L13 17.008zm-2-8.189L9.179 7.045 4 7.01v9.951l7 .047V8.819zm-1-3.768 2 1.956 2-1.999L19.997 5A2 2 0 0 1 22 6.996v9.965a2 2 0 0 1-1.986 1.999L14 19.001 12.004 21 10 19.001l-6.014-.041A2 2 0 0 1 2 16.961V7.01a2 2 0 0 1 2-1.999l6 .04z" fill="#777" fill-rule="nonzero"/>
        <path fill="#FF664D" d="M10 19h4l-1.996 2z"/>
    </g>
</svg>
