<svg xmlns="http://www.w3.org/2000/svg" xmlns:xlink="http://www.w3.org/1999/xlink" width="24" height="24" viewBox="0 0 24 24">
    <defs>
        <path id="a" d="M0 0h9.645v6H0z"/>
    </defs>
    <g fill="none" fill-rule="evenodd">
        <path fill="#EEE" d="M17.538 15a1.4 1.4 0 0 0-1 .429 1.4 1.4 0 0 0-1-.429c-.827 0-1.5.748-1.5 1.667 0 .445.156.864.44 1.18l1.884 2.072c.05.054.113.081.176.081a.237.237 0 0 0 .176-.08l1.885-2.075a1.75 1.75 0 0 0 .44-1.178c0-.92-.674-1.667-1.5-1.667M12.038 13c2.206 0 4-1.794 4-4s-1.794-4-4-4-4 1.794-4 4 1.794 4 4 4"/>
        <g transform="translate(5.038 13)">
            <mask id="b" fill="#fff">
                <use xlink:href="#a"/>
            </mask>
            <path fill="#EEE" d="M8.861 5.353c-.474-.422-.736-.982-.736-1.575 0-.822.518-1.574 1.352-1.961a.271.271 0 0 0 .166-.279.29.29 0 0 0-.233-.236C8.532 1.102 7.68 1 6.875 1c-2.141 0-4.085.682-5.337 1.253C.589 2.686 0 3.54 0 4.483v.406C0 5.502.56 6 1.25 6h7.587a.316.316 0 0 0 .29-.172.255.255 0 0 0-.07-.303l-.196-.172z" mask="url(#b)"/>
        </g>
    </g>
</svg>
