<?xml version="1.0" encoding="UTF-8"?>
<svg width="24px" height="24px" viewBox="0 0 24 24" version="1.1" xmlns="http://www.w3.org/2000/svg" xmlns:xlink="http://www.w3.org/1999/xlink">
    <title>351B63E9-9989-464F-9E5A-7F888301CE94</title>
    <defs>
        <path d="M9,0 C13.9705627,0 18,4.02943725 18,9 C18,13.9705627 13.9705627,18 9,18 C4.02943725,18 0,13.9705627 0,9 C0,4.02943725 4.02943725,0 9,0 Z M9,3 C5.6862915,3 3,5.6862915 3,9 C3,12.3137085 5.6862915,15 9,15 C12.3137085,15 15,12.3137085 15,9 C15,5.6862915 12.3137085,3 9,3 Z" id="path-1"></path>
    </defs>
    <g id="Symbols_assets" stroke="none" stroke-width="1" fill="none" fill-rule="evenodd">
        <g id="icon_40" transform="translate(3.000000, 3.000000)">
            <path d="M9,0 L9,3 L9,3 C5.6862915,3 3,5.6862915 3,9 C3,12.3137085 5.6862915,15 9,15 C10.3511517,15 11.597991,14.5533856 12.6009456,13.799729 L14.4005021,16.200282 C12.8962271,17.3303503 11.0263161,18 9,18 C4.02943725,18 0,13.9705627 0,9 C0,4.02943725 4.02943725,0 9,0 Z" id="off" fill="#CBCFE1"></path>
            <g id="on">
                <mask id="mask-2" fill="white">
                    <use xlink:href="#path-1"></use>
                </mask>
                <use id="Combined-Shape" fill="#CFCFCF" xlink:href="#path-1"></use>
                <polygon id="Rectangle" fill="#FF664D" mask="url(#mask-2)" points="9 -3 21 -3 21 21 18 21 9 9"></polygon>
            </g>
        </g>
    </g>
</svg>