<?xml version="1.0" encoding="utf-8"?>
<!-- Generator: Adobe Illustrator 26.0.1, SVG Export Plug-In . SVG Version: 6.00 Build 0)  -->
<svg version="1.1" id="Layer_1" xmlns="http://www.w3.org/2000/svg" xmlns:xlink="http://www.w3.org/1999/xlink" x="0px" y="0px"
	 viewBox="0 0 24 24" style="enable-background:new 0 0 24 24;" xml:space="preserve">
<style type="text/css">
	.st0{fill-rule:evenodd;clip-rule:evenodd;fill:#CFCFCF;}
	.st1{filter:url(#Adobe_OpacityMaskFilter);}
	.st2{fill-rule:evenodd;clip-rule:evenodd;fill:#FFFFFF;}
	.st3{mask:url(#b_00000021824168951287900280000011911513798727408521_);fill-rule:evenodd;clip-rule:evenodd;fill:#FF664D;}
	.st4{filter:url(#Adobe_OpacityMaskFilter_00000049926648049389185540000008950198309955920797_);}
	.st5{mask:url(#b_00000042010058308792319420000016029505899442358181_);fill-rule:evenodd;clip-rule:evenodd;fill:#FF664D;}
</style>
<g>
	<path id="a_00000173840882208657316240000012724396415257040017_" class="st0" d="M12,3c5,0,9,4,9,9s-4,9-9,9s-9-4-9-9S7,3,12,3z
		 M12,6c-3.3,0-6,2.7-6,6s2.7,6,6,6s6-2.7,6-6S15.3,6,12,6z"/>
	<defs>
		<filter id="Adobe_OpacityMaskFilter" filterUnits="userSpaceOnUse" x="0" y="8" width="12" height="16">
			<feColorMatrix  type="matrix" values="1 0 0 0 0  0 1 0 0 0  0 0 1 0 0  0 0 0 1 0"/>
		</filter>
	</defs>
	<mask maskUnits="userSpaceOnUse" x="0" y="8" width="12" height="16" id="b_00000021824168951287900280000011911513798727408521_">
		<g class="st1">
			<path id="a_00000048502906113983814310000005881901313324546436_" class="st2" d="M12,3c5,0,9,4,9,9s-4,9-9,9s-9-4-9-9S7,3,12,3z
				 M12,6c-3.3,0-6,2.7-6,6s2.7,6,6,6s6-2.7,6-6S15.3,6,12,6z"/>
		</g>
	</mask>
	<path class="st3" d="M12,24H0V8l12,4V24z"/>
	<defs>
		
			<filter id="Adobe_OpacityMaskFilter_00000161613748812610313290000005619794946627552399_" filterUnits="userSpaceOnUse" x="12" y="0" width="12" height="24">
			<feColorMatrix  type="matrix" values="1 0 0 0 0  0 1 0 0 0  0 0 1 0 0  0 0 0 1 0"/>
		</filter>
	</defs>
	
		<mask maskUnits="userSpaceOnUse" x="12" y="0" width="12" height="24" id="b_00000042010058308792319420000016029505899442358181_">
		<g style="filter:url(#Adobe_OpacityMaskFilter_00000161613748812610313290000005619794946627552399_);">
			<path id="a_00000011737760619221171040000001489223427552432309_" class="st2" d="M12,3c5,0,9,4,9,9s-4,9-9,9s-9-4-9-9S7,3,12,3z
				 M12,6c-3.3,0-6,2.7-6,6s2.7,6,6,6s6-2.7,6-6S15.3,6,12,6z"/>
		</g>
	</mask>
	<path class="st5" d="M12,0h12v24H12V0z"/>
</g>
</svg>
