<svg width="24" height="25" viewBox="0 0 24 25" xmlns="http://www.w3.org/2000/svg">
    <path d="M13.5 3.65c-2.75 0-4.835.647-6.235 1.97C5.867 6.94 5.25 8.868 5.25 11.15v.68c-.429.408-.75.933-.75 1.57 0 .945.668 1.616 1.5 1.946.277.875.58 1.795.915 2.578.364.856.693 1.536 1.147 2.017a5.394 5.394 0 0 0 7.876 0c.454-.481.76-1.16 1.124-2.017.335-.783.66-1.703.938-2.577.832-.33 1.5-1 1.5-1.946 0-.634-.323-1.16-.75-1.57v-.68c0-2.119-.482-3.626-1.335-4.618-.724-.84-1.691-1.185-2.649-1.29l-.586-1.17-.21-.423h-.47zm-.445 1.548.515 1.03c.25.5.348.856.351 1.008.005.153.01.09-.022.119-.065.054-.697.217-1.477.257-.78.04-1.699.02-2.555.352-.855.332-1.607 1.22-1.617 2.438h1.5c.006-.74.178-.846.656-1.031.479-.186 1.304-.24 2.11-.282.806-.04 1.637.008 2.344-.585.352-.297.577-.81.562-1.312-.004-.111-.03-.218-.047-.33.344.147.649.372.891.657.544.631.984 1.743.984 3.631v1.383l.375.21A.749.749 0 0 1 18 13.4c.01.391-.29.721-.68.75l-.515.023-.14.493a28.161 28.161 0 0 1-.962 2.649c-.338.792-.726 1.467-.844 1.593-1.598 1.687-4.123 1.687-5.719 0-.12-.126-.506-.801-.844-1.594a28.395 28.395 0 0 1-.96-2.65l-.141-.492-.516-.022A.735.735 0 0 1 6 13.4c0-.28.145-.523.375-.656l.375-.21V11.15c0-2.022.513-3.477 1.547-4.453.96-.908 2.528-1.425 4.758-1.5zM9.75 12.65a.75.75 0 1 0 0 1.5.75.75 0 0 0 0-1.5zm4.5 0a.75.75 0 1 0 0 1.5.75.75 0 0 0 0-1.5z" fill="#888" fill-rule="nonzero"/>
</svg>
