<svg width="800" height="180" viewBox="0 0 800 180" xmlns="http://www.w3.org/2000/svg" xmlns:xlink="http://www.w3.org/1999/xlink">
    <defs>
        <path id="a" d="M0 0h60v72H0z"/>
    </defs>
    <g fill="none" fill-rule="evenodd">
        <path fill="#61C1BE" d="M0 180h800V0H0z"/>
        <g fill="#FFF" fill-rule="nonzero">
            <path d="M287.068 116.036a2.813 2.813 0 0 0-.285.836c-.063.33-.095.633-.095.912 0 .81.253 1.45.76 1.919.507.469 1.153.703 1.938.703.81 0 1.59-.203 2.337-.608a7.188 7.188 0 0 0 1.976-1.577 7.679 7.679 0 0 0 1.349-2.166c.33-.798.494-1.59.494-2.375 0-.557-.12-1.007-.361-1.349a2.512 2.512 0 0 0-.912-.798 4.215 4.215 0 0 0-1.14-.399 5.572 5.572 0 0 0-1.045-.114c-1.317 0-2.698.291-4.142.874-1.444.583-2.869 1.374-4.275 2.375a27.208 27.208 0 0 0-4.009 3.515 27.457 27.457 0 0 0-3.344 4.332 23.708 23.708 0 0 0-2.299 4.788c-.57 1.647-.855 3.268-.855 4.864 0 .937.108 1.792.323 2.565.215.773.538 1.444.969 2.014.43.57.963 1.013 1.596 1.33.633.317 1.368.475 2.204.475 1.09 0 2.153-.24 3.192-.722a9.68 9.68 0 0 0 2.793-1.957 9.738 9.738 0 0 0 1.976-2.85 7.976 7.976 0 0 0 .741-3.363c0-1.039-.215-1.913-.646-2.622-.43-.71-1.203-1.064-2.318-1.064-.583 0-1.14.152-1.672.456a8.385 8.385 0 0 0-1.52 1.121 11.18 11.18 0 0 0-1.292 1.406c-.38.494-.71.944-.988 1.349l-.38-.19c.43-.659.9-1.286 1.406-1.881a12.432 12.432 0 0 1 1.653-1.615 7.398 7.398 0 0 1 1.957-1.14c.71-.279 1.495-.418 2.356-.418 1.317 0 2.394.399 3.23 1.197.836.798 1.254 1.843 1.254 3.135 0 1.545-.386 2.913-1.159 4.104a10.273 10.273 0 0 1-3.002 3.002 14.762 14.762 0 0 1-4.104 1.862c-1.507.43-2.996.646-4.465.646-2.533 0-4.497-.722-5.89-2.166-1.393-1.444-2.09-3.42-2.09-5.928 0-1.621.342-3.243 1.026-4.864a20.647 20.647 0 0 1 2.755-4.655 26.299 26.299 0 0 1 4.028-4.123 31.499 31.499 0 0 1 4.845-3.306 26.86 26.86 0 0 1 5.168-2.204c1.748-.532 3.42-.798 5.016-.798.735 0 1.444.076 2.128.228a5.58 5.58 0 0 1 1.824.741c.532.342.956.804 1.273 1.387.317.583.475 1.305.475 2.166 0 .937-.228 1.78-.684 2.527a6.257 6.257 0 0 1-1.767 1.881c-.722.507-1.526.9-2.413 1.178a8.598 8.598 0 0 1-2.584.418 6.172 6.172 0 0 1-1.539-.19 3.992 3.992 0 0 1-1.311-.589 3.154 3.154 0 0 1-.931-1.026c-.24-.418-.361-.918-.361-1.501 0-.355.05-.71.152-1.064.101-.355.203-.62.304-.798l.38.114zM316.004 128.158a9.649 9.649 0 0 1-1.805 1.786c-.697.532-1.463.798-2.299.798-.583 0-1.09-.127-1.52-.38a4.204 4.204 0 0 1-1.178-1.064 12.215 12.215 0 0 1-1.501 3.591 12.64 12.64 0 0 1-2.527 2.964 11.93 11.93 0 0 1-3.306 2.014 10.003 10.003 0 0 1-3.8.741c-1.393 0-2.508-.399-3.344-1.197-.836-.798-1.254-1.894-1.254-3.287 0-1.343.342-2.628 1.026-3.857a11.625 11.625 0 0 1 2.66-3.23 13.54 13.54 0 0 1 3.61-2.204c1.317-.545 2.61-.817 3.876-.817 1.368 0 2.445.367 3.23 1.102a4.622 4.622 0 0 1 1.444 2.66c.127.76.412 1.368.855 1.824.443.456 1.02.684 1.729.684.684 0 1.33-.203 1.938-.608.608-.405 1.254-1.013 1.938-1.824l.228.304zm-17.67 9.994c.633 0 1.267-.215 1.9-.646.633-.43 1.241-.988 1.824-1.672a15.302 15.302 0 0 0 1.615-2.318c.494-.861.925-1.723 1.292-2.584a17.42 17.42 0 0 0 .855-2.47c.203-.785.304-1.444.304-1.976 0-.633-.133-1.127-.399-1.482s-.69-.532-1.273-.532c-.633 0-1.267.215-1.9.646-.633.43-1.241.988-1.824 1.672a15.302 15.302 0 0 0-1.615 2.318 24.572 24.572 0 0 0-1.292 2.584 17.42 17.42 0 0 0-.855 2.47c-.203.785-.304 1.444-.304 1.976 0 .633.133 1.127.399 1.482s.69.532 1.273.532z"/>
            <path d="M317.428 131.464c.355-.456.868-1.102 1.539-1.938a24.292 24.292 0 0 1 2.299-2.47c.861-.81 1.786-1.52 2.774-2.128.988-.608 1.976-.912 2.964-.912.836 0 1.47.234 1.9.703.43.469.646 1.045.646 1.729 0 .861-.272 1.742-.817 2.641a37.08 37.08 0 0 1-1.805 2.698c-.659.9-1.26 1.76-1.805 2.584-.545.823-.817 1.59-.817 2.299 0 .304.076.551.228.741.152.19.405.285.76.285s.944-.272 1.767-.817c.823-.545 1.932-1.552 3.325-3.021a75.31 75.31 0 0 0 3.002-3.401 628.113 628.113 0 0 0 2.052-2.489l.38.19c-.659.785-1.47 1.76-2.432 2.926a64.11 64.11 0 0 1-3.078 3.458c-1.317 1.393-2.438 2.381-3.363 2.964-.925.583-1.881.874-2.869.874-.963 0-1.672-.266-2.128-.798a2.723 2.723 0 0 1-.684-1.824c0-.861.272-1.748.817-2.66a30.064 30.064 0 0 1 1.805-2.679 78.236 78.236 0 0 0 1.805-2.489c.545-.785.817-1.47.817-2.052a.926.926 0 0 0-.266-.684c-.177-.177-.443-.266-.798-.266-.507 0-1.102.234-1.786.703-.684.469-1.406 1.077-2.166 1.824a33.55 33.55 0 0 0-2.318 2.546c-.785.95-1.526 1.9-2.223 2.85a46.716 46.716 0 0 0-1.881 2.755c-.557.887-1 1.647-1.33 2.28l-3.838.114c1.343-2.23 2.692-4.44 4.047-6.631a225.744 225.744 0 0 0 4.009-6.745l4.332-.152-4.94 6.916.076.076z"/>
            <path d="M327.022 141.04c-1.343.025-2.35.393-3.021 1.102-.671.71-1.007 1.697-1.007 2.964 0 .608.101 1.172.304 1.691.203.52.488.969.855 1.349s.81.678 1.33.893c.52.215 1.108.323 1.767.323 1.19 0 2.318-.24 3.382-.722a12.736 12.736 0 0 0 3.021-1.938c.95-.81 1.85-1.729 2.698-2.755a46.957 46.957 0 0 0 2.394-3.154 73.256 73.256 0 0 0 2.109-3.211 63.094 63.094 0 0 1 1.862-2.85l-.076-.076a13.87 13.87 0 0 1-1.349 1.387c-.494.443-1.013.836-1.558 1.178a8.537 8.537 0 0 1-1.748.836 5.928 5.928 0 0 1-1.957.323c-1.039 0-1.83-.361-2.375-1.083-.545-.722-.817-1.564-.817-2.527 0-1.241.317-2.502.95-3.781a13.273 13.273 0 0 1 2.47-3.458 13.598 13.598 0 0 1 3.42-2.527c1.267-.659 2.52-.988 3.762-.988.963 0 1.723.177 2.28.532.557.355.988 1 1.292 1.938l.874-1.634 3.876-.228a319.235 319.235 0 0 0-4.028 7.068 157.51 157.51 0 0 1-4.18 7.106 15.716 15.716 0 0 0 3.971-1.748 23.752 23.752 0 0 0 3.458-2.603 32.558 32.558 0 0 0 3.04-3.154 81.847 81.847 0 0 0 2.717-3.401l.228.114a44.427 44.427 0 0 1-2.755 3.591 32.816 32.816 0 0 1-3.211 3.287 24.1 24.1 0 0 1-3.648 2.679 16.817 16.817 0 0 1-4.104 1.767 26.147 26.147 0 0 1-3.097 4.294 19.732 19.732 0 0 1-3.781 3.306 17.538 17.538 0 0 1-4.446 2.128c-1.596.507-3.306.76-5.13.76a13.75 13.75 0 0 1-2.66-.247c-.836-.165-1.577-.443-2.223-.836a4.532 4.532 0 0 1-1.539-1.52c-.38-.62-.57-1.387-.57-2.299 0-.684.146-1.298.437-1.843.291-.545.678-1 1.159-1.368a5.212 5.212 0 0 1 1.653-.836 6.393 6.393 0 0 1 1.881-.285c.228 0 .57.025 1.026.076.456.05.81.089 1.064.114v.266zm9.462-6.574c0 .735.127 1.355.38 1.862.253.507.81.76 1.672.76.532 0 1.077-.19 1.634-.57a9.06 9.06 0 0 0 1.634-1.463 15.444 15.444 0 0 0 1.52-2.033c.481-.76.9-1.52 1.254-2.28.355-.76.633-1.488.836-2.185.203-.697.304-1.286.304-1.767a5.77 5.77 0 0 0-.057-.817 2.785 2.785 0 0 0-.209-.741 1.292 1.292 0 0 0-.456-.551c-.203-.14-.481-.209-.836-.209-.937 0-1.862.361-2.774 1.083-.912.722-1.729 1.609-2.451 2.66a16.853 16.853 0 0 0-1.767 3.287c-.456 1.14-.684 2.128-.684 2.964z"/>
            <path d="M350.98 138a436.308 436.308 0 0 1 3.933-6.65 410.442 410.442 0 0 0 3.971-6.726l4.332-.152-5.016 7.068.076.076c.963-1.19 1.818-2.147 2.565-2.869.747-.722 1.4-1.311 1.957-1.767a15.066 15.066 0 0 1 1.406-1.045c.38-.24.659-.45.836-.627.279-.279.538-.5.779-.665.24-.165.526-.291.855-.38.33-.089.728-.146 1.197-.171.469-.025 1.058-.05 1.767-.076-.481.684-.925 1.4-1.33 2.147a4.983 4.983 0 0 0-.608 2.413c0 1.09.545 1.634 1.634 1.634a2.55 2.55 0 0 0 1.045-.228c.342-.152.665-.342.969-.57.304-.228.595-.475.874-.741s.532-.513.76-.741l.152.19a8.902 8.902 0 0 1-2.508 2.166 6.184 6.184 0 0 1-3.154.836c-1.013 0-1.811-.266-2.394-.798-.583-.532-.874-1.317-.874-2.356 0-.659.19-1.28.57-1.862l-.076-.076a21.275 21.275 0 0 0-3.04 2.47 31.09 31.09 0 0 0-2.679 2.964 36.966 36.966 0 0 0-2.28 3.211 52.315 52.315 0 0 0-1.881 3.211l-3.838.114z"/>
            <path d="m385.35 124.852 3.952-.228a16.003 16.003 0 0 1-.988 1.653c-.43.646-.9 1.343-1.406 2.09-.507.747-1.02 1.52-1.539 2.318-.52.798-.994 1.57-1.425 2.318a17.82 17.82 0 0 0-1.045 2.09c-.266.646-.399 1.197-.399 1.653 0 .633.317.95.95.95.608 0 1.431-.355 2.47-1.064 1.039-.71 2.128-1.647 3.268-2.812.481-.481.969-1 1.463-1.558.494-.557.969-1.108 1.425-1.653.456-.545.874-1.051 1.254-1.52.38-.469.684-.855.912-1.159l.266.152c-.659.887-1.419 1.868-2.28 2.945-.861 1.077-1.9 2.223-3.116 3.439-1.216 1.216-2.413 2.21-3.591 2.983-1.178.773-2.35 1.159-3.515 1.159-.81 0-1.438-.209-1.881-.627a2.033 2.033 0 0 1-.665-1.539c0-.203.013-.393.038-.57.025-.177.063-.317.114-.418h-.076a11.802 11.802 0 0 1-2.66 2.242 5.982 5.982 0 0 1-3.192.912c-.608 0-1.127-.114-1.558-.342a2.852 2.852 0 0 1-1.045-.931 4.217 4.217 0 0 1-.589-1.33 6.172 6.172 0 0 1-.19-1.539c0-1.241.342-2.483 1.026-3.724a14.093 14.093 0 0 1 2.584-3.363 13.44 13.44 0 0 1 3.477-2.432c1.28-.62 2.502-.931 3.667-.931.887 0 1.583.19 2.09.57.507.38.925.975 1.254 1.786l.95-1.52zm-11.4 9.728c0 .735.12 1.374.361 1.919.24.545.754.817 1.539.817.532-.025 1.09-.247 1.672-.665a9.737 9.737 0 0 0 1.691-1.577 18.563 18.563 0 0 0 1.558-2.109c.494-.773.925-1.552 1.292-2.337.367-.785.659-1.526.874-2.223.215-.697.323-1.286.323-1.767 0-.684-.127-1.216-.38-1.596-.253-.38-.747-.57-1.482-.57-.583 0-1.172.177-1.767.532a7.872 7.872 0 0 0-1.71 1.406 16.513 16.513 0 0 0-1.558 1.957 15.672 15.672 0 0 0-1.273 2.223 15.29 15.29 0 0 0-.836 2.185c-.203.697-.304 1.298-.304 1.805z"/>
            <path d="m393.462 125.308.266-.684h2.926l2.85-4.788 4.104-.152-3.154 4.94h4.826l-.342.684h-4.902c-1.14 1.875-2.103 3.452-2.888 4.731a83.494 83.494 0 0 0-1.881 3.192c-.469.849-.81 1.526-1.026 2.033-.215.507-.323.95-.323 1.33 0 .33.089.595.266.798.177.203.43.304.76.304.633 0 1.47-.323 2.508-.969 1.039-.646 2.153-1.539 3.344-2.679.81-.81 1.697-1.76 2.66-2.85a53.186 53.186 0 0 0 2.698-3.306l.228.19c-.583.76-1.317 1.685-2.204 2.774a42.67 42.67 0 0 1-2.926 3.23 27.604 27.604 0 0 1-1.805 1.653c-.62.52-1.248.975-1.881 1.368-.633.393-1.254.703-1.862.931a5.067 5.067 0 0 1-1.786.342c-.81 0-1.52-.184-2.128-.551-.608-.367-.912-1.007-.912-1.919 0-.659.14-1.336.418-2.033.279-.697.665-1.463 1.159-2.299.494-.836 1.07-1.76 1.729-2.774a77.842 77.842 0 0 0 2.128-3.496h-2.85z"/>
            <path d="M421.524 124.472a128.64 128.64 0 0 1-2.755 4.408 117.435 117.435 0 0 0-2.185 3.439c-.608 1-1.083 1.868-1.425 2.603-.342.735-.513 1.38-.513 1.938 0 .557.24.836.722.836.304 0 .671-.108 1.102-.323.43-.215.887-.494 1.368-.836.481-.342.975-.741 1.482-1.197.507-.456.988-.912 1.444-1.368.557-.583 1.108-1.172 1.653-1.767a55.195 55.195 0 0 0 1.52-1.729c.469-.557.893-1.07 1.273-1.539.38-.469.697-.868.95-1.197l.304.228c-.608.81-1.38 1.78-2.318 2.907a56.002 56.002 0 0 1-3.002 3.325c-1.292 1.317-2.483 2.343-3.572 3.078-1.09.735-2.166 1.102-3.23 1.102-.76 0-1.368-.228-1.824-.684-.456-.456-.684-1.026-.684-1.71 0-.481.044-.912.133-1.292.089-.38.196-.671.323-.874l-.076-.076c-.456.481-.95.994-1.482 1.539a14.8 14.8 0 0 1-1.71 1.501 9.75 9.75 0 0 1-1.957 1.14 5.591 5.591 0 0 1-2.261.456c-.785 0-1.38-.247-1.786-.741a2.644 2.644 0 0 1-.608-1.729c0-.963.52-2.356 1.558-4.18 1.039-1.824 2.445-4.193 4.218-7.106l4.028-.152a932.761 932.761 0 0 0-4.883 7.543c-1.254 1.963-1.881 3.426-1.881 4.389 0 .304.082.557.247.76a.812.812 0 0 0 .665.304c.481 0 1.058-.203 1.729-.608.671-.405 1.374-.95 2.109-1.634a23.4 23.4 0 0 0 2.185-2.356 24.395 24.395 0 0 0 1.957-2.774l3.268-5.32 3.914-.304zM440.77 111.438l-11.742 18.696a99.352 99.352 0 0 0-2.356 3.971c-.583 1.051-.874 1.906-.874 2.565 0 .684.279 1.026.836 1.026.532 0 1.254-.291 2.166-.874.912-.583 1.887-1.393 2.926-2.432a56.06 56.06 0 0 0 2.85-3.078 72.36 72.36 0 0 0 2.736-3.382l.342.114c-.304.405-.652.861-1.045 1.368a59.78 59.78 0 0 1-1.235 1.539c-.43.52-.868 1.039-1.311 1.558-.443.52-.88.994-1.311 1.425-1.47 1.495-2.768 2.61-3.895 3.344-1.127.735-2.299 1.102-3.515 1.102-1.723 0-2.584-.76-2.584-2.28 0-.71.26-1.602.779-2.679.52-1.077 1.324-2.527 2.413-4.351l10.602-17.404 4.218-.228z"/>
            <path d="m449.756 124.852 3.952-.228a16.003 16.003 0 0 1-.988 1.653c-.43.646-.9 1.343-1.406 2.09-.507.747-1.02 1.52-1.539 2.318-.52.798-.994 1.57-1.425 2.318a17.82 17.82 0 0 0-1.045 2.09c-.266.646-.399 1.197-.399 1.653 0 .633.317.95.95.95.608 0 1.431-.355 2.47-1.064 1.039-.71 2.128-1.647 3.268-2.812.481-.481.969-1 1.463-1.558.494-.557.969-1.108 1.425-1.653.456-.545.874-1.051 1.254-1.52.38-.469.684-.855.912-1.159l.266.152c-.659.887-1.419 1.868-2.28 2.945-.861 1.077-1.9 2.223-3.116 3.439-1.216 1.216-2.413 2.21-3.591 2.983-1.178.773-2.35 1.159-3.515 1.159-.81 0-1.438-.209-1.881-.627a2.033 2.033 0 0 1-.665-1.539c0-.203.013-.393.038-.57.025-.177.063-.317.114-.418h-.076a11.802 11.802 0 0 1-2.66 2.242 5.982 5.982 0 0 1-3.192.912c-.608 0-1.127-.114-1.558-.342a2.852 2.852 0 0 1-1.045-.931 4.217 4.217 0 0 1-.589-1.33 6.172 6.172 0 0 1-.19-1.539c0-1.241.342-2.483 1.026-3.724a14.093 14.093 0 0 1 2.584-3.363 13.44 13.44 0 0 1 3.477-2.432c1.28-.62 2.502-.931 3.667-.931.887 0 1.583.19 2.09.57.507.38.925.975 1.254 1.786l.95-1.52zm-11.4 9.728c0 .735.12 1.374.361 1.919.24.545.754.817 1.539.817.532-.025 1.09-.247 1.672-.665a9.737 9.737 0 0 0 1.691-1.577 18.563 18.563 0 0 0 1.558-2.109c.494-.773.925-1.552 1.292-2.337.367-.785.659-1.526.874-2.223.215-.697.323-1.286.323-1.767 0-.684-.127-1.216-.38-1.596-.253-.38-.747-.57-1.482-.57-.583 0-1.172.177-1.767.532a7.872 7.872 0 0 0-1.71 1.406 16.513 16.513 0 0 0-1.558 1.957 15.672 15.672 0 0 0-1.273 2.223 15.29 15.29 0 0 0-.836 2.185c-.203.697-.304 1.298-.304 1.805z"/>
            <path d="m457.868 125.308.266-.684h2.926l2.85-4.788 4.104-.152-3.154 4.94h4.826l-.342.684h-4.902c-1.14 1.875-2.103 3.452-2.888 4.731a83.494 83.494 0 0 0-1.881 3.192c-.469.849-.81 1.526-1.026 2.033-.215.507-.323.95-.323 1.33 0 .33.089.595.266.798.177.203.43.304.76.304.633 0 1.47-.323 2.508-.969 1.039-.646 2.153-1.539 3.344-2.679.81-.81 1.697-1.76 2.66-2.85a53.186 53.186 0 0 0 2.698-3.306l.228.19c-.583.76-1.317 1.685-2.204 2.774a42.67 42.67 0 0 1-2.926 3.23 27.604 27.604 0 0 1-1.805 1.653c-.62.52-1.248.975-1.881 1.368-.633.393-1.254.703-1.862.931a5.067 5.067 0 0 1-1.786.342c-.81 0-1.52-.184-2.128-.551-.608-.367-.912-1.007-.912-1.919 0-.659.14-1.336.418-2.033.279-.697.665-1.463 1.159-2.299.494-.836 1.07-1.76 1.729-2.774a77.842 77.842 0 0 0 2.128-3.496h-2.85zM477.304 124.624a659.257 659.257 0 0 1-3.078 4.807 85.103 85.103 0 0 0-2.109 3.401c-.545.937-.95 1.704-1.216 2.299s-.399 1.083-.399 1.463c0 .304.057.551.171.741a.56.56 0 0 0 .513.285c.507 0 1.222-.291 2.147-.874.925-.583 2.084-1.583 3.477-3.002.557-.583 1.102-1.159 1.634-1.729a77.827 77.827 0 0 0 1.501-1.653c.469-.532.887-1.013 1.254-1.444.367-.43.665-.773.893-1.026l.342.228a28.73 28.73 0 0 1-1.121 1.387c-.443.52-.918 1.064-1.425 1.634a64.762 64.762 0 0 1-1.558 1.691 96.016 96.016 0 0 1-1.558 1.596c-1.47 1.47-2.73 2.495-3.781 3.078-1.051.583-2.02.874-2.907.874-.836 0-1.482-.228-1.938-.684-.456-.456-.684-1.051-.684-1.786 0-.507.095-1.032.285-1.577.19-.545.513-1.222.969-2.033a71.678 71.678 0 0 1 1.824-3.021c.76-1.203 1.71-2.692 2.85-4.465l3.914-.19zm2.204-8.436c.481 0 .906.177 1.273.532.367.355.551.773.551 1.254 0 .507-.203.969-.608 1.387-.405.418-.861.627-1.368.627-.557 0-1.039-.146-1.444-.437-.405-.291-.608-.728-.608-1.311s.222-1.07.665-1.463a2.251 2.251 0 0 1 1.539-.589z"/>
            <path d="M502.098 128.158a9.649 9.649 0 0 1-1.805 1.786c-.697.532-1.463.798-2.299.798-.583 0-1.09-.127-1.52-.38a4.204 4.204 0 0 1-1.178-1.064 12.215 12.215 0 0 1-1.501 3.591 12.64 12.64 0 0 1-2.527 2.964 11.93 11.93 0 0 1-3.306 2.014 10.003 10.003 0 0 1-3.8.741c-1.393 0-2.508-.399-3.344-1.197-.836-.798-1.254-1.894-1.254-3.287 0-1.343.342-2.628 1.026-3.857a11.625 11.625 0 0 1 2.66-3.23 13.54 13.54 0 0 1 3.61-2.204c1.317-.545 2.61-.817 3.876-.817 1.368 0 2.445.367 3.23 1.102a4.622 4.622 0 0 1 1.444 2.66c.127.76.412 1.368.855 1.824.443.456 1.02.684 1.729.684.684 0 1.33-.203 1.938-.608.608-.405 1.254-1.013 1.938-1.824l.228.304zm-17.67 9.994c.633 0 1.267-.215 1.9-.646.633-.43 1.241-.988 1.824-1.672a15.302 15.302 0 0 0 1.615-2.318c.494-.861.925-1.723 1.292-2.584a17.42 17.42 0 0 0 .855-2.47c.203-.785.304-1.444.304-1.976 0-.633-.133-1.127-.399-1.482s-.69-.532-1.273-.532c-.633 0-1.267.215-1.9.646-.633.43-1.241.988-1.824 1.672a15.302 15.302 0 0 0-1.615 2.318 24.572 24.572 0 0 0-1.292 2.584 17.42 17.42 0 0 0-.855 2.47c-.203.785-.304 1.444-.304 1.976 0 .633.133 1.127.399 1.482s.69.532 1.273.532z"/>
            <path d="M503.522 131.464c.355-.456.868-1.102 1.539-1.938a24.292 24.292 0 0 1 2.299-2.47c.861-.81 1.786-1.52 2.774-2.128.988-.608 1.976-.912 2.964-.912.836 0 1.47.234 1.9.703.43.469.646 1.045.646 1.729 0 .861-.272 1.742-.817 2.641a37.08 37.08 0 0 1-1.805 2.698c-.659.9-1.26 1.76-1.805 2.584-.545.823-.817 1.59-.817 2.299 0 .304.076.551.228.741.152.19.405.285.76.285s.944-.272 1.767-.817c.823-.545 1.932-1.552 3.325-3.021a75.31 75.31 0 0 0 3.002-3.401 628.113 628.113 0 0 0 2.052-2.489l.38.19c-.659.785-1.47 1.76-2.432 2.926a64.11 64.11 0 0 1-3.078 3.458c-1.317 1.393-2.438 2.381-3.363 2.964-.925.583-1.881.874-2.869.874-.963 0-1.672-.266-2.128-.798a2.723 2.723 0 0 1-.684-1.824c0-.861.272-1.748.817-2.66a30.064 30.064 0 0 1 1.805-2.679 78.236 78.236 0 0 0 1.805-2.489c.545-.785.817-1.47.817-2.052a.926.926 0 0 0-.266-.684c-.177-.177-.443-.266-.798-.266-.507 0-1.102.234-1.786.703-.684.469-1.406 1.077-2.166 1.824a33.55 33.55 0 0 0-2.318 2.546c-.785.95-1.526 1.9-2.223 2.85a46.716 46.716 0 0 0-1.881 2.755c-.557.887-1 1.647-1.33 2.28l-3.838.114c1.343-2.23 2.692-4.44 4.047-6.631a225.744 225.744 0 0 0 4.009-6.745l4.332-.152-4.94 6.916.076.076z"/>
            <path d="M525.162 137.886a11.517 11.517 0 0 0 3.591-1.425 19.037 19.037 0 0 0 3.097-2.356c.963-.9 1.868-1.875 2.717-2.926a143.737 143.737 0 0 0 2.489-3.173l.304.228a205.058 205.058 0 0 1-3.04 3.857 21.716 21.716 0 0 1-3.325 3.325 15.873 15.873 0 0 1-3.952 2.318c-1.431.583-3.072.874-4.921.874-.659 0-1.311-.07-1.957-.209a5.595 5.595 0 0 1-1.748-.684 3.711 3.711 0 0 1-1.254-1.254c-.317-.52-.475-1.159-.475-1.919 0-.405.057-.81.171-1.216.114-.405.285-.773.513-1.102.228-.33.513-.602.855-.817a2.199 2.199 0 0 1 1.197-.323c.583 0 1.032.165 1.349.494.317.33.475.71.475 1.14 0 .532-.152.937-.456 1.216a1.525 1.525 0 0 1-1.064.418c-.33 0-.608-.063-.836-.19a4.362 4.362 0 0 0-.323.741 2.567 2.567 0 0 0-.133.817c0 .71.272 1.292.817 1.748a2.897 2.897 0 0 0 1.919.684c.456 0 .918-.076 1.387-.228a3.969 3.969 0 0 0 1.254-.665c.367-.291.665-.64.893-1.045.228-.405.342-.849.342-1.33 0-.659-.158-1.26-.475-1.805a16.182 16.182 0 0 0-1.045-1.577c-.38-.507-.728-1.02-1.045-1.539a3.124 3.124 0 0 1-.475-1.653c0-.71.165-1.33.494-1.862.33-.532.76-.982 1.292-1.349a5.744 5.744 0 0 1 1.786-.817 7.713 7.713 0 0 1 2.014-.266c1.216 0 2.236.26 3.059.779.823.52 1.235 1.26 1.235 2.223 0 .735-.24 1.336-.722 1.805-.481.469-1.09.703-1.824.703-.228 0-.437-.019-.627-.057a2.755 2.755 0 0 1-.475-.133 5.851 5.851 0 0 0 .589-1.501c.114-.494.171-.982.171-1.463 0-.507-.146-.95-.437-1.33-.291-.38-.728-.57-1.311-.57-.71 0-1.254.222-1.634.665-.38.443-.57.994-.57 1.653 0 .71.158 1.336.475 1.881.317.545.665 1.07 1.045 1.577.38.507.728 1.039 1.045 1.596.317.557.475 1.216.475 1.976 0 .481-.082.95-.247 1.406a4.334 4.334 0 0 1-.665 1.216 4.42 4.42 0 0 1-.931.893c-.342.24-.703.399-1.083.475v.076z"/>
        </g>
        <path d="M416.894 41s3.24 9.89 16.106 7.61c-11.194 9.055-33.545 31.708-43.314 49.39C376.336 96.666 375 89.19 375 89.19L416.894 41z" fill="#F2F2F1"/>
        <g transform="translate(368 30)">
            <mask id="b" fill="#fff">
                <use xlink:href="#a"/>
            </mask>
            <path d="M60 10.965C53.441-7.4 38.377 2.854 38.377 2.854 22.071 33.042 10.445 36.474 1.916 48.74c-5.425 7.813 1.57 20.84 9.751 23.26-3.519-1.994-9.609-6.582-9.79-14.524-.46-20.513 26.051-6.125 22.9 5.307C34.026 39.384 51.249 22.67 60 10.965" fill="#FAFAFA" mask="url(#b)"/>
        </g>
        <path d="M381.615 92.701c-1.923-4.506-5.52-4.51-5.52-4.51s2.604-2.356 8.905-8.618c-6.64-4.29-15.255-4.18-14.994 7.869.171 7.896 5.91 12.494 9.339 14.558 1.81-1.141 4.579-3.889 2.27-9.299" fill="#F2F2F1"/>
        <path d="M385.243 79c-6.541 6.284-9.243 8.649-9.243 8.649s3.734.003 5.73 4.525c2.395 5.43-.478 8.186-2.356 9.33.053.035.109.067.163.1 4.709 1.398 9.812-.716 13.2-9.333 1.326-4.832-2.556-10.187-7.494-13.271" fill="#E5E5E4"/>
        <path d="M400 57c1.675 3.248 2.8 6.969 2.697 10.51-.052 1.84-.477 3.595.035 5.419.214.762.433 1.54.812 2.259.19.36.423.702.702 1.019.111.127.838.669.826.793 0-1.304-.174-2.822.099-4.099-.022.104 1.676.99 1.833 1.087.694.431 1.38.88 1.996 1.391-1.35-.992-1.352-3.065-1.42-4.438-.07-1.45.059-2.949-.23-4.384-.665-3.321-2.257-6.537-3.973-9.557H400z" fill="#D62D2D"/>
        <path d="M402 57.695c-3.574.29-7.294 1.26-10.285 3.117-1.554.964-2.86 2.183-4.667 2.688-.754.212-1.525.426-2.319.486a5.335 5.335 0 0 1-1.204-.049c-.162-.026-.968-.332-1.07-.262 1.12-.654 2.505-1.275 3.471-2.135-.08.07-1.635-.84-1.795-.917-.697-.34-1.403-.661-2.131-.896 1.485.58 3.265-.459 4.476-1.092 1.278-.671 2.502-1.525 3.869-2.014 3.163-1.135 6.668-1.476 10.067-1.621L402 57.695z" fill="#D62D2D"/>
        <path d="M401.411 49.16s.354-14.05-6.697-9.106c0 0-12.545 7.015-3.339 12.193l5.75 2.753L402 51.72l-.589-2.56z" fill="#FF4343"/>
        <path d="M400.996 51s.27-10.304-3.585-9.993c0 0-2.201 2.067 3.585 9.993" fill="#D62D2D"/>
        <path d="M405.532 52.307s12.843-6.354 11.347 2.029c0 0-1.015 14.15-9.822 8.206L402 58.622l.907-5.737 2.625-.578z" fill="#FF4343"/>
        <path d="M405 53.088s8.495-4.305 10-.552c0 0-.72 2.887-10 .552M402.052 50S399 52.19 398 55.392c0 0 1.373 2.36 4.245 2.608 0 0 2.411-2.544 2.755-6.183L402.052 50z" fill="#D62D2D"/>
    </g>
</svg>
