<svg xmlns="http://www.w3.org/2000/svg" xmlns:xlink="http://www.w3.org/1999/xlink" width="800" height="180" viewBox="0 0 800 180">
    <defs>
        <path id="a44kq16qra" d="M0 0L60 0 60 72 0 72z"/>
    </defs>
    <g fill="none" fill-rule="evenodd">
        <g>
            <g>
                <g>
                    <path fill="#61C1BE" d="M0 180L800 180 800 0 0 0z" transform="translate(-301 -239) translate(230 100) translate(71 139)"/>
                    <text fill="#FFF" fill-rule="nonzero" font-family="SnellRoundhand-Bold, Snell Roundhand" font-size="38" font-weight="bold" letter-spacing="1.5" transform="translate(-301 -239) translate(230 100) translate(71 139)">
                        <tspan x="266.472" y="138">Congratulations</tspan>
                    </text>
                    <g>
                        <path fill="#F2F2F1" d="M48.894 11s3.24 9.89 16.106 7.61C53.806 27.666 31.455 50.319 21.686 68 8.336 66.666 7 59.19 7 59.19L48.894 11z" transform="translate(-301 -239) translate(230 100) translate(71 139) translate(368 30)"/>
                        <g transform="translate(-301 -239) translate(230 100) translate(71 139) translate(368 30)">
                            <mask id="vefjemn9vb" fill="#fff">
                                <use xlink:href="#a44kq16qra"/>
                            </mask>
                            <path fill="#FAFAFA" d="M60 10.965C53.441-7.4 38.377 2.854 38.377 2.854 22.071 33.042 10.445 36.474 1.916 48.74c-5.425 7.813 1.57 20.84 9.751 23.26-3.519-1.994-9.609-6.582-9.79-14.524-.46-20.513 26.051-6.125 22.9 5.307C34.026 39.384 51.249 22.67 60 10.965" mask="url(#vefjemn9vb)"/>
                        </g>
                        <path fill="#F2F2F1" d="M13.615 62.701c-1.923-4.506-5.52-4.51-5.52-4.51S10.7 55.836 17 49.574c-6.64-4.29-15.255-4.18-14.994 7.869.171 7.896 5.91 12.494 9.339 14.558 1.81-1.141 4.579-3.889 2.27-9.299" transform="translate(-301 -239) translate(230 100) translate(71 139) translate(368 30)"/>
                        <path fill="#E5E5E4" d="M17.243 49C10.702 55.284 8 57.649 8 57.649s3.734.003 5.73 4.525c2.395 5.43-.478 8.186-2.356 9.33.053.035.109.067.163.1 4.709 1.398 9.812-.716 13.2-9.333 1.326-4.832-2.556-10.187-7.494-13.271" transform="translate(-301 -239) translate(230 100) translate(71 139) translate(368 30)"/>
                        <path fill="#D62D2D" d="M32 27c1.675 3.248 2.8 6.969 2.697 10.51-.052 1.84-.477 3.595.035 5.419.214.762.433 1.54.812 2.259.19.36.423.702.702 1.019.111.127.838.669.826.793 0-1.304-.174-2.822.099-4.099-.022.104 1.676.99 1.833 1.087.694.431 1.38.88 1.996 1.391-1.35-.992-1.352-3.065-1.42-4.438-.07-1.45.059-2.949-.23-4.384-.665-3.321-2.257-6.537-3.973-9.557H32z" transform="translate(-301 -239) translate(230 100) translate(71 139) translate(368 30)"/>
                        <path fill="#D62D2D" d="M34 27.695c-3.574.29-7.294 1.26-10.285 3.117-1.554.964-2.86 2.183-4.667 2.688-.754.212-1.525.426-2.319.486-.399.028-.801.015-1.204-.049-.162-.026-.968-.332-1.07-.262 1.12-.654 2.505-1.275 3.471-2.135-.08.07-1.635-.84-1.795-.917-.697-.34-1.403-.661-2.131-.896 1.485.58 3.265-.459 4.476-1.092 1.278-.671 2.502-1.525 3.869-2.014 3.163-1.135 6.668-1.476 10.067-1.621L34 27.695z" transform="translate(-301 -239) translate(230 100) translate(71 139) translate(368 30)"/>
                        <path fill="#FF4343" d="M33.411 19.16s.354-14.05-6.697-9.106c0 0-12.545 7.015-3.339 12.193L29.125 25 34 21.72l-.589-2.56z" transform="translate(-301 -239) translate(230 100) translate(71 139) translate(368 30)"/>
                        <path fill="#D62D2D" d="M32.996 21s.27-10.304-3.585-9.993c0 0-2.201 2.067 3.585 9.993" transform="translate(-301 -239) translate(230 100) translate(71 139) translate(368 30)"/>
                        <path fill="#FF4343" d="M37.532 22.307s12.843-6.354 11.347 2.029c0 0-1.015 14.15-9.822 8.206L34 28.622l.907-5.737 2.625-.578z" transform="translate(-301 -239) translate(230 100) translate(71 139) translate(368 30)"/>
                        <path fill="#D62D2D" d="M37 23.088s8.495-4.305 10-.552c0 0-.72 2.887-10 .552M34.052 20S31 22.19 30 25.392c0 0 1.373 2.36 4.245 2.608 0 0 2.411-2.544 2.755-6.183L34.052 20z" transform="translate(-301 -239) translate(230 100) translate(71 139) translate(368 30)"/>
                    </g>
                </g>
            </g>
        </g>
    </g>
</svg>
