<svg xmlns="http://www.w3.org/2000/svg" xmlns:xlink="http://www.w3.org/1999/xlink" width="1175" height="728" viewBox="0 0 1175 728">
    <defs>
        <path id="prefix__a" d="M0 0.004L26 0.004 26 28.004 0 28.004z"/>
        <path id="prefix__c" d="M0 0.004L47 0.004 47 19.004 0 19.004z"/>
        <path id="prefix__e" d="M0 0.004L26 0.004 26 28.004 0 28.004z"/>
        <path id="prefix__g" d="M0 0.004L47 0.004 47 19.004 0 19.004z"/>
        <path id="prefix__i" d="M0 0.004L29 0.004 29 31.867 0 31.867z"/>
        <path id="prefix__k" d="M3.781 13.882L12.404 0 41.723 0 48.453 13.655 53 31.867 0 31.867z"/>
    </defs>
    <g fill="none" fill-rule="evenodd">
        <g transform="translate(1107 218)">
            <rect width="68" height="422" fill="#F7B962" rx="8"/>
            <text fill="#000" font-family="NotoSansCJKkr-Bold, Noto Sans CJK KR" font-size="14" font-weight="bold">
                <tspan x="28.06" y="127">글</tspan> <tspan x="28.06" y="147">로</tspan> <tspan x="28.06" y="167">벌</tspan>  <tspan x="29.201" y="207">H</tspan> <tspan x="29.726" y="227">R</tspan>  <tspan x="28.06" y="267">세</tspan> <tspan x="28.06" y="287">미</tspan> <tspan x="28.06" y="307">나</tspan>
            </text>
        </g>
        <g transform="translate(727 395)">
            <rect width="126" height="333" fill="#F7B962" rx="8"/>
            <rect width="94" height="30" x="16" y="45" fill="#FFF" rx="4"/>
            <rect width="94" height="30" x="16" y="85" fill="#FFF" rx="4"/>
            <rect width="94" height="30" x="16" y="124" fill="#FFF" rx="4"/>
            <rect width="94" height="30" x="16" y="164" fill="#FFF" rx="4"/>
            <rect width="94" height="30" x="16" y="204" fill="#FFF" rx="4"/>
            <rect width="94" height="30" x="16" y="243" fill="#FFF" rx="4"/>
            <rect width="94" height="30" x="16" y="283" fill="#FFF" rx="4"/>
            <text fill="#222" font-family="NotoSansCJKkr-Bold, Noto Sans CJK KR" font-size="12" font-weight="bold">
                <tspan x="52.46" y="65">전략</tspan>
            </text>
            <text fill="#222" font-family="NotoSansCJKkr-Bold, Noto Sans CJK KR" font-size="12" font-weight="bold">
                <tspan x="46.44" y="105">마케팅</tspan>
            </text>
            <text fill="#222" font-family="NotoSansCJKkr-Bold, Noto Sans CJK KR" font-size="12" font-weight="bold">
                <tspan x="52.46" y="144">재무</tspan>
            </text>
            <text fill="#222" font-family="NotoSansCJKkr-Bold, Noto Sans CJK KR" font-size="12" font-weight="bold">
                <tspan x="54.366" y="184">HR</tspan>
            </text>
            <text fill="#222" font-family="NotoSansCJKkr-Bold, Noto Sans CJK KR" font-size="12" font-weight="bold">
                <tspan x="52.46" y="224">구매</tspan>
            </text>
            <text fill="#222" font-family="NotoSansCJKkr-Bold, Noto Sans CJK KR" font-size="12" font-weight="bold">
                <tspan x="52.46" y="263">법무</tspan>
            </text>
            <text fill="#222" font-family="NotoSansCJKkr-Bold, Noto Sans CJK KR" font-size="12" font-weight="bold">
                <tspan x="30.402" y="303">IP(지식재산)</tspan>
            </text>
            <text fill="#000" font-family="NotoSansCJKkr-Bold, Noto Sans CJK KR" font-size="14" font-weight="bold">
                <tspan x="31.333" y="29">Function</tspan>
            </text>
        </g>
        <g transform="translate(873 395)">
            <rect width="126" height="333" fill="#F7B962" rx="8"/>
            <rect width="94" height="60" x="16" y="45" fill="#FFF" rx="4"/>
            <rect width="94" height="60" x="16" y="115" fill="#FFF" rx="4"/>
            <rect width="94" height="58" x="16" y="185" fill="#FFF" rx="4"/>
            <rect width="94" height="60" x="16" y="253" fill="#FFF" rx="4"/>
            <text fill="#222" font-family="NotoSansCJKkr-Bold, Noto Sans CJK KR" font-size="12" font-weight="bold">
                <tspan x="50.096" y="80">M&amp;A</tspan>
            </text>
            <text fill="#222" font-family="NotoSansCJKkr-Bold, Noto Sans CJK KR" font-size="12" font-weight="bold">
                <tspan x="41.42" y="150">사업개발</tspan>
            </text>
            <text fill="#222" font-family="NotoSansCJKkr-Bold, Noto Sans CJK KR" font-size="12" font-weight="bold">
                <tspan x="52.46" y="219">협상</tspan>
            </text>
            <text fill="#222" font-family="NotoSansCJKkr-Bold, Noto Sans CJK KR" font-size="12" font-weight="bold">
                <tspan x="25.304" y="288">Biz. Contract</tspan>
            </text>
            <text fill="#000" font-family="NotoSansCJKkr-Bold, Noto Sans CJK KR" font-size="14" font-weight="bold">
                <tspan x="37.373" y="29">Biz.전문</tspan>
            </text>
        </g>
        <g transform="translate(1019 395)">
            <rect width="68" height="333" fill="#F7B962" rx="8"/>
            <text fill="#000" font-family="NotoSansCJKkr-Bold, Noto Sans CJK KR" font-size="14" font-weight="bold">
                <tspan x="29.201" y="112">H</tspan> <tspan x="29.726" y="132">R</tspan>  <tspan x="28.06" y="172">컨</tspan> <tspan x="28.06" y="192">퍼</tspan> <tspan x="28.06" y="212">런</tspan> <tspan x="28.06" y="232">스</tspan>
            </text>
        </g>
        <g transform="translate(431 262)">
            <rect width="188" height="68" fill="#F6975E" rx="8"/>
            <rect width="188" height="68" y="133" fill="#F6975E" rx="8"/>
            <rect width="188" height="68" y="310" fill="#F6975E" rx="8"/>
            <rect width="68" height="245" x="208" y="133" fill="#F6975E" rx="8"/>
            <text fill="#000" font-family="NotoSansCJKkr-Bold, Noto Sans CJK KR" font-size="14" font-weight="bold">
                <tspan x="81.487" y="40">ELP</tspan>
            </text>
            <text fill="#000" font-family="NotoSansCJKkr-Bold, Noto Sans CJK KR" font-size="14" font-weight="bold">
                <tspan x="80.493" y="173">HLP</tspan>
            </text>
            <text fill="#000" font-family="NotoSansCJKkr-Bold, Noto Sans CJK KR" font-size="14" font-weight="bold">
                <tspan x="68.24" y="350">여성리더</tspan>
            </text>
            <text fill="#666" font-family="NotoSansCJKkr-Regular, Noto Sans CJK KR" font-size="12" letter-spacing="-.2">
                <tspan x="0" y="402">*ELP : Executive Leadership Program</tspan> <tspan x="0" y="420">*HLP : HIPO Team Leader Program</tspan> <tspan x="0" y="438">*FLP : Future Leadership Program</tspan>
            </text>
            <text fill="#000" font-family="NotoSansCJKkr-Bold, Noto Sans CJK KR" font-size="14" font-weight="bold">
                <tspan x="237.905" y="242">F</tspan> <tspan x="237.961" y="262">L</tspan> <tspan x="237.331" y="282">P</tspan>
            </text>
        </g>
        <g transform="translate(135 218)">
            <rect width="188" height="68" y="88" fill="#EA6957" rx="8"/>
            <rect width="68" height="156" x="208" fill="#EA6957" rx="8"/>
            <rect width="68" height="333" x="208" y="177" fill="#EA6957" rx="8"/>
            <rect width="188" height="68" y="265" fill="#EA6957" rx="8"/>
            <rect width="188" height="68" y="354" fill="#EA6957" rx="8"/>
            <rect width="188" height="68" y="442" fill="#EA6957" rx="8"/>
            <text fill="#FFF" font-family="NotoSansCJKkr-Bold, Noto Sans CJK KR" font-size="14" font-weight="bold">
                <tspan x="65.24" y="128">신임임원</tspan>
            </text>
            <text fill="#FFF" font-family="NotoSansCJKkr-Bold, Noto Sans CJK KR" font-size="14" font-weight="bold">
                <tspan x="236.06" y="54">영</tspan> <tspan x="236.06" y="74">입</tspan> <tspan x="236.06" y="94">임</tspan> <tspan x="236.06" y="114">원</tspan>
            </text>
            <text fill="#FFF" font-family="NotoSansCJKkr-Bold, Noto Sans CJK KR" font-size="14" font-weight="bold">
                <tspan x="236.06" y="300">영</tspan> <tspan x="236.06" y="320">입</tspan>  <tspan x="236.06" y="360">구</tspan> <tspan x="236.06" y="380">성</tspan> <tspan x="236.06" y="400">원</tspan>
            </text>
            <text fill="#FFF" font-family="NotoSansCJKkr-Bold, Noto Sans CJK KR" font-size="14" font-weight="bold">
                <tspan x="65.24" y="305">신임팀장</tspan>
            </text>
            <text fill="#FFF" font-family="NotoSansCJKkr-Bold, Noto Sans CJK KR" font-size="14" font-weight="bold">
                <tspan x="44.135" y="394">SKMS 강사양성</tspan>
            </text>
            <text fill="#FFF" font-family="NotoSansCJKkr-Bold, Noto Sans CJK KR" font-size="14" font-weight="bold">
                <tspan x="65.24" y="482">신입사원</tspan>
            </text>
        </g>
        <rect width="113" height="154" x="1" y="219" stroke="#4C4C4C" stroke-width="2" rx="8"/>
        <rect width="113" height="154" x="1" y="396" stroke="#4C4C4C" stroke-width="2" rx="8"/>
        <rect width="113" height="154" x="1" y="573" stroke="#4C4C4C" stroke-width="2" rx="8"/>
        <text fill="#000" font-family="NotoSansCJKkr-Bold, Noto Sans CJK KR" font-size="16" font-weight="bold" letter-spacing="-.4">
            <tspan x="43" y="306">임원</tspan>
        </text>
        <text fill="#000" font-family="NotoSansCJKkr-Bold, Noto Sans CJK KR" font-size="16" font-weight="bold" letter-spacing="-.4">
            <tspan x="43" y="483">팀장</tspan>
        </text>
        <text fill="#000" font-family="NotoSansCJKkr-Bold, Noto Sans CJK KR" font-size="16" font-weight="bold" letter-spacing="-.4">
            <tspan x="43" y="660">팀원</tspan>
        </text>
        <g>
            <g>
                <g transform="translate(135) translate(590) translate(176)">
                    <circle cx="50" cy="50" r="50" fill="#F7B962"/>
                    <path stroke="#050101" stroke-dasharray="4" stroke-width="4" d="M46.028 90.792c20.872 2.194 39.57-12.948 41.764-33.82 2.194-20.872-12.948-39.57-33.82-41.764-20.872-2.194-39.57 12.948-41.764 33.82-2.194 20.872 12.948 39.57 33.82 41.764z"/>
                    <path fill="#F7B962" d="M47 9H70V41H47zM50 100c16.2 0 30.867-10.667 44-32H6c13.133 21.333 27.8 32 44 32z"/>
                    <path fill="#DF9835" d="M17 78H83V82H17z"/>
                    <g transform="translate(23 15)">
                        <path stroke="#FFF" stroke-linecap="round" stroke-width="4" d="M6 37H48V65H6zM28.5 0H41.5V9H28.5zM6.171 26L47.829 26 54 37 0 37z"/>
                        <path fill="#FFC97E" stroke="#FFF" stroke-linecap="round" stroke-width="4" d="M16 40.32L27.798 20 39 40.32 39 65 16 65z"/>
                        <circle cx="27" cy="43" r="5" fill="#DF9835"/>
                        <path fill="#DF9835" d="M22 53H32V63H22z"/>
                        <path stroke="#FFF" stroke-width="4" d="M28.5 2L28.5 21"/>
                    </g>
                </g>
                <text fill="#222" font-family="NotoSansCJKkr-Bold, Noto Sans CJK KR" font-size="20" font-weight="bold" letter-spacing="-.5" transform="translate(135) translate(590)">
                    <tspan x="173" y="143">역량 School</tspan>
                </text>
                <path fill="#F7B962" fill-rule="nonzero" d="M225.703 181.97l.062 3.999-2 .031-.062-4 2-.03zm-.094-6l.063 4-2 .03-.063-3.999 2-.031zm-.094-6l.063 4-2 .031-.062-3.999 2-.031zm-.093-5.999l.062 4-2 .031-.062-4 2-.03zm-1.281-17.97c3.865-.06 7.048 3.024 7.108 6.89.055 3.526-2.506 6.483-5.89 7.022l.031 2.059-2 .03-.032-2.058c-3.4-.432-6.052-3.309-6.107-6.835-.06-3.865 3.024-7.048 6.89-7.108z" transform="translate(135) translate(590)"/>
                <path fill="#000" fill-rule="nonzero" d="M449.5 182.063v9h-1l-.001-4.001h-.5l.001-1h.5v-4h1zM1 182v4h4v1H.999v4H0l.002-9h1zm439 4.062h5v1h-5v-1zm-8-.002l5 .001v1h-5v-1zm-3 0v1h-5v-1h5zm-8-.001v1h-5v-1h5zm-8-.001v1h-5v-1h5zm-13-.002h5v1h-5v-1zm-8-.001h5v1h-5v-1zm-8-.001h5v1h-5v-1zm-8-.001h5v1h-5v-1zm-8-.002l5 .001v1h-5v-1zm-8 0h5v1h-5v-1zm-3-.001v1h-5v-1h5zm-8-.001v1h-5v-1h5zm-8-.001v1l-5-.001v-1h5zm-13-.002h5v1h-5v-1zm-8-.001h5v1h-5v-1zm-8-.001h5v1h-5v-1zm-8-.001h5v1h-5v-1zm-8-.002l5 .001v1h-5v-1zm-8 0h5v1h-5v-1zm-3-.001v1h-5v-1h5zm-8-.001v1h-5v-1h5zm-13-.002h5v1h-5v-1zm-8-.001h5v1h-5v-1zm-8-.001h5v1h-5v-1zm-8-.001h5v1h-5v-1zm-8-.001h5v1h-5v-1zm-8-.002l5 .001v1h-5v-1zm-3 0v1h-5v-1h5zm-8-.001v1h-5v-1h5zm-8-.001v1h-5v-1h5zm-13-.002h5v1h-5v-1zm-8-.001h5v1h-5v-1zm-8-.001h5v1h-5v-1zm-8-.001h5v1h-5v-1zm-8-.002l5 .001v1h-5v-1zm-8 0h5v1h-5v-1zm-3-.001v1h-5v-1h5zm-8-.001v1h-5v-1h5zm-8-.001v1l-5-.001v-1h5zm-13-.002h5v1h-5v-1zm-8-.001h5v1h-5v-1zm-8-.001h5v1h-5v-1zm-8-.001h5v1h-5v-1zm-8-.002l5 .001v1h-5v-1zm-8 0h5v1h-5v-1zm-3-.001v1h-5v-1h5zm-8-.001v1h-5v-1h5zm-13-.002h5v1h-5v-1zm-8-.001h5v1h-5v-1zm-8-.001h5v1h-5v-1zm-8-.001h5v1h-5v-1zm-8-.001h5v1h-5v-1zm-8-.002l5 .001v1h-5v-1zm-3 0v1H8v-1h5z" transform="translate(135) translate(590)"/>
            </g>
            <g>
                <g transform="translate(135) translate(295) translate(90)">
                    <circle cx="50" cy="50" r="50" fill="#F68743"/>
                    <g opacity=".601">
                        <g transform="translate(42 22) translate(11)">
                            <mask id="prefix__b" fill="#fff">
                                <use xlink:href="#prefix__a"/>
                            </mask>
                            <path fill="#FFF" d="M13 4.504c-4.963 0-9 3.918-9 8.734 0 4.966 4.238 11.266 9 11.266s9-6.3 9-11.266c0-4.816-4.037-8.734-9-8.734m0 23.5c-7.201 0-13-8.125-13-14.852C0 6.453 5.833 1.004 13 1.004s13 5.45 13 12.148c0 6.727-5.799 14.852-13 14.852" mask="url(#prefix__b)"/>
                        </g>
                        <g transform="translate(42 22) translate(0 29)">
                            <mask id="prefix__d" fill="#fff">
                                <use xlink:href="#prefix__c"/>
                            </mask>
                            <path fill="#FFF" d="M6 15.2h35v-1.822c0-2.184-1.264-4.178-3.223-5.09L28.086 4h-8.832L9.194 8.273C7.253 9.19 6 11.18 6 13.35V15.2zm39 3.304H2v-4.829c0-3.508 1.966-6.722 5.01-8.188l.062-.029L18.921.504l9.159.103 11.866 4.89C43.016 6.954 45 10.177 45 13.705v4.799z" mask="url(#prefix__d)"/>
                        </g>
                    </g>
                    <g opacity=".601">
                        <g transform="translate(11 22) translate(11)">
                            <mask id="prefix__f" fill="#fff">
                                <use xlink:href="#prefix__e"/>
                            </mask>
                            <path fill="#FFF" d="M13 4.504c-4.963 0-9 3.918-9 8.734 0 4.966 4.238 11.266 9 11.266s9-6.3 9-11.266c0-4.816-4.037-8.734-9-8.734m0 23.5c-7.201 0-13-8.125-13-14.852C0 6.453 5.833 1.004 13 1.004s13 5.45 13 12.148c0 6.727-5.799 14.852-13 14.852" mask="url(#prefix__f)"/>
                        </g>
                        <g transform="translate(11 22) translate(0 29)">
                            <mask id="prefix__h" fill="#fff">
                                <use xlink:href="#prefix__g"/>
                            </mask>
                            <path fill="#FFF" d="M6 15.2h35v-1.822c0-2.184-1.264-4.178-3.223-5.09L28.086 4h-8.832L9.194 8.273C7.253 9.19 6 11.18 6 13.35V15.2zm39 3.304H2v-4.829c0-3.508 1.966-6.722 5.01-8.188l.062-.029L18.921.504l9.159.103 11.866 4.89C43.016 6.954 45 10.177 45 13.705v4.799z" mask="url(#prefix__h)"/>
                        </g>
                    </g>
                    <ellipse cx="50.5" cy="44" fill="#F68743" rx="17.5" ry="19"/>
                    <path fill="#F68743" d="M25.04 64L33.36 61 33.36 48.004 66.64 48.004 66.12 60.004 73.92 61.504 76 83 24 83z"/>
                    <g transform="translate(36 27)">
                        <mask id="prefix__j" fill="#fff">
                            <use xlink:href="#prefix__i"/>
                        </mask>
                        <path fill="#FFF" d="M14.5 5.125c-5.535 0-10.038 4.458-10.038 9.939 0 5.65 4.727 12.82 10.038 12.82 5.312 0 10.038-7.17 10.038-12.82 0-5.48-4.503-9.939-10.038-9.939m0 26.742c-8.032 0-14.5-9.246-14.5-16.9C0 7.343 6.506 1.141 14.5 1.141S29 7.344 29 14.966c0 7.655-6.468 16.9-14.5 16.9" mask="url(#prefix__j)"/>
                    </g>
                    <g transform="translate(23 49)">
                        <mask id="prefix__l" fill="#fff">
                            <use xlink:href="#prefix__k"/>
                        </mask>
                        <path fill="#FFF" d="M6.766 27.537h39.468v-2.072c0-2.485-1.426-4.755-3.634-5.793l-8.54-3.43v5.661l-7.776-3.434-7.343 3.504v-5.815l-8.574 3.497c-2.188 1.045-3.601 3.308-3.601 5.78v2.102zm43.979 3.76H2.255v-5.494c0-3.992 2.217-7.65 5.65-9.318l.07-.033 13.361-5.637v6.182l4.884-2.41 5.445 2.487v-6.141l13.38 5.563c3.463 1.658 5.7 5.326 5.7 9.341v5.46z" mask="url(#prefix__l)"/>
                    </g>
                    <g fill="#050101">
                        <path d="M3 0H6V9H3z" transform="translate(82 34)"/>
                        <path d="M3 0L6 0 6 9 3 9z" transform="translate(82 34) rotate(90 4.5 4.5)"/>
                    </g>
                    <g fill="#050101">
                        <path d="M4 0H7V11H4z" transform="translate(9 43)"/>
                        <path d="M4 0H7V11H4z" transform="translate(9 43) rotate(90 5.5 5.5)"/>
                    </g>
                </g>
                <path fill="#F68743" fill-rule="nonzero" d="M140.703 181.97l.062 3.999-2 .031-.062-4 2-.03zm-.094-6l.063 4-2 .03-.063-3.999 2-.031zm-.094-6l.063 4-2 .031-.062-3.999 2-.031zm-.093-5.999l.062 4-2 .031-.062-4 2-.03zm-1.281-17.97c3.865-.06 7.048 3.024 7.108 6.89.055 3.526-2.506 6.483-5.89 7.022l.031 2.059-2 .03-.032-2.058c-3.4-.432-6.052-3.309-6.107-6.835-.06-3.865 3.024-7.048 6.89-7.108z" transform="translate(135) translate(295)"/>
                <text fill="#222" font-family="NotoSansCJKkr-Bold, Noto Sans CJK KR" font-size="20" font-weight="bold" letter-spacing="-.5" transform="translate(135) translate(295) translate(72 120)">
                    <tspan x="0" y="23">미래 경영자 육성</tspan>
                </text>
                <path fill="#000" fill-rule="nonzero" d="M1 182v4h4v1H1v4H0v-9h1zm277 0v9h-1v-4h-5v-1h5v-4h1zm-265 4v1H8v-1h5zm8 0v1h-5v-1h5zm8 0v1h-5v-1h5zm8 0v1h-5v-1h5zm8 0v1h-5v-1h5zm8 0v1h-5v-1h5zm8 0v1h-5v-1h5zm8 0v1h-5v-1h5zm8 0v1h-5v-1h5zm8 0v1h-5v-1h5zm8 0v1h-5v-1h5zm8 0v1h-5v-1h5zm8 0v1h-5v-1h5zm8 0v1h-5v-1h5zm8 0v1h-5v-1h5zm8 0v1h-5v-1h5zm8 0v1h-5v-1h5zm8 0v1h-5v-1h5zm8 0v1h-5v-1h5zm8 0v1h-5v-1h5zm8 0v1h-5v-1h5zm8 0v1h-5v-1h5zm8 0v1h-5v-1h5zm8 0v1h-5v-1h5zm8 0v1h-5v-1h5zm8 0v1h-5v-1h5zm8 0v1h-5v-1h5zm8 0v1h-5v-1h5zm8 0v1h-5v-1h5zm8 0v1h-5v-1h5zm8 0v1h-5v-1h5zm8 0v1h-5v-1h5zm8 0v1h-5v-1h5z" transform="translate(135) translate(295)"/>
            </g>
            <g>
                <g transform="translate(135) translate(.5) translate(89)">
                    <circle cx="50" cy="50" r="50" fill="#EA6957"/>
                    <g>
                        <path fill="#000" d="M43.546 56.6c-.341 0-.684-.13-.953-.393l-7.5-7.07c-.565-.55-.596-1.475-.068-2.065.526-.59 1.41-.624 1.975-.072l7.5 7.07c.565.55.596 1.474.069 2.064-.276.31-.195.073-.569.073M47.639 51.61l-9.443-9.149c-.577-.556-.62-1.505-.096-2.119.524-.613 1.418-.658 1.995-.1l9.443 9.148c.577.557.62 1.506.095 2.119-.279.325-.662.491-1.046.491-.338 0-.678-.129-.948-.39zM52.639 46.61l-8.763-7.89c-.577-.557-.62-1.506-.096-2.12.524-.613 1.418-.658 1.994-.1l8.764 7.89c.577.557.62 1.506.095 2.119-.279.325-.662.491-1.046.491-.338 0-.678-.129-.948-.39zM11.071 34.995c-1.089-2.607-1.965-5.984-1.998-6.088-.258-.77.192-1.593 1.004-1.838.81-.245 1.68.181 1.939.953.009.025.88 3.386 1.927 5.894.315.752-.074 1.603-.867 1.901-.186.07-.38.104-.568.104-.615 0-1.197-.352-1.437-.926z" transform="translate(14.5 25)"/>
                        <path fill="#000" d="M35.806 58.55c-.472-.15-.497.34-3.728-2.722-.565-.536-.604-1.444-.086-2.028.518-.584 1.395-.626 1.96-.09 2.435 2.308 2.543 1.99 2.745 2.118 1.781.526 5.574.386 6.704-.783 1.553-1.606 8.696-9.684 11.044-12.337l.477-.54c.7-.792.056-3.324-.715-4.998L37.92 22c-.576-.523-.634-1.43-.129-2.026.505-.597 1.381-.657 1.958-.135l16.492 15.358c.133.12.241.264.322.425.474.957 2.724 5.864.405 8.485l-.477.54c-4.093 4.626-9.698 10.948-11.128 12.429C43.984 58.505 41.485 59 39.258 59c-1.355 0-2.608-.183-3.452-.45zM29.43 19c-.117 0-.238-.015-.358-.046-3.407-.884-6.715-1.474-6.748-1.48-.858-.152-1.44-1.048-1.304-2 .136-.954.946-1.604 1.798-1.452.14.025 3.448.615 6.968 1.528.845.22 1.37 1.159 1.172 2.099-.168.806-.815 1.351-1.528 1.351" transform="translate(14.5 25)"/>
                        <path fill="#FFF" d="M55 33.916l-1.907-1.908 3.58-3.589c.671-.672 2.212-7.114 2.483-8.465.146-.73.852-1.205 1.588-1.058.73.146 1.204.857 1.058 1.588-.139.693-1.734 8.355-3.221 9.842L55 33.916zM31.238 48.916c-.451 0-.871.179-1.182.503l-1.67 1.746c-.301.313-.46.724-.45 1.157.011.431.192.835.507 1.132l.195.185c.631.596 1.705.57 2.306-.058l1.67-1.745c.3-.314.46-.725.45-1.157-.012-.432-.192-.834-.507-1.132l-.194-.183c-.306-.29-.705-.448-1.125-.448M29.762 57c-1.177 0-2.294-.444-3.148-1.249l-.194-.184c-.884-.835-1.388-1.961-1.419-3.172-.03-1.211.416-2.362 1.257-3.24l1.67-1.744c.858-.896 2.065-1.411 3.31-1.411 1.177 0 2.294.444 3.146 1.25l.194.181c.886.837 1.39 1.964 1.42 3.175.031 1.21-.415 2.362-1.256 3.239l-1.671 1.745c-.858.896-2.064 1.41-3.31 1.41" transform="translate(14.5 25)"/>
                        <path fill="#FFF" d="M26.237 43.916c-.451 0-.871.178-1.182.503l-1.672 1.746c-.619.646-.593 1.673.059 2.29l.193.182c.636.599 1.707.57 2.308-.057l1.67-1.744c.301-.314.46-.725.45-1.157-.011-.432-.191-.835-.507-1.133l-.195-.185c-.305-.287-.703-.445-1.124-.445M24.76 52c-1.176 0-2.295-.444-3.147-1.25l-.194-.182c-1.826-1.725-1.9-4.602-.163-6.413l1.67-1.745c.86-.897 2.066-1.41 3.311-1.41 1.177 0 2.295.443 3.147 1.249l.196.184c.884.835 1.389 1.961 1.419 3.173.03 1.211-.416 2.361-1.257 3.239l-1.67 1.745c-.859.896-2.066 1.41-3.312 1.41" transform="translate(14.5 25)"/>
                        <path fill="#FFF" d="M21.238 38.916c-.45 0-.87.179-1.18.503l-1.673 1.746c-.62.647-.595 1.674.058 2.29l.194.184c.633.596 1.707.57 2.307-.058l1.672-1.745c.62-.647.594-1.674-.058-2.29l-.194-.183c-.306-.289-.706-.447-1.126-.447M19.761 47c-1.177 0-2.295-.443-3.148-1.249l-.195-.184c-1.826-1.724-1.898-4.6-.161-6.412l1.67-1.745c.859-.896 2.066-1.41 3.311-1.41 1.177 0 2.295.444 3.148 1.25l.195.182c1.826 1.724 1.9 4.6.164 6.413l-1.673 1.745c-.858.897-2.065 1.41-3.311 1.41" transform="translate(14.5 25)"/>
                        <path fill="#FFF" d="M16.24 33.916c-.452 0-.872.178-1.182.502l-1.672 1.747c-.3.313-.459.724-.448 1.157.01.432.191.834.506 1.132l.194.183c.635.599 1.707.572 2.307-.056l1.671-1.745c.62-.648.594-1.674-.058-2.29l-.195-.184c-.304-.288-.703-.446-1.123-.446M14.762 42c-1.176 0-2.294-.443-3.146-1.249l-.194-.182c-.886-.837-1.39-1.964-1.42-3.174-.031-1.212.415-2.362 1.257-3.24l1.67-1.746c.859-.896 2.065-1.409 3.31-1.409 1.178 0 2.295.443 3.148 1.248l.196.185c1.824 1.724 1.897 4.6.162 6.412l-1.672 1.745c-.858.897-2.065 1.41-3.31 1.41M27.895 30c-1.686 0-3.146-.75-4.013-1.982-.711-1.009-1.358-2.838-.398-5.704.885-2.644 9.762-10.44 13.493-11.308.47-.109 1.175-.178 2.069-.259 1.308-.117 4.784-.432 5.368-1.097.43-.672 1.3-.85 1.953-.407.653.442.828 1.355.397 2.026-1.072 1.677-3.894 2.055-7.473 2.376-.692.062-1.409.126-1.69.19-2.826.658-10.874 7.813-11.443 9.405-.438 1.31-.434 2.382.014 3.017.46.653 1.318.742 1.781.729 1.25-.021 2.714-1.251 4.006-2.336.471-.396.96-.805 1.435-1.158.26-.193.788-.651 1.347-1.136 3.127-2.716 4.447-3.678 5.547-3.63.782.029 1.392.705 1.363 1.51-.027.747-.595 1.342-1.302 1.4-.705.274-2.855 2.14-3.784 2.948-.653.567-1.17 1.016-1.52 1.275-.406.3-.839.714-1.297 1.1C32.1 28.342 30.233 30 28 30h-.106z" transform="translate(14.5 25)"/>
                        <path stroke="#000" stroke-width="3" d="M18.064 5.788L24.836 12.793 6.805 31.793 0 25z" transform="translate(14.5 25)"/>
                        <path stroke="#FFF" stroke-width="3" d="M50.396 0L44 6.426 64.759 24 71 17.5z" transform="translate(14.5 25)"/>
                    </g>
                    <circle cx="56.5" cy="14" r="5" fill="#F69284"/>
                    <circle cx="86" cy="68.5" r="6.5" fill="#F69284"/>
                    <circle cx="49" cy="31.5" r="3.5" fill="#F69284"/>
                    <circle cx="25.5" cy="27" r="2" fill="#F69284"/>
                    <circle cx="86.5" cy="41" r="5" fill="#F69284"/>
                    <circle cx="17" cy="61.5" r="6.5" fill="#F69284"/>
                </g>
                <text fill="#222" font-family="NotoSansCJKkr-Bold, Noto Sans CJK KR" font-size="20" font-weight="bold" letter-spacing="-.5" transform="translate(135) translate(.5)">
                    <tspan x="59" y="143">SKMS / SK Values</tspan>
                </text>
                <path fill="#EA6957" fill-rule="nonzero" d="M139.5 182v4h-2v-4h2zm0-6v4h-2v-4h2zm0-6v4h-2v-4h2zm0-6v4h-2v-4h2zm-1-18c3.866 0 7 3.134 7 7 0 3.526-2.607 6.443-5.999 6.929L139.5 162h-2v-2.07c-3.392-.486-6-3.404-6-6.93 0-3.866 3.134-7 7-7z" transform="translate(135) translate(.5)"/>
                <path fill="#000" fill-rule="nonzero" d="M276.001 182h1l-.002 9h-1v-4.001h-4.5l.001-1 4.5.001.001-4zm-275.5-.063l-.001 4 4 .001v1l-4.001-.001v4h-1l.002-9h1zm263 4.06l5 .001-.001 1h-5v-1zm-8-.002l5 .001-.001 1h-5v-1zm-8-.002l5 .002-.001 1-5-.002v-1zm-8-.001h5l-.001 1h-5v-1zm-8-.002h5l-.001 1h-5v-1zm-8-.002l5 .001-.001 1-5-.001v-1zm-8-.002l5 .001-.001 1h-5v-1zm-8-.002l5 .002-.001 1-5-.002v-1zm-8-.001h5l-.001 1h-5v-1zm-8-.002h5l-.001 1h-5v-1zm-8-.002l5 .001-.001 1-5-.001v-1zm-8-.002l5 .001-.001 1h-5v-1zm-8-.002l5 .001-.001 1h-5v-1zm-8-.001h5l-.001 1h-5v-1zm-8-.002h5l-.001 1h-5v-1zm-8-.002l5 .001-.001 1-5-.001v-1zm-8-.002l5 .001-.001 1h-5v-1zm-8-.002l5 .001-.001 1h-5v-1zm-8-.002l5 .002-.001 1-5-.002v-1zm-8-.001h5l-.001 1h-5v-1zm-8-.002h5l-.001 1h-5v-1zm-8-.002l5 .001-.001 1-5-.001v-1zm-8-.002l5 .001-.001 1h-5v-1zm-8-.002l5 .002-.001 1-5-.002v-1zm-8-.001h5l-.001 1h-5v-1zm-8-.002h5l-.001 1h-5v-1zm-8-.002l5 .001-.001 1-5-.001v-1zm-8-.002l5 .001-.001 1h-5v-1zm-8-.002l5 .001-.001 1h-5v-1zm-8-.001h5l-.001 1h-5v-1zm-8-.002h5l-.001 1h-5v-1zm-8-.002l5 .001-.001 1-5-.001v-1zm-8-.002l5 .001-.001 1h-5v-1z" transform="translate(135) translate(.5)"/>
            </g>
        </g>
    </g>
</svg>
