<svg xmlns="http://www.w3.org/2000/svg" width="47" height="16" viewBox="0 0 47 16">
    <g fill="#000" fill-rule="evenodd">
        <path d="M8.621 3.449a6.236 6.236 0 0 0-.737-.405 6.438 6.438 0 0 0-.808-.315 6.362 6.362 0 0 0-.829-.205 4.576 4.576 0 0 0-1.736.02 2.392 2.392 0 0 0-.741.284 1.42 1.42 0 0 0-.488.477c-.116.19-.175.412-.175.666 0 .189.027.358.08.508.053.15.124.284.216.403.09.119.197.225.314.32.118.095.244.182.375.262.317.189.65.378.996.57.346.19.692.383 1.036.573.345.19.679.384 1.002.575.322.193.62.385.894.574.364.253.673.518.925.797.251.279.456.571.613.879.156.309.27.632.339.97.068.339.103.692.103 1.059 0 .53-.072 1.008-.215 1.438a3.92 3.92 0 0 1-.603 1.15c-.257.336-.56.627-.913.874a5.418 5.418 0 0 1-1.149.607c-.414.159-.85.277-1.308.354A8.245 8.245 0 0 1 4.42 16c-.452 0-.902-.025-1.348-.078a8.088 8.088 0 0 1-1.98-.5 2.172 2.172 0 0 1-.547-.298 1.353 1.353 0 0 1-.38-.443 1.363 1.363 0 0 1-.143-.654c0-.205.036-.385.107-.54.07-.155.169-.286.295-.392.125-.106.274-.186.444-.239.169-.052.35-.079.543-.079.186 0 .37.027.55.077.181.052.358.108.534.174.375.131.746.224 1.11.28.365.054.695.083.99.083.285 0 .568-.025.849-.072.28-.046.532-.132.755-.254.22-.124.402-.292.54-.506.14-.213.208-.49.208-.826a1.416 1.416 0 0 0-.27-.849 1.78 1.78 0 0 0-.284-.311 3.344 3.344 0 0 0-.343-.259c-.15-.098-.33-.21-.544-.334a58.57 58.57 0 0 0-1.408-.794c-.248-.138-.483-.265-.703-.386-.22-.122-.42-.232-.594-.333-.175-.1-.31-.18-.405-.24a8.843 8.843 0 0 1-.99-.743 4.222 4.222 0 0 1-.754-.855A3.767 3.767 0 0 1 .17 5.576 4.779 4.779 0 0 1 0 4.243c0-.537.073-1.015.219-1.432A3.58 3.58 0 0 1 1.729.913c.346-.22.72-.396 1.124-.53.403-.135.823-.232 1.26-.293a10.427 10.427 0 0 1 3.79.202 8.187 8.187 0 0 1 1.966.75L8.62 3.45zM16.238.182v9.146c0 .474.01.892.03 1.257.021.365.062.688.123.968.06.279.141.523.243.729.102.205.235.386.401.54.159.152.33.274.51.366.182.095.366.164.552.213.186.05.372.084.557.1.185.016.361.025.527.025.151 0 .316-.016.494-.048a3.241 3.241 0 0 0 1.073-.402 2.42 2.42 0 0 0 .476-.372c.15-.151.272-.326.36-.527.089-.202.157-.44.203-.719.048-.277.078-.6.091-.967.014-.366.02-.791.02-1.277V1.47c0-.237.04-.448.116-.63.077-.185.186-.34.326-.465.14-.123.303-.218.491-.28.19-.062.395-.094.618-.094.234 0 .445.035.637.103.19.067.354.164.489.292.136.127.241.28.314.462.075.182.111.386.111.612v7.677a38.204 38.204 0 0 1-.011.965 9.961 9.961 0 0 1-.13 1.407 6.154 6.154 0 0 1-.375 1.316c-.249.61-.567 1.116-.953 1.52a4.851 4.851 0 0 1-1.288.974 5.506 5.506 0 0 1-1.506.52 8.472 8.472 0 0 1-1.601.152 9.25 9.25 0 0 1-1.288-.093 6.902 6.902 0 0 1-1.29-.312 6.209 6.209 0 0 1-1.207-.57 4.605 4.605 0 0 1-1.033-.868 4.62 4.62 0 0 1-.653-.922 4.886 4.886 0 0 1-.396-.985 6.178 6.178 0 0 1-.201-1.063c-.038-.369-.06-.754-.063-1.156A17.011 17.011 0 0 1 13 9.595V.182h3.238zM31.98 0l3.203 5.98.416.787a118.895 118.895 0 0 1 1.027 2.01c.185.37.37.747.554 1.128.184.381.365.763.541 1.148.177.385.343.76.5 1.125h.094c-.063-.564-.119-1.12-.167-1.665a59.775 59.775 0 0 1-.127-1.653 60.493 60.493 0 0 1-.106-3.596V0H41v13.77c0 .456-.064.815-.194 1.08a1.737 1.737 0 0 1-.362.5 2.065 2.065 0 0 1-.495.349 2.42 2.42 0 0 1-.588.207 3 3 0 0 1-.645.07c-.448 0-.865-.113-1.251-.338-.388-.224-.724-.595-1.01-1.11l-2.662-4.784c-.227-.41-.459-.834-.694-1.274A49.524 49.524 0 0 1 31.6 5.42a51.471 51.471 0 0 1-.822-1.921h-.111a67.906 67.906 0 0 1 .311 3.586 57.955 57.955 0 0 1 .106 3.327v3.873c0 .277-.03.51-.09.702a1.51 1.51 0 0 1-.287.515c-.125.15-.282.271-.473.36-.19.092-.422.138-.692.138-.271 0-.503-.046-.695-.137-.193-.09-.35-.21-.476-.36a1.458 1.458 0 0 1-.283-.516 2.405 2.405 0 0 1-.089-.702V0h3.98zM47 0v14.173c0 .295-.03.542-.089.747-.06.203-.15.386-.273.548a1.343 1.343 0 0 1-.467.388c-.189.096-.412.144-.671.144-.259 0-.483-.048-.673-.144a1.343 1.343 0 0 1-.466-.388 1.7 1.7 0 0 1-.272-.548 2.68 2.68 0 0 1-.089-.747V0h3z"/>
    </g>
</svg>
