<svg width="50" height="50" viewBox="0 0 50 50" xmlns="http://www.w3.org/2000/svg" xmlns:xlink="http://www.w3.org/1999/xlink">
    <defs>
        <circle id="a" cx="25" cy="25" r="25"/>
    </defs>
    <g fill="none" fill-rule="evenodd">
        <mask id="b" fill="#fff">
            <use xlink:href="#a"/>
        </mask>
        <use fill="#DDD" xlink:href="#a"/>
        <path d="m23.157 42.395-3.628 1.94a1.704 1.704 0 0 1-1.603-.011l-4.077-2.252a.549.549 0 0 0-.569.015.611.611 0 0 0-.28.52v4.377c0 .224.118.43.31.535l9.841 5.41a.546.546 0 0 0 .569-.017.61.61 0 0 0 .28-.517v-9.462a.605.605 0 0 0-.278-.514.554.554 0 0 0-.565-.024M36.151 42.072l-4.077 2.25a1.691 1.691 0 0 1-1.603.012l-3.628-1.94a.551.551 0 0 0-.565.024.608.608 0 0 0-.278.515v9.462a.61.61 0 0 0 .28.518.55.55 0 0 0 .569.018l9.842-5.411a.608.608 0 0 0 .309-.535v-4.38a.61.61 0 0 0-.28-.518.549.549 0 0 0-.569-.015" fill="#FFF" mask="url(#b)"/>
        <g transform="translate(7 1.686)">
            <path fill="#CECECE" d="M18 26.314 6.72 31.57 18 37.314z"/>
            <path d="M12.314 5.686a7.909 7.909 0 0 0 0 11.255 8.029 8.029 0 0 0 4.018 2.158l1.435 2.515a.271.271 0 0 0 .464.006l1.546-2.55a8.035 8.035 0 0 0 3.91-2.13 7.909 7.909 0 0 0 0-11.254c-3.136-3.102-8.238-3.102-11.373 0" fill="#FFF"/>
            <rect fill="#DDD" x="17" y="6.314" width="2" height="6" rx="1"/>
            <circle fill="#DDD" cx="18" cy="14.314" r="1"/>
            <path d="m8 31.314 10-5 10 5-10 5-10-5zm22.854.257 4.818-2.378a.578.578 0 0 0 .328-.511.577.577 0 0 0-.32-.515L24.33 22.38a.613.613 0 0 0-.553-.003L18 25.229l-5.78-2.851a.613.613 0 0 0-.552.003L.319 28.167c-.198.1-.32.3-.319.515a.577.577 0 0 0 .326.511l4.82 2.378-4.82 2.378A.577.577 0 0 0 0 34.46a.576.576 0 0 0 .32.515l11.348 5.786a.63.63 0 0 0 .553.003L18 37.914l5.778 2.85a.623.623 0 0 0 .553-.003l11.349-5.786c.198-.1.321-.3.32-.515a.578.578 0 0 0-.328-.511l-4.818-2.378z" fill="#FFF"/>
        </g>
    </g>
</svg>
