<svg width="80" height="80" viewBox="0 0 80 80" xmlns="http://www.w3.org/2000/svg" xmlns:xlink="http://www.w3.org/1999/xlink">
    <defs>
        <circle id="a" cx="40" cy="40" r="40"/>
    </defs>
    <g fill="none" fill-rule="evenodd">
        <mask id="b" fill="#fff">
            <use xlink:href="#a"/>
        </mask>
        <use fill="#DDD" xlink:href="#a"/>
        <path d="m37.668 68.217-5.953 2.887a3.05 3.05 0 0 1-2.631-.016l-6.69-3.352a.98.98 0 0 0-.933.023.892.892 0 0 0-.46.773v6.516c0 .333.194.639.507.795l16.15 8.053a.975.975 0 0 0 .933-.027.89.89 0 0 0 .46-.768V69.018a.883.883 0 0 0-.456-.765.99.99 0 0 0-.927-.036M57.611 67.11l-6.671 3.48h-.002a2.911 2.911 0 0 1-2.622.016l-5.937-2.996a.947.947 0 0 0-.924.036.928.928 0 0 0-.455.796v14.623c0 .33.174.63.459.8a.94.94 0 0 0 .488.135.938.938 0 0 0 .442-.107l16.105-8.363a.931.931 0 0 0 .506-.826v-6.769a.932.932 0 0 0-.459-.8.943.943 0 0 0-.93-.024" fill="#FFF" mask="url(#b)"/>
        <g transform="translate(12 5.03)">
            <path fill="#CECECE" d="M28 41.574 12.102 49.47l15.897 7.898z"/>
            <path d="M20.514 8.485c-4.679 4.68-4.679 12.292 0 16.97a11.941 11.941 0 0 0 5.996 3.255l2.14 3.792a.4.4 0 0 0 .693.01l2.308-3.844c2.215-.5 4.23-1.608 5.834-3.212 4.678-4.679 4.678-12.292 0-16.97-4.68-4.68-12.292-4.68-16.971 0" fill="#FFF"/>
            <rect fill="#DDD" x="26.999" y="9.971" width="4" height="10" rx="2"/>
            <circle fill="#DDD" cx="28.999" cy="23.971" r="2"/>
            <path d="M12.102 49.47 28 41.575l15.897 7.897L28 57.368 12.102 49.47zm43.388 3.725-7.494-3.724 7.494-3.725a.906.906 0 0 0 .51-.801.904.904 0 0 0-.498-.807l-17.653-9.062a.948.948 0 0 0-.861-.006L28 39.536l-8.99-4.466a.948.948 0 0 0-.86.006L.497 44.138a.903.903 0 0 0-.497.807.904.904 0 0 0 .508.8l7.496 3.726-7.496 3.724a.904.904 0 0 0-.508.801.903.903 0 0 0 .497.807l17.653 9.062a.962.962 0 0 0 .86.005L28 59.406l8.988 4.466a.964.964 0 0 0 .86-.006l17.654-9.062c.308-.158.5-.47.498-.807a.906.906 0 0 0-.51-.8z" fill="#FFF"/>
        </g>
    </g>
</svg>
