<svg xmlns="http://www.w3.org/2000/svg" xmlns:xlink="http://www.w3.org/1999/xlink" width="80" height="80" viewBox="0 0 80 80">
    <defs>
        <circle id="rq6q12gbva" cx="40" cy="40" r="40"/>
    </defs>
    <g fill="none" fill-rule="evenodd">
        <g>
            <g>
                <g>
                    <g>
                        <g transform="translate(-250 -576) translate(100 317) translate(35 259) translate(115)">
                            <mask id="0m3rx01rgb" fill="#fff">
                                <use xlink:href="#rq6q12gbva"/>
                            </mask>
                            <use fill="#D3D9E4" xlink:href="#rq6q12gbva"/>
                            <path fill="#FFF" d="M37.668 68.217l-5.953 2.887c-.817.392-1.828.387-2.631-.016l-6.69-3.352c-.297-.151-.65-.14-.933.023-.287.164-.46.458-.46.773v6.516c0 .333.194.639.507.795l16.15 8.053c.137.07.289.105.443.105.169 0 .338-.043.49-.132.285-.163.46-.453.46-.768V69.018c0-.314-.173-.605-.456-.765-.283-.166-.637-.179-.927-.036M57.611 67.11l-6.671 3.48h-.002c-.798.42-1.811.428-2.622.016l-5.937-2.996c-.291-.15-.644-.136-.924.036-.283.168-.455.47-.455.796v14.623c0 .33.174.63.459.8.151.092.32.135.488.135.152 0 .305-.034.442-.107l16.105-8.363c.313-.162.506-.48.506-.826v-6.769c0-.325-.172-.63-.459-.8-.282-.17-.636-.181-.93-.024" mask="url(#0m3rx01rgb)"/>
                        </g>
                        <g transform="translate(-250 -576) translate(100 317) translate(35 259) translate(115) translate(12 5)">
                            <path fill="#C5CDDA" d="M28.001 41.603L12.102 49.5 28 57.397z"/>
                            <path fill="#FFF" d="M29 5c-6.617 0-12 5.383-12 12 0 2.336.67 4.593 1.938 6.54l-1.167 4.196c-.037.138 0 .284.099.386.1.103.246.143.384.11l4.35-1.086C24.524 28.36 26.732 29 29 29c6.617 0 12-5.383 12-12S35.617 5 29 5" transform="rotate(-45 29 17)"/>
                            <rect width="4" height="10" x="27" y="10" fill="#C5CDDA" rx="2"/>
                            <circle cx="29" cy="24" r="2" fill="#C5CDDA"/>
                            <path fill="#FFF" d="M12.102 49.5l15.899-7.897L43.897 49.5l-15.896 7.897L12.102 49.5zm43.39 3.725L47.995 49.5l7.495-3.725c.31-.154.508-.464.51-.8.002-.338-.19-.65-.499-.807L37.85 35.105c-.272-.14-.59-.141-.86-.005L28 39.566 19.01 35.1c-.269-.136-.59-.134-.86.005L.496 44.168c-.308.157-.498.47-.496.806.002.337.198.647.507.801L8.005 49.5.508 53.225c-.31.154-.505.464-.507.8-.002.338.188.65.496.807l17.653 9.063c.137.069.288.105.437.105.146 0 .291-.034.424-.1L28 59.434l8.988 4.466c.132.066.278.1.425.1.15 0 .299-.036.435-.105l17.653-9.063c.308-.157.5-.47.499-.806-.002-.337-.2-.647-.51-.801z"/>
                        </g>
                    </g>
                </g>
            </g>
        </g>
    </g>
</svg>
