<svg xmlns="http://www.w3.org/2000/svg" width="58" height="20" viewBox="0 0 58 20">
    <g fill="#FFF" fill-rule="evenodd">
        <path d="M9.572 4.077a7.738 7.738 0 0 0-.905-.478 8.073 8.073 0 0 0-.99-.373 8.042 8.042 0 0 0-1.017-.242 5.814 5.814 0 0 0-2.128.023 2.999 2.999 0 0 0-.91.337c-.255.149-.454.336-.597.563a1.435 1.435 0 0 0-.215.787c0 .224.033.424.097.6.065.178.153.336.265.478.112.14.242.265.386.379.145.111.298.214.46.308.388.224.795.447 1.22.674.425.225.85.453 1.272.678.422.225.832.453 1.228.68.395.228.76.455 1.096.678.447.3.826.613 1.134.942.309.33.56.676.751 1.04.193.365.331.746.416 1.147.084.4.127.817.127 1.25 0 .627-.088 1.193-.264 1.702a4.58 4.58 0 0 1-.74 1.358 4.942 4.942 0 0 1-1.119 1.034c-.432.29-.902.53-1.408.717a8.555 8.555 0 0 1-1.604.42c-.56.092-1.13.136-1.707.136-.555 0-1.106-.03-1.653-.092a10.24 10.24 0 0 1-2.429-.592 2.695 2.695 0 0 1-.67-.352 1.617 1.617 0 0 1-.467-.523c-.116-.207-.174-.465-.174-.774 0-.241.044-.454.13-.638.087-.183.208-.338.363-.463a1.56 1.56 0 0 1 .544-.282c.207-.063.43-.094.666-.094.228 0 .454.031.674.091.222.061.44.128.655.206.46.155.915.265 1.362.33.447.065.851.1 1.213.1.35 0 .697-.03 1.041-.086.344-.055.653-.156.926-.301.271-.146.493-.344.663-.598.17-.252.255-.578.255-.976a1.619 1.619 0 0 0-.332-1.003 2.134 2.134 0 0 0-.348-.369 4.091 4.091 0 0 0-.42-.305 13.694 13.694 0 0 0-.668-.395 72.549 72.549 0 0 0-1.726-.94c-.304-.162-.592-.312-.862-.456a49.453 49.453 0 0 1-.729-.393c-.214-.118-.38-.213-.496-.285-.447-.28-.851-.574-1.214-.878A5.054 5.054 0 0 1-.2 7.837a4.38 4.38 0 0 1-.59-1.245 5.459 5.459 0 0 1-.21-1.576c0-.635.09-1.2.269-1.693a4.19 4.19 0 0 1 .74-1.299A4.583 4.583 0 0 1 1.12 1.08 6.33 6.33 0 0 1 2.5.452 9.072 9.072 0 0 1 4.043.106 12.166 12.166 0 0 1 5.654 0a13.256 13.256 0 0 1 3.037.344 10.313 10.313 0 0 1 2.41.889l-1.53 2.844zM18.837.215v10.813c0 .56.012 1.055.036 1.486.025.433.073.814.146 1.145.07.33.167.619.288.862.12.243.278.456.475.64.188.178.39.323.605.432.215.111.433.193.653.251.22.059.441.099.66.118.22.02.428.03.625.03.18 0 .374-.02.586-.057.213-.037.428-.096.643-.174.213-.078.423-.177.629-.301.205-.122.393-.27.563-.44.179-.179.322-.386.426-.623.106-.238.187-.52.242-.85.057-.328.092-.71.107-1.143.017-.434.024-.936.024-1.51V1.737c0-.28.046-.53.137-.746a1.5 1.5 0 0 1 .386-.548 1.64 1.64 0 0 1 .583-.331A2.31 2.31 0 0 1 27.383 0c.277 0 .528.042.754.122a1.6 1.6 0 0 1 .58.345c.161.15.286.332.373.547.088.214.131.456.131.723v9.076a45.063 45.063 0 0 1-.013 1.14 11.75 11.75 0 0 1-.154 1.664 7.262 7.262 0 0 1-.444 1.557c-.295.721-.672 1.319-1.13 1.797-.458.48-.967.862-1.526 1.151a6.536 6.536 0 0 1-1.785.614c-.63.121-1.262.18-1.897.18-.497 0-1.007-.036-1.527-.11a8.196 8.196 0 0 1-1.53-.368 7.366 7.366 0 0 1-1.429-.675 5.454 5.454 0 0 1-1.224-1.026 5.462 5.462 0 0 1-.773-1.09 5.768 5.768 0 0 1-.47-1.164 7.29 7.29 0 0 1-.239-1.256 14.77 14.77 0 0 1-.074-1.367 20.065 20.065 0 0 1-.006-.516V.215h3.837zM38.535 0l3.649 6.95c.138.27.296.573.474.915a139.228 139.228 0 0 1 1.17 2.336c.21.43.42.869.63 1.312a58.566 58.566 0 0 1 1.187 2.641h.108a89.212 89.212 0 0 1-.191-1.935 70.848 70.848 0 0 1-.145-1.921c-.04-.649-.07-1.317-.09-2.004a71.722 71.722 0 0 1-.03-2.176V0h3.514v16.005c0 .53-.073.947-.22 1.256a2.018 2.018 0 0 1-.413.58 2.354 2.354 0 0 1-.564.405 2.722 2.722 0 0 1-.67.241c-.24.054-.485.081-.735.081-.51 0-.986-.131-1.425-.392-.442-.261-.825-.692-1.151-1.291l-3.032-5.56c-.26-.476-.523-.97-.792-1.48A58.003 58.003 0 0 1 38.102 6.3a60.474 60.474 0 0 1-.936-2.233h-.126c.076.691.143 1.389.204 2.093.06.702.11 1.392.15 2.075.04.68.072 1.349.091 1.999.021.651.03 1.274.03 1.867v4.502c0 .322-.034.594-.103.816-.07.22-.179.421-.326.599a1.558 1.558 0 0 1-.54.419c-.216.106-.48.16-.788.16-.31 0-.573-.054-.792-.16-.22-.105-.4-.245-.543-.42a1.705 1.705 0 0 1-.322-.598 2.848 2.848 0 0 1-.101-.816V0h4.535zM57.73 0v16.448c0 .342-.038.63-.11.866a1.927 1.927 0 0 1-.34.637 1.648 1.648 0 0 1-.58.45 1.926 1.926 0 0 1-.835.167c-.322 0-.6-.055-.836-.167a1.648 1.648 0 0 1-.58-.45 1.924 1.924 0 0 1-.339-.637 2.914 2.914 0 0 1-.11-.866V0h3.73z"/>
    </g>
</svg>
