<svg xmlns="http://www.w3.org/2000/svg" width="24" height="24" viewBox="0 0 24 24">
    <path fill="#B0B0B0" fill-rule="nonzero" d="M18.5 14.75c1.036 0 1.875.84 1.875 1.875V18.5c0 1.036-.84 1.875-1.875 1.875h-1.875A1.875 1.875 0 0 1 14.75 18.5v-1.875c0-1.036.84-1.875 1.875-1.875v-1.875H7.25v1.875c1.036 0 1.875.84 1.875 1.875V18.5c0 1.036-.84 1.875-1.875 1.875H5.375A1.875 1.875 0 0 1 3.5 18.5v-1.875c0-1.036.84-1.875 1.875-1.875v-1.875c0-1.036.84-1.875 1.875-1.875H11V9.125A1.875 1.875 0 0 1 9.125 7.25V5.375c0-1.036.84-1.875 1.875-1.875h1.875c1.036 0 1.875.84 1.875 1.875V7.25c0 1.036-.84 1.875-1.875 1.875V11h3.75c1.036 0 1.875.84 1.875 1.875v1.875zM5.187 16.438v2.25h2.25v-2.25h-2.25zm11.25 0v2.25h2.25v-2.25h-2.25zm-5.625-11.25v2.25h2.25v-2.25h-2.25z"/>
</svg>
