<svg xmlns="http://www.w3.org/2000/svg" width="24" height="24" viewBox="0 0 24 24">
    <path fill="#6C788F" fill-rule="nonzero" d="M8.767 16.053l1.467-.424 8.836-8.941a.38.38 0 0 0-.003-.534l-.529-.535a.37.37 0 0 0-.526-.002l-8.813 8.918-.433 1.517zM19.586 4.559l.529.536a1.9 1.9 0 0 1 .013 2.663l-9.105 9.215-3.136.904a.75.75 0 0 1-.925-.52.762.762 0 0 1-.002-.421l.912-3.2 9.081-9.19a1.846 1.846 0 0 1 2.633.012v.001zm-9.6.961c.414 0 .749.34.749.758a.752.752 0 0 1-.748.757H6.993c-.826 0-1.496.678-1.496 1.514v9.089c0 .836.67 1.515 1.496 1.515h8.98c.827 0 1.498-.679 1.498-1.515v-3.03c0-.418.335-.757.748-.757s.748.34.748.758v3.029c0 1.673-1.34 3.03-2.994 3.03h-8.98C5.34 20.668 4 19.31 4 17.638V8.549C4 6.877 5.34 5.52 6.993 5.52h2.994z"/>
</svg>
